<?xml version="1.0" encoding="UTF-8" standalone="no"?>
<!DOCTYPE svg PUBLIC "-//W3C//DTD SVG 1.1//EN"
 "http://www.w3.org/Graphics/SVG/1.1/DTD/svg11.dtd">
<!-- Generated by graphviz version 2.40.1 (20161225.0304)
 -->
<!-- Title: G Pages: 1 -->
<svg width="366pt" height="52pt"
 viewBox="0.00 0.00 366.00 51.55" xmlns="http://www.w3.org/2000/svg" xmlns:xlink="http://www.w3.org/1999/xlink">
<g id="graph0" class="graph" transform="scale(1 1) rotate(0) translate(4 47.5483)">
<title>G</title>
<polygon fill="#ffffff" stroke="transparent" points="-4,4 -4,-47.5483 362,-47.5483 362,4 -4,4"/>
<!-- I1 -->
<g id="node1" class="node">
<title>I1</title>
</g>
<!-- tx -->
<g id="node2" class="node">
<title>tx</title>
<ellipse fill="none" stroke="#000000" cx="142" cy="-25.5483" rx="27" ry="18"/>
<text text-anchor="middle" x="142" y="-21.8483" font-family="Times,serif" font-size="14.00" fill="#000000">tx</text>
</g>
<!-- I1&#45;&gt;tx -->
<g id="edge1" class="edge">
<title>I1&#45;&gt;tx</title>
<path fill="none" stroke="#000000" d="M54.2534,-25.5483C69.2913,-25.5483 88.1877,-25.5483 104.5897,-25.5483"/>
<polygon fill="#000000" stroke="#000000" points="104.9423,-29.0483 114.9422,-25.5483 104.9422,-22.0483 104.9423,-29.0483"/>
<text text-anchor="middle" x="84.5" y="-29.3483" font-family="Times,serif" font-size="14.00" fill="#000000">10</text>
</g>
<!-- I1&#45;&gt;tx -->
<g id="edge2" class="edge">
<title>I1&#45;&gt;tx</title>
<text text-anchor="middle" x="84.5" y="-10.3483" font-family="Times,serif" font-size="14.00" fill="#000000">Bob</text>
</g>
<!-- I2 -->
<g id="node3" class="node">
<title>I2</title>
</g>
<!-- tx&#45;&gt;I2 -->
<g id="edge3" class="edge">
<title>tx&#45;&gt;I2</title>
<path fill="none" stroke="#000000" d="M169.0791,-25.5483C201.78,-25.5483 256.9555,-25.5483 293.6758,-25.5483"/>
<polygon fill="#000000" stroke="#000000" points="293.9712,-29.0483 303.9711,-25.5483 293.9711,-22.0483 293.9712,-29.0483"/>
<text text-anchor="middle" x="236.5" y="-29.3483" font-family="Times,serif" font-size="14.00" fill="#000000">10</text>
</g>
<!-- tx&#45;&gt;I2 -->
<g id="edge4" class="edge">
<title>tx&#45;&gt;I2</title>
<text text-anchor="middle" x="236.5" y="-10.3483" font-family="Times,serif" font-size="14.00" fill="#000000">1/{Bob, Charlie}</text>
</g>
</g>
</svg>
