<?xml version="1.0" encoding="UTF-8" standalone="no"?>
<!DOCTYPE svg PUBLIC "-//W3C//DTD SVG 1.1//EN"
 "http://www.w3.org/Graphics/SVG/1.1/DTD/svg11.dtd">
<!-- Generated by graphviz version 2.40.1 (20161225.0304)
 -->
<!-- Title: G Pages: 1 -->
<svg width="266pt" height="120pt"
 viewBox="0.00 0.00 266.00 120.00" xmlns="http://www.w3.org/2000/svg" xmlns:xlink="http://www.w3.org/1999/xlink">
<g id="graph0" class="graph" transform="scale(1 1) rotate(0) translate(4 116)">
<title>G</title>
<!-- A -->
<g id="node1" class="node">
<title>A</title>
<ellipse fill="none" stroke="#000000" cx="27" cy="-58" rx="27" ry="18"/>
<text text-anchor="middle" x="27" y="-54.3" font-family="Times,serif" font-size="14.00" fill="#000000">A</text>
</g>
<!-- C -->
<g id="node2" class="node">
<title>C</title>
<ellipse fill="none" stroke="#000000" cx="125" cy="-22" rx="27" ry="18"/>
<text text-anchor="middle" x="125" y="-18.3" font-family="Times,serif" font-size="14.00" fill="#000000">C</text>
</g>
<!-- A&#45;&gt;C -->
<g id="edge1" class="edge">
<title>A&#45;&gt;C</title>
<path fill="none" stroke="#000000" d="M50.7231,-49.2854C63.0306,-44.7643 78.2678,-39.1669 91.7322,-34.2208"/>
<polygon fill="#000000" stroke="#000000" points="92.9759,-37.4927 101.1557,-30.7591 90.5621,-30.922 92.9759,-37.4927"/>
<text text-anchor="middle" x="76" y="-45.8" font-family="Times,serif" font-size="14.00" fill="#000000">5</text>
</g>
<!-- D -->
<g id="node5" class="node">
<title>D</title>
<ellipse fill="none" stroke="#000000" cx="125" cy="-94" rx="27" ry="18"/>
<text text-anchor="middle" x="125" y="-90.3" font-family="Times,serif" font-size="14.00" fill="#000000">D</text>
</g>
<!-- A&#45;&gt;D -->
<g id="edge4" class="edge">
<title>A&#45;&gt;D</title>
<path fill="none" stroke="#000000" d="M50.7231,-66.7146C63.0306,-71.2357 78.2678,-76.8331 91.7322,-81.7792"/>
<polygon fill="#000000" stroke="#000000" points="90.5621,-85.078 101.1557,-85.2409 92.9759,-78.5073 90.5621,-85.078"/>
<text text-anchor="middle" x="76" y="-80.8" font-family="Times,serif" font-size="14.00" fill="#000000">5</text>
</g>
<!-- B -->
<g id="node3" class="node">
<title>B</title>
<ellipse fill="none" stroke="#000000" cx="231" cy="-83" rx="27" ry="18"/>
<text text-anchor="middle" x="231" y="-79.3" font-family="Times,serif" font-size="14.00" fill="#000000">B</text>
</g>
<!-- C&#45;&gt;B -->
<g id="edge2" class="edge">
<title>C&#45;&gt;B</title>
<path fill="none" stroke="#000000" d="M145.6895,-33.9062C161.5945,-43.0591 183.7772,-55.8246 201.5359,-66.0443"/>
<polygon fill="#000000" stroke="#000000" points="199.9496,-69.1695 210.3627,-71.1238 203.4411,-63.1024 199.9496,-69.1695"/>
<text text-anchor="middle" x="178" y="-59.8" font-family="Times,serif" font-size="14.00" fill="#000000">3</text>
</g>
<!-- E -->
<g id="node4" class="node">
<title>E</title>
<ellipse fill="none" stroke="#000000" cx="231" cy="-18" rx="27" ry="18"/>
<text text-anchor="middle" x="231" y="-14.3" font-family="Times,serif" font-size="14.00" fill="#000000">E</text>
</g>
<!-- C&#45;&gt;E -->
<g id="edge3" class="edge">
<title>C&#45;&gt;E</title>
<path fill="none" stroke="#000000" d="M152.1156,-19.9714C158.0086,-19.5923 164.2109,-19.2403 170,-19 177.7261,-18.6793 186.0067,-18.4602 193.8971,-18.3109"/>
<polygon fill="#000000" stroke="#000000" points="194.0221,-21.8094 203.9656,-18.152 193.9116,-14.8103 194.0221,-21.8094"/>
<text text-anchor="middle" x="178" y="-22.8" font-family="Times,serif" font-size="14.00" fill="#000000">10</text>
</g>
<!-- D&#45;&gt;C -->
<g id="edge6" class="edge">
<title>D&#45;&gt;C</title>
<path fill="none" stroke="#000000" d="M125,-75.5867C125,-67.9407 125,-58.8916 125,-50.4274"/>
<polygon fill="#000000" stroke="#000000" points="128.5001,-50.1686 125,-40.1686 121.5001,-50.1687 128.5001,-50.1686"/>
<text text-anchor="middle" x="114.5" y="-54.3" font-family="Times,serif" font-size="14.00" fill="#000000">4</text>
</g>
<!-- D&#45;&gt;B -->
<g id="edge5" class="edge">
<title>D&#45;&gt;B</title>
<path fill="none" stroke="#000000" d="M151.7483,-91.2242C164.5531,-89.8954 180.093,-88.2828 194.0082,-86.8388"/>
<polygon fill="#000000" stroke="#000000" points="194.675,-90.2885 204.2603,-85.7749 193.9524,-83.3259 194.675,-90.2885"/>
<text text-anchor="middle" x="178" y="-92.8" font-family="Times,serif" font-size="14.00" fill="#000000">2</text>
</g>
</g>
</svg>
