<?xml version="1.0" encoding="UTF-8" standalone="no"?>
<!DOCTYPE svg PUBLIC "-//W3C//DTD SVG 1.1//EN"
 "http://www.w3.org/Graphics/SVG/1.1/DTD/svg11.dtd">
<!-- Generated by graphviz version 2.40.1 (20161225.0304)
 -->
<!-- Title: G Pages: 1 -->
<svg width="266pt" height="120pt"
 viewBox="0.00 0.00 266.00 120.00" xmlns="http://www.w3.org/2000/svg" xmlns:xlink="http://www.w3.org/1999/xlink">
<g id="graph0" class="graph" transform="scale(1 1) rotate(0) translate(4 116)">
<title>G</title>
<!-- A -->
<g id="node1" class="node">
<title>A</title>
<ellipse fill="none" stroke="#000000" cx="27" cy="-67" rx="27" ry="18"/>
<text text-anchor="middle" x="27" y="-63.3" font-family="Times,serif" font-size="14.00" fill="#000000">A</text>
</g>
<!-- D -->
<g id="node2" class="node">
<title>D</title>
<ellipse fill="none" stroke="#000000" cx="125" cy="-94" rx="27" ry="18"/>
<text text-anchor="middle" x="125" y="-90.3" font-family="Times,serif" font-size="14.00" fill="#000000">D</text>
</g>
<!-- A&#45;&gt;D -->
<g id="edge1" class="edge">
<title>A&#45;&gt;D</title>
<path fill="none" stroke="#000000" d="M51.9831,-73.8831C63.5278,-77.0638 77.4356,-80.8955 90.002,-84.3577"/>
<polygon fill="#000000" stroke="#000000" points="89.1513,-87.7537 99.7218,-87.0356 91.0106,-81.0051 89.1513,-87.7537"/>
<text text-anchor="middle" x="76" y="-84.8" font-family="Times,serif" font-size="14.00" fill="#000000">6</text>
</g>
<!-- C -->
<g id="node3" class="node">
<title>C</title>
<ellipse fill="none" stroke="#000000" cx="125" cy="-40" rx="27" ry="18"/>
<text text-anchor="middle" x="125" y="-36.3" font-family="Times,serif" font-size="14.00" fill="#000000">C</text>
</g>
<!-- A&#45;&gt;C -->
<g id="edge2" class="edge">
<title>A&#45;&gt;C</title>
<path fill="none" stroke="#000000" d="M51.9831,-60.1169C63.5278,-56.9362 77.4356,-53.1045 90.002,-49.6423"/>
<polygon fill="#000000" stroke="#000000" points="91.0106,-52.9949 99.7218,-46.9644 89.1513,-46.2463 91.0106,-52.9949"/>
<text text-anchor="middle" x="76" y="-57.8" font-family="Times,serif" font-size="14.00" fill="#000000">5</text>
</g>
<!-- B -->
<g id="node4" class="node">
<title>B</title>
<ellipse fill="none" stroke="#000000" cx="231" cy="-83" rx="27" ry="18"/>
<text text-anchor="middle" x="231" y="-79.3" font-family="Times,serif" font-size="14.00" fill="#000000">B</text>
</g>
<!-- D&#45;&gt;B -->
<g id="edge5" class="edge">
<title>D&#45;&gt;B</title>
<path fill="none" stroke="#000000" d="M151.7483,-91.2242C164.5531,-89.8954 180.093,-88.2828 194.0082,-86.8388"/>
<polygon fill="#000000" stroke="#000000" points="194.675,-90.2885 204.2603,-85.7749 193.9524,-83.3259 194.675,-90.2885"/>
<text text-anchor="middle" x="178" y="-92.8" font-family="Times,serif" font-size="14.00" fill="#000000">2</text>
</g>
<!-- C&#45;&gt;B -->
<g id="edge3" class="edge">
<title>C&#45;&gt;B</title>
<path fill="none" stroke="#000000" d="M148.2621,-49.4365C162.898,-55.3737 182.0072,-63.1256 198.1732,-69.6835"/>
<polygon fill="#000000" stroke="#000000" points="197.2098,-73.0696 207.7921,-73.5855 199.8412,-66.583 197.2098,-73.0696"/>
<text text-anchor="middle" x="178" y="-67.8" font-family="Times,serif" font-size="14.00" fill="#000000">3</text>
</g>
<!-- E -->
<g id="node5" class="node">
<title>E</title>
<ellipse fill="none" stroke="#000000" cx="231" cy="-18" rx="27" ry="18"/>
<text text-anchor="middle" x="231" y="-14.3" font-family="Times,serif" font-size="14.00" fill="#000000">E</text>
</g>
<!-- C&#45;&gt;E -->
<g id="edge4" class="edge">
<title>C&#45;&gt;E</title>
<path fill="none" stroke="#000000" d="M145.8569,-28.0445C153.2427,-24.4196 161.7669,-20.8974 170,-19 177.607,-17.2469 185.89,-16.4203 193.8293,-16.1321"/>
<polygon fill="#000000" stroke="#000000" points="194.0179,-19.6305 203.9824,-16.0307 193.9479,-12.6308 194.0179,-19.6305"/>
<text text-anchor="middle" x="178" y="-22.8" font-family="Times,serif" font-size="14.00" fill="#000000">10</text>
</g>
</g>
</svg>
