<?xml version="1.0" encoding="UTF-8" standalone="no"?>
<!DOCTYPE svg PUBLIC "-//W3C//DTD SVG 1.1//EN"
 "http://www.w3.org/Graphics/SVG/1.1/DTD/svg11.dtd">
<!-- Generated by graphviz version 2.40.1 (20161225.0304)
 -->
<!-- Title: G Pages: 1 -->
<svg width="298pt" height="98pt"
 viewBox="0.00 0.00 298.00 98.00" xmlns="http://www.w3.org/2000/svg" xmlns:xlink="http://www.w3.org/1999/xlink">
<g id="graph0" class="graph" transform="scale(1 1) rotate(0) translate(4 94)">
<title>G</title>
<!-- A -->
<g id="node1" class="node">
<title>A</title>
<ellipse fill="none" stroke="#000000" cx="67" cy="-45" rx="27" ry="18"/>
<text text-anchor="middle" x="67" y="-41.3" font-family="Times,serif" font-size="14.00" fill="#000000">A</text>
<text text-anchor="middle" x="67" y="-70.8" font-family="Times,serif" font-size="14.00" fill="#000000">Source</text>
</g>
<!-- D -->
<g id="node3" class="node">
<title>D</title>
<ellipse fill="none" stroke="#000000" cx="165" cy="-72" rx="27" ry="18"/>
<text text-anchor="middle" x="165" y="-68.3" font-family="Times,serif" font-size="14.00" fill="#000000">D</text>
</g>
<!-- A&#45;&gt;D -->
<g id="edge1" class="edge">
<title>A&#45;&gt;D</title>
<path fill="none" stroke="#000000" d="M91.9831,-51.8831C103.5278,-55.0638 117.4356,-58.8955 130.002,-62.3577"/>
<polygon fill="#000000" stroke="#000000" points="129.1513,-65.7537 139.7218,-65.0356 131.0106,-59.0051 129.1513,-65.7537"/>
<text text-anchor="middle" x="116" y="-62.8" font-family="Times,serif" font-size="14.00" fill="#000000">6</text>
</g>
<!-- C -->
<g id="node4" class="node">
<title>C</title>
<ellipse fill="none" stroke="#000000" cx="165" cy="-18" rx="27" ry="18"/>
<text text-anchor="middle" x="165" y="-14.3" font-family="Times,serif" font-size="14.00" fill="#000000">C</text>
</g>
<!-- A&#45;&gt;C -->
<g id="edge2" class="edge">
<title>A&#45;&gt;C</title>
<path fill="none" stroke="#000000" d="M91.9831,-38.1169C103.5278,-34.9362 117.4356,-31.1045 130.002,-27.6423"/>
<polygon fill="#000000" stroke="#000000" points="131.0106,-30.9949 139.7218,-24.9644 129.1513,-24.2463 131.0106,-30.9949"/>
<text text-anchor="middle" x="116" y="-35.8" font-family="Times,serif" font-size="14.00" fill="#000000">5</text>
</g>
<!-- B -->
<g id="node2" class="node">
<title>B</title>
<ellipse fill="none" stroke="#000000" cx="263" cy="-45" rx="27" ry="18"/>
<text text-anchor="middle" x="263" y="-41.3" font-family="Times,serif" font-size="14.00" fill="#000000">B</text>
<text text-anchor="middle" x="263" y="-70.8" font-family="Times,serif" font-size="14.00" fill="#000000">Drain</text>
</g>
<!-- D&#45;&gt;B -->
<g id="edge4" class="edge">
<title>D&#45;&gt;B</title>
<path fill="none" stroke="#000000" d="M189.9831,-65.1169C201.5278,-61.9362 215.4356,-58.1045 228.002,-54.6423"/>
<polygon fill="#000000" stroke="#000000" points="229.0106,-57.9949 237.7218,-51.9644 227.1513,-51.2463 229.0106,-57.9949"/>
<text text-anchor="middle" x="214" y="-62.8" font-family="Times,serif" font-size="14.00" fill="#000000">2</text>
</g>
<!-- C&#45;&gt;B -->
<g id="edge3" class="edge">
<title>C&#45;&gt;B</title>
<path fill="none" stroke="#000000" d="M190.6919,-23.9674C199.3921,-26.0768 209.1457,-28.5392 218,-31 221.4144,-31.9489 224.9615,-32.9775 228.4988,-34.0316"/>
<polygon fill="#000000" stroke="#000000" points="227.737,-37.4583 238.3229,-37.025 229.7773,-30.7622 227.737,-37.4583"/>
<text text-anchor="middle" x="214" y="-34.8" font-family="Times,serif" font-size="14.00" fill="#000000">3</text>
</g>
</g>
</svg>
