<?xml version="1.0" encoding="UTF-8" standalone="no"?>
<!DOCTYPE svg PUBLIC "-//W3C//DTD SVG 1.1//EN"
 "http://www.w3.org/Graphics/SVG/1.1/DTD/svg11.dtd">
<!-- Generated by graphviz version 2.40.1 (20161225.0304)
 -->
<!-- Title: G Pages: 1 -->
<svg width="219pt" height="130pt"
 viewBox="0.00 0.00 218.59 130.00" xmlns="http://www.w3.org/2000/svg" xmlns:xlink="http://www.w3.org/1999/xlink">
<g id="graph0" class="graph" transform="scale(1 1) rotate(0) translate(4 126)">
<title>G</title>
<g id="clust1" class="cluster">
<title>cluster0</title>
</g>
<!-- Alice -->
<g id="node1" class="node">
<title>Alice</title>
</g>
<!-- Corrupted -->
<g id="node2" class="node">
<title>Corrupted</title>
</g>
<!-- Alice&#45;&gt;Corrupted -->
<g id="edge1" class="edge">
<title>Alice&#45;&gt;Corrupted</title>
</g>
<!-- Corrupted&#45;&gt;Alice -->
<g id="edge2" class="edge">
<title>Corrupted&#45;&gt;Alice</title>
</g>
<!-- Sybil -->
<g id="node3" class="node">
<title>Sybil</title>
<ellipse fill="none" stroke="#000000" cx="145.8403" cy="-34" rx="30.5947" ry="18"/>
<text text-anchor="middle" x="145.8403" y="-30.3" font-family="Times,serif" font-size="14.00" fill="#000000">Sybil</text>
</g>
<!-- Corrupted&#45;&gt;Sybil -->
<g id="edge3" class="edge">
<title>Corrupted&#45;&gt;Sybil</title>
<path fill="none" stroke="#000000" d="M126.3604,-71.448C123.4123,-66.9588 122.3643,-62.4696 123.2164,-57.9803"/>
<polygon fill="#000000" stroke="#000000" points="126.467,-59.296 127.6338,-48.7656 120.1548,-56.27 126.467,-59.296"/>
</g>
<!-- Sybil&#45;&gt;Alice -->
<g id="edge5" class="edge">
<title>Sybil&#45;&gt;Alice</title>
<path fill="none" stroke="#000000" d="M121.6711,-45.3202C104.9148,-53.1683 82.3835,-63.7213 63.9181,-72.37"/>
<polygon fill="#000000" stroke="#000000" points="62.256,-69.2836 54.6847,-76.6947 65.2251,-75.6227 62.256,-69.2836"/>
</g>
<!-- Sybil&#45;&gt;Corrupted -->
<g id="edge4" class="edge">
<title>Sybil&#45;&gt;Corrupted</title>
<path fill="none" stroke="#000000" d="M164.0467,-48.7656C167.408,-53.1367 168.9679,-57.5078 168.7264,-61.8789"/>
<polygon fill="#000000" stroke="#000000" points="165.3764,-60.8533 165.3201,-71.448 171.9711,-63.2009 165.3764,-60.8533"/>
</g>
</g>
</svg>
