<?xml version="1.0" encoding="UTF-8" standalone="no"?>
<!DOCTYPE svg PUBLIC "-//W3C//DTD SVG 1.1//EN"
 "http://www.w3.org/Graphics/SVG/1.1/DTD/svg11.dtd">
<!-- Generated by graphviz version 2.40.1 (20161225.0304)
 -->
<!-- Title: G Pages: 1 -->
<svg width="280pt" height="98pt"
 viewBox="0.00 0.00 280.00 98.00" xmlns="http://www.w3.org/2000/svg" xmlns:xlink="http://www.w3.org/1999/xlink">
<g id="graph0" class="graph" transform="scale(1 1) rotate(0) translate(4 94)">
<title>G</title>
<!-- A -->
<g id="node1" class="node">
<title>A</title>
<ellipse fill="none" stroke="#000000" cx="27" cy="-45" rx="27" ry="18"/>
<text text-anchor="middle" x="27" y="-41.3" font-family="Times,serif" font-size="14.00" fill="#000000">A</text>
</g>
<!-- D -->
<g id="node2" class="node">
<title>D</title>
<ellipse fill="none" stroke="#000000" cx="136" cy="-72" rx="27" ry="18"/>
<text text-anchor="middle" x="136" y="-68.3" font-family="Times,serif" font-size="14.00" fill="#000000">D</text>
</g>
<!-- A&#45;&gt;D -->
<g id="edge1" class="edge">
<title>A&#45;&gt;D</title>
<path fill="none" stroke="#000000" d="M52.5557,-51.3303C66.9053,-54.8848 85.0262,-59.3735 100.7122,-63.259"/>
<polygon fill="#000000" stroke="#000000" points="100.0562,-66.7022 110.6045,-65.7094 101.7394,-59.9076 100.0562,-66.7022"/>
<text text-anchor="middle" x="81.5" y="-63.8" font-family="Times,serif" font-size="14.00" fill="#000000">4/6</text>
</g>
<!-- C -->
<g id="node3" class="node">
<title>C</title>
<ellipse fill="none" stroke="#000000" cx="136" cy="-18" rx="27" ry="18"/>
<text text-anchor="middle" x="136" y="-14.3" font-family="Times,serif" font-size="14.00" fill="#000000">C</text>
</g>
<!-- A&#45;&gt;C -->
<g id="edge2" class="edge">
<title>A&#45;&gt;C</title>
<path fill="none" stroke="#000000" d="M52.5557,-38.6697C66.9053,-35.1152 85.0262,-30.6265 100.7122,-26.741"/>
<polygon fill="#000000" stroke="#000000" points="101.7394,-30.0924 110.6045,-24.2906 100.0562,-23.2978 101.7394,-30.0924"/>
<text text-anchor="middle" x="81.5" y="-36.8" font-family="Times,serif" font-size="14.00" fill="#000000">2/5</text>
</g>
<!-- B -->
<g id="node4" class="node">
<title>B</title>
<ellipse fill="none" stroke="#000000" cx="245" cy="-45" rx="27" ry="18"/>
<text text-anchor="middle" x="245" y="-41.3" font-family="Times,serif" font-size="14.00" fill="#000000">B</text>
</g>
<!-- D&#45;&gt;B -->
<g id="edge4" class="edge">
<title>D&#45;&gt;B</title>
<path fill="none" stroke="#000000" d="M161.5557,-65.6697C175.9053,-62.1152 194.0262,-57.6265 209.7122,-53.741"/>
<polygon fill="#000000" stroke="#000000" points="210.7394,-57.0924 219.6045,-51.2906 209.0562,-50.2978 210.7394,-57.0924"/>
<text text-anchor="middle" x="190.5" y="-63.8" font-family="Times,serif" font-size="14.00" fill="#000000">4/2</text>
</g>
<!-- C&#45;&gt;B -->
<g id="edge3" class="edge">
<title>C&#45;&gt;B</title>
<path fill="none" stroke="#000000" d="M162.2928,-22.7185C173.9118,-24.9634 187.6994,-27.8459 200,-31 203.4327,-31.8802 206.992,-32.8633 210.5368,-33.8893"/>
<polygon fill="#000000" stroke="#000000" points="209.7869,-37.3185 220.3711,-36.8446 211.8015,-30.6147 209.7869,-37.3185"/>
<text text-anchor="middle" x="190.5" y="-34.8" font-family="Times,serif" font-size="14.00" fill="#000000">2/3</text>
</g>
</g>
</svg>
