<?xml version="1.0" encoding="UTF-8" standalone="no"?>
<!DOCTYPE svg PUBLIC "-//W3C//DTD SVG 1.1//EN"
 "http://www.w3.org/Graphics/SVG/1.1/DTD/svg11.dtd">
<!-- Generated by graphviz version 2.40.1 (20161225.0304)
 -->
<!-- Title: G Pages: 1 -->
<svg width="258pt" height="149pt"
 viewBox="0.00 0.00 258.00 149.00" xmlns="http://www.w3.org/2000/svg" xmlns:xlink="http://www.w3.org/1999/xlink">
<g id="graph0" class="graph" transform="scale(1 1) rotate(0) translate(4 145)">
<title>G</title>
<!-- A -->
<g id="node1" class="node">
<title>A</title>
<ellipse fill="none" stroke="#000000" cx="27" cy="-72" rx="27" ry="18"/>
<text text-anchor="middle" x="27" y="-68.3" font-family="Times,serif" font-size="14.00" fill="#000000">A</text>
</g>
<!-- D -->
<g id="node2" class="node">
<title>D</title>
<ellipse fill="none" stroke="#000000" cx="125" cy="-123" rx="27" ry="18"/>
<text text-anchor="middle" x="125" y="-119.3" font-family="Times,serif" font-size="14.00" fill="#000000">D</text>
</g>
<!-- A&#45;&gt;D -->
<g id="edge1" class="edge">
<title>A&#45;&gt;D</title>
<path fill="none" stroke="#000000" d="M48.7494,-83.3186C62.164,-90.2996 79.574,-99.3599 94.3707,-107.0603"/>
<polygon fill="#000000" stroke="#000000" points="93.1622,-110.3769 103.6486,-111.8886 96.3937,-104.1674 93.1622,-110.3769"/>
<text text-anchor="middle" x="76" y="-102.8" font-family="Times,serif" font-size="14.00" fill="#000000">0</text>
</g>
<!-- B -->
<g id="node3" class="node">
<title>B</title>
<ellipse fill="none" stroke="#000000" cx="223" cy="-72" rx="27" ry="18"/>
<text text-anchor="middle" x="223" y="-68.3" font-family="Times,serif" font-size="14.00" fill="#000000">B</text>
</g>
<!-- A&#45;&gt;B -->
<g id="edge2" class="edge">
<title>A&#45;&gt;B</title>
<path fill="none" stroke="#000000" d="M54.253,-72C88.4813,-72 147.3642,-72 185.7369,-72"/>
<polygon fill="#000000" stroke="#000000" points="185.9785,-75.5001 195.9785,-72 185.9785,-68.5001 185.9785,-75.5001"/>
<text text-anchor="middle" x="125" y="-75.8" font-family="Times,serif" font-size="14.00" fill="#000000">9</text>
</g>
<!-- C -->
<g id="node4" class="node">
<title>C</title>
<ellipse fill="none" stroke="#000000" cx="125" cy="-18" rx="27" ry="18"/>
<text text-anchor="middle" x="125" y="-14.3" font-family="Times,serif" font-size="14.00" fill="#000000">C</text>
</g>
<!-- A&#45;&gt;C -->
<g id="edge3" class="edge">
<title>A&#45;&gt;C</title>
<path fill="none" stroke="#000000" d="M45.9299,-59.0128C53.8425,-53.7929 63.223,-47.8705 72,-43 78.6663,-39.3008 85.9713,-35.6251 92.9698,-32.2761"/>
<polygon fill="#000000" stroke="#000000" points="94.6608,-35.3491 102.2345,-27.9403 91.6937,-29.009 94.6608,-35.3491"/>
<text text-anchor="middle" x="76" y="-46.8" font-family="Times,serif" font-size="14.00" fill="#000000">0</text>
</g>
<!-- D&#45;&gt;B -->
<g id="edge5" class="edge">
<title>D&#45;&gt;B</title>
<path fill="none" stroke="#000000" d="M146.7494,-111.6814C160.164,-104.7004 177.574,-95.6401 192.3707,-87.9397"/>
<polygon fill="#000000" stroke="#000000" points="194.3937,-90.8326 201.6486,-83.1114 191.1622,-84.6231 194.3937,-90.8326"/>
<text text-anchor="middle" x="174" y="-102.8" font-family="Times,serif" font-size="14.00" fill="#000000">2</text>
</g>
<!-- C&#45;&gt;B -->
<g id="edge4" class="edge">
<title>C&#45;&gt;B</title>
<path fill="none" stroke="#000000" d="M147.7655,-27.9403C157.2559,-32.2884 168.3036,-37.6193 178,-43 183.7599,-46.1962 189.7797,-49.8455 195.474,-53.452"/>
<polygon fill="#000000" stroke="#000000" points="193.7727,-56.5199 204.0701,-59.0128 197.5748,-50.6424 193.7727,-56.5199"/>
<text text-anchor="middle" x="174" y="-46.8" font-family="Times,serif" font-size="14.00" fill="#000000">3</text>
</g>
</g>
</svg>
