<?xml version="1.0" encoding="UTF-8" standalone="no"?>
<!DOCTYPE svg PUBLIC "-//W3C//DTD SVG 1.1//EN"
 "http://www.w3.org/Graphics/SVG/1.1/DTD/svg11.dtd">
<!-- Generated by graphviz version 2.40.1 (20161225.0304)
 -->
<!-- Title: G Pages: 1 -->
<svg width="294pt" height="44pt"
 viewBox="0.00 0.00 294.49 44.00" xmlns="http://www.w3.org/2000/svg" xmlns:xlink="http://www.w3.org/1999/xlink">
<g id="graph0" class="graph" transform="scale(1 1) rotate(0) translate(4 40)">
<title>G</title>
<!-- Alice -->
<g id="node1" class="node">
<title>Alice</title>
<ellipse fill="none" stroke="#000000" cx="30.5473" cy="-18" rx="30.5947" ry="18"/>
<text text-anchor="middle" x="30.5473" y="-14.3" font-family="Times,serif" font-size="14.00" fill="#000000">Alice</text>
</g>
<!-- Bob -->
<g id="node2" class="node">
<title>Bob</title>
<ellipse fill="none" stroke="#000000" cx="132.0946" cy="-18" rx="27" ry="18"/>
<text text-anchor="middle" x="132.0946" y="-14.3" font-family="Times,serif" font-size="14.00" fill="#000000">Bob</text>
</g>
<!-- Alice&#45;&gt;Bob -->
<g id="edge1" class="edge">
<title>Alice&#45;&gt;Bob</title>
<path fill="none" stroke="#000000" d="M61.2904,-18C71.8189,-18 83.7158,-18 94.7107,-18"/>
<polygon fill="#000000" stroke="#000000" points="94.9016,-21.5001 104.9016,-18 94.9015,-14.5001 94.9016,-21.5001"/>
<text text-anchor="middle" x="83.0946" y="-21.8" font-family="Times,serif" font-size="14.00" fill="#000000">5</text>
</g>
<!-- Charlie -->
<g id="node3" class="node">
<title>Charlie</title>
<ellipse fill="none" stroke="#000000" cx="248.7912" cy="-18" rx="37.8943" ry="18"/>
<text text-anchor="middle" x="248.7912" y="-14.3" font-family="Times,serif" font-size="14.00" fill="#000000">Charlie</text>
</g>
<!-- Bob&#45;&gt;Charlie -->
<g id="edge2" class="edge">
<title>Bob&#45;&gt;Charlie</title>
<path fill="none" stroke="#000000" d="M159.1605,-18C171.5136,-18 186.5226,-18 200.6979,-18"/>
<polygon fill="#000000" stroke="#000000" points="200.8226,-21.5001 210.8225,-18 200.8225,-14.5001 200.8226,-21.5001"/>
<text text-anchor="middle" x="185.0946" y="-21.8" font-family="Times,serif" font-size="14.00" fill="#000000">10</text>
</g>
</g>
</svg>
