<?xml version="1.0" encoding="UTF-8" standalone="no"?>
<!DOCTYPE svg PUBLIC "-//W3C//DTD SVG 1.1//EN"
 "http://www.w3.org/Graphics/SVG/1.1/DTD/svg11.dtd">
<!-- Generated by graphviz version 2.40.1 (20161225.0304)
 -->
<!-- Title: G Pages: 1 -->
<svg width="289pt" height="44pt"
 viewBox="0.00 0.00 289.29 44.00" xmlns="http://www.w3.org/2000/svg" xmlns:xlink="http://www.w3.org/1999/xlink">
<g id="graph0" class="graph" transform="scale(1 1) rotate(0) translate(4 40)">
<title>G</title>
<!-- Dave -->
<g id="node1" class="node">
<title>Dave</title>
<ellipse fill="none" stroke="#000000" cx="30.5473" cy="-18" rx="30.5947" ry="18"/>
<text text-anchor="middle" x="30.5473" y="-14.3" font-family="Times,serif" font-size="14.00" fill="#000000">Dave</text>
</g>
<!-- Elsa -->
<g id="node2" class="node">
<title>Elsa</title>
<ellipse fill="none" stroke="#000000" cx="140.0946" cy="-18" rx="27" ry="18"/>
<text text-anchor="middle" x="140.0946" y="-14.3" font-family="Times,serif" font-size="14.00" fill="#000000">Elsa</text>
</g>
<!-- Dave&#45;&gt;Elsa -->
<g id="edge1" class="edge">
<title>Dave&#45;&gt;Elsa</title>
<path fill="none" stroke="#000000" d="M61.3538,-18C74.1372,-18 89.0901,-18 102.5108,-18"/>
<polygon fill="#000000" stroke="#000000" points="102.8748,-21.5001 112.8747,-18 102.8747,-14.5001 102.8748,-21.5001"/>
<text text-anchor="middle" x="87.0946" y="-21.8" font-family="Times,serif" font-size="14.00" fill="#000000">10</text>
</g>
<!-- Felicia -->
<g id="node3" class="node">
<title>Felicia</title>
<ellipse fill="none" stroke="#000000" cx="246.1915" cy="-18" rx="35.194" ry="18"/>
<text text-anchor="middle" x="246.1915" y="-14.3" font-family="Times,serif" font-size="14.00" fill="#000000">Felicia</text>
</g>
<!-- Elsa&#45;&gt;Felicia -->
<g id="edge2" class="edge">
<title>Elsa&#45;&gt;Felicia</title>
<path fill="none" stroke="#000000" d="M167.1418,-18C177.2949,-18 189.1362,-18 200.5159,-18"/>
<polygon fill="#000000" stroke="#000000" points="200.7752,-21.5001 210.7752,-18 200.7751,-14.5001 200.7752,-21.5001"/>
<text text-anchor="middle" x="189.0946" y="-21.8" font-family="Times,serif" font-size="14.00" fill="#000000">5</text>
</g>
</g>
</svg>
