<?xml version="1.0" encoding="UTF-8" standalone="no"?>
<!DOCTYPE svg PUBLIC "-//W3C//DTD SVG 1.1//EN"
 "http://www.w3.org/Graphics/SVG/1.1/DTD/svg11.dtd">
<!-- Generated by graphviz version 2.40.1 (20161225.0304)
 -->
<!-- Title: G Pages: 1 -->
<svg width="251pt" height="112pt"
 viewBox="0.00 0.00 251.00 112.00" xmlns="http://www.w3.org/2000/svg" xmlns:xlink="http://www.w3.org/1999/xlink">
<g id="graph0" class="graph" transform="scale(1 1) rotate(0) translate(4 108)">
<title>G</title>
<!-- C -->
<g id="node1" class="node">
<title>C</title>
<ellipse fill="none" stroke="#000000" stroke-width="4" cx="125" cy="-32" rx="27" ry="18"/>
<text text-anchor="middle" x="125" y="-28.3" font-family="Times,serif" font-size="14.00" fill="#000000">C</text>
</g>
<!-- E -->
<g id="node5" class="node">
<title>E</title>
<ellipse fill="none" stroke="#000000" cx="216" cy="-58" rx="27" ry="18"/>
<text text-anchor="middle" x="216" y="-54.3" font-family="Times,serif" font-size="14.00" fill="#000000">E</text>
</g>
<!-- C&#45;&gt;E -->
<g id="edge4" class="edge">
<title>C&#45;&gt;E</title>
</g>
<!-- A -->
<g id="node2" class="node">
<title>A</title>
<ellipse fill="none" stroke="#000000" cx="27" cy="-79" rx="27" ry="18"/>
<text text-anchor="middle" x="27" y="-75.3" font-family="Times,serif" font-size="14.00" fill="#000000">A</text>
</g>
<!-- A&#45;&gt;C -->
<g id="edge1" class="edge">
<title>A&#45;&gt;C</title>
<path fill="none" stroke="#000000" d="M49.2377,-68.335C62.3941,-62.0253 79.2636,-53.9348 93.7433,-46.9905"/>
<polygon fill="#000000" stroke="#000000" points="95.3471,-50.103 102.8503,-42.6228 92.3201,-43.7914 95.3471,-50.103"/>
<text text-anchor="middle" x="76" y="-59.8" font-family="Times,serif" font-size="14.00" fill="#000000">4</text>
</g>
<!-- D -->
<g id="node3" class="node">
<title>D</title>
<ellipse fill="none" stroke="#000000" cx="125" cy="-86" rx="27" ry="18"/>
<text text-anchor="middle" x="125" y="-82.3" font-family="Times,serif" font-size="14.00" fill="#000000">D</text>
</g>
<!-- A&#45;&gt;D -->
<g id="edge2" class="edge">
<title>A&#45;&gt;D</title>
</g>
<!-- D&#45;&gt;E -->
<g id="edge5" class="edge">
<title>D&#45;&gt;E</title>
</g>
<!-- B -->
<g id="node4" class="node">
<title>B</title>
<ellipse fill="none" stroke="#000000" cx="27" cy="-18" rx="27" ry="18"/>
<text text-anchor="middle" x="27" y="-14.3" font-family="Times,serif" font-size="14.00" fill="#000000">B</text>
</g>
<!-- B&#45;&gt;C -->
<g id="edge3" class="edge">
<title>B&#45;&gt;C</title>
<path fill="none" stroke="#000000" d="M54.0777,-17.1471C62.4289,-17.2492 71.6284,-17.7343 80,-19 83.4826,-19.5265 87.0749,-20.247 90.64,-21.0807"/>
<polygon fill="#000000" stroke="#000000" points="89.9417,-24.5158 100.5021,-23.6633 91.715,-17.7441 89.9417,-24.5158"/>
<text text-anchor="middle" x="76" y="-22.8" font-family="Times,serif" font-size="14.00" fill="#000000">6</text>
</g>
</g>
</svg>
