<?xml version="1.0" encoding="UTF-8" standalone="no"?>
<!DOCTYPE svg PUBLIC "-//W3C//DTD SVG 1.1//EN"
 "http://www.w3.org/Graphics/SVG/1.1/DTD/svg11.dtd">
<!-- Generated by graphviz version 2.40.1 (20161225.0304)
 -->
<!-- Title: G Pages: 1 -->
<svg width="258pt" height="120pt"
 viewBox="0.00 0.00 258.00 120.00" xmlns="http://www.w3.org/2000/svg" xmlns:xlink="http://www.w3.org/1999/xlink">
<g id="graph0" class="graph" transform="scale(1 1) rotate(0) translate(4 116)">
<title>G</title>
<!-- A0 -->
<g id="node1" class="node">
<title>A0</title>
<ellipse fill="none" stroke="#000000" cx="27" cy="-83" rx="27" ry="18"/>
<text text-anchor="middle" x="27" y="-79.3" font-family="Times,serif" font-size="14.00" fill="#000000">A</text>
</g>
<!-- C0 -->
<g id="node2" class="node">
<title>C0</title>
<ellipse fill="none" stroke="#000000" cx="125" cy="-40" rx="27" ry="18"/>
<text text-anchor="middle" x="125" y="-36.3" font-family="Times,serif" font-size="14.00" fill="#000000">C</text>
</g>
<!-- A0&#45;&gt;C0 -->
<g id="edge1" class="edge">
<title>A0&#45;&gt;C0</title>
<path fill="none" stroke="#000000" d="M49.7295,-73.0269C62.5931,-67.3826 78.8862,-60.2336 93.0213,-54.0315"/>
<polygon fill="#000000" stroke="#000000" points="94.6428,-57.1422 102.3938,-49.9191 91.8302,-50.7321 94.6428,-57.1422"/>
<text text-anchor="middle" x="76" y="-65.8" font-family="Times,serif" font-size="14.00" fill="#000000">6</text>
</g>
<!-- D0 -->
<g id="node3" class="node">
<title>D0</title>
<ellipse fill="none" stroke="#000000" cx="125" cy="-94" rx="27" ry="18"/>
<text text-anchor="middle" x="125" y="-90.3" font-family="Times,serif" font-size="14.00" fill="#000000">D</text>
</g>
<!-- A0&#45;&gt;D0 -->
<g id="edge2" class="edge">
<title>A0&#45;&gt;D0</title>
<path fill="none" stroke="#000000" d="M53.7789,-86.0058C64.3659,-87.1941 76.7088,-88.5796 88.1168,-89.86"/>
<polygon fill="#000000" stroke="#000000" points="87.9254,-93.3605 98.2534,-90.9978 88.7063,-86.4041 87.9254,-93.3605"/>
<text text-anchor="middle" x="76" y="-91.8" font-family="Times,serif" font-size="14.00" fill="#000000">3</text>
</g>
<!-- E0 -->
<g id="node5" class="node">
<title>E0</title>
<ellipse fill="none" stroke="#000000" cx="223" cy="-67" rx="27" ry="18"/>
<text text-anchor="middle" x="223" y="-63.3" font-family="Times,serif" font-size="14.00" fill="#000000">E</text>
</g>
<!-- C0&#45;&gt;E0 -->
<g id="edge4" class="edge">
<title>C0&#45;&gt;E0</title>
<path fill="none" stroke="#000000" d="M150.6919,-45.9674C159.3921,-48.0768 169.1457,-50.5392 178,-53 181.4144,-53.9489 184.9615,-54.9775 188.4988,-56.0316"/>
<polygon fill="#000000" stroke="#000000" points="187.737,-59.4583 198.3229,-59.025 189.7773,-52.7622 187.737,-59.4583"/>
<text text-anchor="middle" x="174" y="-56.8" font-family="Times,serif" font-size="14.00" fill="#000000">3</text>
</g>
<!-- D0&#45;&gt;E0 -->
<g id="edge5" class="edge">
<title>D0&#45;&gt;E0</title>
<path fill="none" stroke="#000000" d="M149.9831,-87.1169C161.5278,-83.9362 175.4356,-80.1045 188.002,-76.6423"/>
<polygon fill="#000000" stroke="#000000" points="189.0106,-79.9949 197.7218,-73.9644 187.1513,-73.2463 189.0106,-79.9949"/>
<text text-anchor="middle" x="174" y="-84.8" font-family="Times,serif" font-size="14.00" fill="#000000">4</text>
</g>
<!-- B0 -->
<g id="node4" class="node">
<title>B0</title>
<ellipse fill="none" stroke="#000000" cx="27" cy="-18" rx="27" ry="18"/>
<text text-anchor="middle" x="27" y="-14.3" font-family="Times,serif" font-size="14.00" fill="#000000">B</text>
</g>
<!-- B0&#45;&gt;C0 -->
<g id="edge3" class="edge">
<title>B0&#45;&gt;C0</title>
<path fill="none" stroke="#000000" d="M53.9575,-16.3497C62.3877,-16.4072 71.6622,-17.0676 80,-19 84.887,-20.1326 89.8772,-21.8353 94.6713,-23.7904"/>
<polygon fill="#000000" stroke="#000000" points="93.5853,-27.1399 104.1404,-28.0561 96.4605,-20.7576 93.5853,-27.1399"/>
<text text-anchor="middle" x="76" y="-22.8" font-family="Times,serif" font-size="14.00" fill="#000000">7</text>
</g>
</g>
</svg>
