<?xml version="1.0" encoding="UTF-8" standalone="no"?>
<!DOCTYPE svg PUBLIC "-//W3C//DTD SVG 1.1//EN"
 "http://www.w3.org/Graphics/SVG/1.1/DTD/svg11.dtd">
<!-- Generated by graphviz version 2.40.1 (20161225.0304)
 -->
<!-- Title: G Pages: 1 -->
<svg width="273pt" height="130pt"
 viewBox="0.00 0.00 273.00 130.00" xmlns="http://www.w3.org/2000/svg" xmlns:xlink="http://www.w3.org/1999/xlink">
<g id="graph0" class="graph" transform="scale(1 1) rotate(0) translate(4 126)">
<title>G</title>
<!-- B -->
<g id="node1" class="node">
<title>B</title>
<ellipse fill="none" stroke="#000000" cx="49" cy="-104" rx="27" ry="18"/>
<text text-anchor="middle" x="49" y="-100.3" font-family="Times,serif" font-size="14.00" fill="#000000">B</text>
</g>
<!-- C -->
<g id="node2" class="node">
<title>C</title>
<ellipse fill="none" stroke="#000000" stroke-width="4" cx="147" cy="-87" rx="27" ry="18"/>
<text text-anchor="middle" x="147" y="-83.3" font-family="Times,serif" font-size="14.00" fill="#000000">C</text>
</g>
<!-- B&#45;&gt;C -->
<g id="edge3" class="edge">
<title>B&#45;&gt;C</title>
<path fill="none" stroke="#000000" d="M75.2622,-99.4443C86.1374,-97.5578 98.9326,-95.3382 110.6828,-93.2999"/>
<polygon fill="#000000" stroke="#000000" points="111.4107,-96.726 120.6653,-91.5683 110.2142,-89.829 111.4107,-96.726"/>
<text text-anchor="middle" x="98" y="-99.8" font-family="Times,serif" font-size="14.00" fill="#000000">6</text>
</g>
<!-- E -->
<g id="node5" class="node">
<title>E</title>
<ellipse fill="none" stroke="#000000" cx="238" cy="-59" rx="27" ry="18"/>
<text text-anchor="middle" x="238" y="-55.3" font-family="Times,serif" font-size="14.00" fill="#000000">E</text>
</g>
<!-- C&#45;&gt;E -->
<g id="edge4" class="edge">
<title>C&#45;&gt;E</title>
</g>
<!-- D -->
<g id="node3" class="node">
<title>D</title>
<ellipse fill="none" stroke="#000000" cx="147" cy="-33" rx="27" ry="18"/>
<text text-anchor="middle" x="147" y="-29.3" font-family="Times,serif" font-size="14.00" fill="#000000">D</text>
</g>
<!-- D&#45;&gt;E -->
<g id="edge5" class="edge">
<title>D&#45;&gt;E</title>
</g>
<!-- A -->
<g id="node4" class="node">
<title>A</title>
<ellipse fill="none" stroke="#000000" cx="49" cy="-42" rx="27" ry="18"/>
<text text-anchor="middle" x="49" y="-38.3" font-family="Times,serif" font-size="14.00" fill="#000000">A</text>
</g>
<!-- A&#45;&gt;C -->
<g id="edge1" class="edge">
<title>A&#45;&gt;C</title>
<path fill="none" stroke="#000000" d="M71.2377,-52.2112C84.1771,-58.1527 100.708,-65.7435 115.0246,-72.3174"/>
<polygon fill="#000000" stroke="#000000" points="113.9628,-75.6812 124.5111,-76.6734 116.8839,-69.3198 113.9628,-75.6812"/>
<text text-anchor="middle" x="98" y="-68.8" font-family="Times,serif" font-size="14.00" fill="#000000">4</text>
</g>
<!-- A&#45;&gt;D -->
<g id="edge2" class="edge">
<title>A&#45;&gt;D</title>
</g>
</g>
</svg>
