<?xml version="1.0" encoding="UTF-8" standalone="no"?>
<!DOCTYPE svg PUBLIC "-//W3C//DTD SVG 1.1//EN"
 "http://www.w3.org/Graphics/SVG/1.1/DTD/svg11.dtd">
<!-- Generated by graphviz version 2.40.1 (20161225.0304)
 -->
<!-- Title: G Pages: 1 -->
<svg width="251pt" height="120pt"
 viewBox="0.00 0.00 251.00 120.00" xmlns="http://www.w3.org/2000/svg" xmlns:xlink="http://www.w3.org/1999/xlink">
<g id="graph0" class="graph" transform="scale(1 1) rotate(0) translate(4 116)">
<title>G</title>
<!-- E -->
<g id="node1" class="node">
<title>E</title>
<ellipse fill="none" stroke="#000000" stroke-width="4" cx="216" cy="-66" rx="27" ry="18"/>
<text text-anchor="middle" x="216" y="-62.3" font-family="Times,serif" font-size="14.00" fill="#000000">E</text>
</g>
<!-- A -->
<g id="node2" class="node">
<title>A</title>
<ellipse fill="none" stroke="#000000" cx="27" cy="-83" rx="27" ry="18"/>
<text text-anchor="middle" x="27" y="-79.3" font-family="Times,serif" font-size="14.00" fill="#000000">A</text>
</g>
<!-- C -->
<g id="node3" class="node">
<title>C</title>
<ellipse fill="none" stroke="#000000" cx="125" cy="-40" rx="27" ry="18"/>
<text text-anchor="middle" x="125" y="-36.3" font-family="Times,serif" font-size="14.00" fill="#000000">C</text>
</g>
<!-- A&#45;&gt;C -->
<g id="edge1" class="edge">
<title>A&#45;&gt;C</title>
<path fill="none" stroke="#000000" d="M49.7295,-73.0269C62.5931,-67.3826 78.8862,-60.2336 93.0213,-54.0315"/>
<polygon fill="#000000" stroke="#000000" points="94.6428,-57.1422 102.3938,-49.9191 91.8302,-50.7321 94.6428,-57.1422"/>
<text text-anchor="middle" x="76" y="-65.8" font-family="Times,serif" font-size="14.00" fill="#000000">6</text>
</g>
<!-- D -->
<g id="node4" class="node">
<title>D</title>
<ellipse fill="none" stroke="#000000" cx="125" cy="-94" rx="27" ry="18"/>
<text text-anchor="middle" x="125" y="-90.3" font-family="Times,serif" font-size="14.00" fill="#000000">D</text>
</g>
<!-- A&#45;&gt;D -->
<g id="edge2" class="edge">
<title>A&#45;&gt;D</title>
<path fill="none" stroke="#000000" d="M53.7789,-86.0058C64.3659,-87.1941 76.7088,-88.5796 88.1168,-89.86"/>
<polygon fill="#000000" stroke="#000000" points="87.9254,-93.3605 98.2534,-90.9978 88.7063,-86.4041 87.9254,-93.3605"/>
<text text-anchor="middle" x="76" y="-91.8" font-family="Times,serif" font-size="14.00" fill="#000000">3</text>
</g>
<!-- C&#45;&gt;E -->
<g id="edge4" class="edge">
<title>C&#45;&gt;E</title>
</g>
<!-- D&#45;&gt;E -->
<g id="edge5" class="edge">
<title>D&#45;&gt;E</title>
</g>
<!-- B -->
<g id="node5" class="node">
<title>B</title>
<ellipse fill="none" stroke="#000000" cx="27" cy="-18" rx="27" ry="18"/>
<text text-anchor="middle" x="27" y="-14.3" font-family="Times,serif" font-size="14.00" fill="#000000">B</text>
</g>
<!-- B&#45;&gt;C -->
<g id="edge3" class="edge">
<title>B&#45;&gt;C</title>
<path fill="none" stroke="#000000" d="M53.9575,-16.3497C62.3877,-16.4072 71.6622,-17.0676 80,-19 84.887,-20.1326 89.8772,-21.8353 94.6713,-23.7904"/>
<polygon fill="#000000" stroke="#000000" points="93.5853,-27.1399 104.1404,-28.0561 96.4605,-20.7576 93.5853,-27.1399"/>
<text text-anchor="middle" x="76" y="-22.8" font-family="Times,serif" font-size="14.00" fill="#000000">7</text>
</g>
</g>
</svg>
