<?xml version="1.0" encoding="UTF-8" standalone="no"?>
<!DOCTYPE svg PUBLIC "-//W3C//DTD SVG 1.1//EN"
 "http://www.w3.org/Graphics/SVG/1.1/DTD/svg11.dtd">
<!-- Generated by graphviz version 2.40.1 (20161225.0304)
 -->
<!-- Title: G Pages: 1 -->
<svg width="291pt" height="135pt"
 viewBox="0.00 0.00 291.00 135.00" xmlns="http://www.w3.org/2000/svg" xmlns:xlink="http://www.w3.org/1999/xlink">
<g id="graph0" class="graph" transform="scale(1 1) rotate(0) translate(4 131)">
<title>G</title>
<!-- B -->
<g id="node1" class="node">
<title>B</title>
<ellipse fill="none" stroke="#000000" cx="67" cy="-109" rx="27" ry="18"/>
<text text-anchor="middle" x="67" y="-105.3" font-family="Times,serif" font-size="14.00" fill="#000000">B</text>
<text text-anchor="middle" x="53" y="-80.8" font-family="Times,serif" font-size="14.00" fill="#000000">Happy</text>
</g>
<!-- C -->
<g id="node2" class="node">
<title>C</title>
<ellipse fill="none" stroke="#000000" cx="165" cy="-87" rx="27" ry="18"/>
<text text-anchor="middle" x="165" y="-83.3" font-family="Times,serif" font-size="14.00" fill="#000000">C</text>
<text text-anchor="middle" x="168" y="-109.8" font-family="Times,serif" font-size="14.00" fill="#000000">Angry</text>
</g>
<!-- B&#45;&gt;C -->
<g id="edge3" class="edge">
<title>B&#45;&gt;C</title>
<path fill="none" stroke="#000000" d="M92.7483,-103.2198C103.9132,-100.7134 117.1747,-97.7363 129.2696,-95.0211"/>
<polygon fill="#000000" stroke="#000000" points="130.0929,-98.4235 139.0834,-92.818 128.5595,-91.5935 130.0929,-98.4235"/>
<text text-anchor="middle" x="116" y="-101.8" font-family="Times,serif" font-size="14.00" fill="#000000">7</text>
</g>
<!-- E -->
<g id="node4" class="node">
<title>E</title>
<ellipse fill="none" stroke="#000000" stroke-width="4" cx="256" cy="-59" rx="27" ry="18"/>
<text text-anchor="middle" x="256" y="-55.3" font-family="Times,serif" font-size="14.00" fill="#000000">E</text>
</g>
<!-- C&#45;&gt;E -->
<g id="edge4" class="edge">
<title>C&#45;&gt;E</title>
</g>
<!-- D -->
<g id="node3" class="node">
<title>D</title>
<ellipse fill="none" stroke="#000000" cx="165" cy="-33" rx="27" ry="18"/>
<text text-anchor="middle" x="165" y="-29.3" font-family="Times,serif" font-size="14.00" fill="#000000">D</text>
<text text-anchor="middle" x="168" y="-3.8" font-family="Times,serif" font-size="14.00" fill="#000000">Angry</text>
</g>
<!-- D&#45;&gt;E -->
<g id="edge5" class="edge">
<title>D&#45;&gt;E</title>
</g>
<!-- A -->
<g id="node5" class="node">
<title>A</title>
<ellipse fill="none" stroke="#000000" cx="67" cy="-44" rx="27" ry="18"/>
<text text-anchor="middle" x="67" y="-40.3" font-family="Times,serif" font-size="14.00" fill="#000000">A</text>
</g>
<!-- A&#45;&gt;C -->
<g id="edge1" class="edge">
<title>A&#45;&gt;C</title>
<path fill="none" stroke="#000000" d="M89.7295,-53.9731C102.5931,-59.6174 118.8862,-66.7664 133.0213,-72.9685"/>
<polygon fill="#000000" stroke="#000000" points="131.8302,-76.2679 142.3938,-77.0809 134.6428,-69.8578 131.8302,-76.2679"/>
<text text-anchor="middle" x="116" y="-69.8" font-family="Times,serif" font-size="14.00" fill="#000000">6</text>
</g>
<!-- A&#45;&gt;D -->
<g id="edge2" class="edge">
<title>A&#45;&gt;D</title>
<path fill="none" stroke="#000000" d="M92.5485,-37.395C98.8641,-36.0197 105.6426,-34.7586 112,-34 117.1231,-33.3887 122.5441,-32.9971 127.8869,-32.7584"/>
<polygon fill="#000000" stroke="#000000" points="128.0701,-36.2547 137.966,-32.4702 127.87,-29.2576 128.0701,-36.2547"/>
<text text-anchor="middle" x="116" y="-37.8" font-family="Times,serif" font-size="14.00" fill="#000000">3</text>
</g>
</g>
</svg>
