<?xml version="1.0" encoding="UTF-8" standalone="no"?>
<!DOCTYPE svg PUBLIC "-//W3C//DTD SVG 1.1//EN"
 "http://www.w3.org/Graphics/SVG/1.1/DTD/svg11.dtd">
<!-- Generated by graphviz version 2.38.0 (20140413.2041)
 -->
<!-- Title: G Pages: 1 -->
<svg width="166pt" height="157pt"
 viewBox="0.00 0.00 166.00 157.07" xmlns="http://www.w3.org/2000/svg" xmlns:xlink="http://www.w3.org/1999/xlink">
<g id="graph0" class="graph" transform="scale(1 1) rotate(0) translate(4 153.071)">
<title>G</title>
<text text-anchor="middle" x="79" y="-22.8" font-family="Times,serif" font-size="14.00" fill="white">Centrality: 0</text>
<text text-anchor="middle" x="79" y="-7.8" font-family="Times,serif" font-size="14.00" fill="white"> Connectedness: large</text>
<!-- A -->
<g id="node1" class="node"><title>A</title>
<ellipse fill="none" stroke="white" cx="27" cy="-131.071" rx="27" ry="18"/>
<text text-anchor="middle" x="27" y="-127.371" font-family="Times,serif" font-size="14.00" fill="white">A</text>
</g>
<!-- B -->
<g id="node2" class="node"><title>B</title>
<ellipse fill="none" stroke="white" cx="27" cy="-59.0711" rx="27" ry="18"/>
<text text-anchor="middle" x="27" y="-55.3711" font-family="Times,serif" font-size="14.00" fill="white">B</text>
</g>
<!-- A&#45;&gt;B -->
<g id="edge1" class="edge"><title>A&#45;&gt;B</title>
<path fill="none" stroke="white" d="M27,-102.381C27,-97.4807 27,-92.3918 27,-87.4985"/>
<polygon fill="white" stroke="white" points="23.5001,-102.658 27,-112.658 30.5001,-102.658 23.5001,-102.658"/>
<polygon fill="white" stroke="white" points="30.5001,-87.2397 27,-77.2397 23.5001,-87.2397 30.5001,-87.2397"/>
<text text-anchor="middle" x="16.5" y="-91.3711" font-family="Times,serif" font-size="14.00" fill="white">10</text>
</g>
<!-- C -->
<g id="node3" class="node"><title>C</title>
<ellipse fill="none" stroke="white" cx="131" cy="-131.071" rx="27" ry="18"/>
<text text-anchor="middle" x="131" y="-127.371" font-family="Times,serif" font-size="14.00" fill="white">C</text>
</g>
<!-- A&#45;&gt;C -->
<g id="edge2" class="edge"><title>A&#45;&gt;C</title>
<path fill="none" stroke="white" d="M64.093,-131.071C73.6805,-131.071 84.0386,-131.071 93.6403,-131.071"/>
<polygon fill="white" stroke="white" points="64.0029,-127.571 54.0028,-131.071 64.0028,-134.571 64.0029,-127.571"/>
<polygon fill="white" stroke="white" points="93.69,-134.571 103.69,-131.071 93.69,-127.571 93.69,-134.571"/>
<text text-anchor="middle" x="79" y="-134.871" font-family="Times,serif" font-size="14.00" fill="white">10</text>
</g>
<!-- D -->
<g id="node4" class="node"><title>D</title>
<ellipse fill="none" stroke="white" cx="131" cy="-59.0711" rx="27" ry="18"/>
<text text-anchor="middle" x="131" y="-55.3711" font-family="Times,serif" font-size="14.00" fill="white">D</text>
</g>
<!-- A&#45;&gt;D -->
<g id="edge3" class="edge"><title>A&#45;&gt;D</title>
<path fill="none" stroke="white" d="M55.4816,-113.012C65.1977,-106.517 76.1547,-99.0661 86,-92.0711 91.962,-87.8351 98.2952,-83.1798 104.244,-78.7353"/>
<polygon fill="white" stroke="white" points="53.3647,-110.217 46.975,-118.668 57.2403,-116.046 53.3647,-110.217"/>
<polygon fill="white" stroke="white" points="106.712,-81.2584 112.596,-72.4478 102.501,-75.666 106.712,-81.2584"/>
<text text-anchor="middle" x="79" y="-104.871" font-family="Times,serif" font-size="14.00" fill="white">10</text>
</g>
<!-- B&#45;&gt;C -->
<g id="edge4" class="edge"><title>B&#45;&gt;C</title>
<path fill="none" stroke="white" d="M63.7815,-63.6704C71.5245,-65.7384 79.37,-68.7337 86,-73.0711 98.2683,-81.097 108.452,-93.757 115.922,-105.204"/>
<polygon fill="white" stroke="white" points="64.2932,-60.1989 53.7726,-61.451 62.7778,-67.0329 64.2932,-60.1989"/>
<polygon fill="white" stroke="white" points="113.11,-107.314 121.318,-114.013 119.079,-103.657 113.11,-107.314"/>
<text text-anchor="middle" x="79" y="-76.8711" font-family="Times,serif" font-size="14.00" fill="white">10</text>
</g>
<!-- B&#45;&gt;D -->
<g id="edge5" class="edge"><title>B&#45;&gt;D</title>
<path fill="none" stroke="white" d="M57.6664,-43.5526C62.3524,-41.7017 67.2281,-40.1047 72,-39.0711 81.8894,-36.9289 92.4262,-39.1309 101.768,-42.7478"/>
<polygon fill="white" stroke="white" points="56.1632,-40.3899 48.4086,-47.6092 58.9726,-46.8015 56.1632,-40.3899"/>
<polygon fill="white" stroke="white" points="100.439,-45.9876 110.993,-46.9064 103.315,-39.606 100.439,-45.9876"/>
<text text-anchor="middle" x="79" y="-42.8711" font-family="Times,serif" font-size="14.00" fill="white">10</text>
</g>
<!-- C&#45;&gt;D -->
<g id="edge6" class="edge"><title>C&#45;&gt;D</title>
<path fill="none" stroke="white" d="M131,-102.381C131,-97.4807 131,-92.3918 131,-87.4985"/>
<polygon fill="white" stroke="white" points="127.5,-102.658 131,-112.658 134.5,-102.658 127.5,-102.658"/>
<polygon fill="white" stroke="white" points="134.5,-87.2397 131,-77.2397 127.5,-87.2397 134.5,-87.2397"/>
<text text-anchor="middle" x="120.5" y="-91.3711" font-family="Times,serif" font-size="14.00" fill="white">10</text>
</g>
</g>
</svg>
