<?xml version="1.0" encoding="UTF-8" standalone="no"?>
<!DOCTYPE svg PUBLIC "-//W3C//DTD SVG 1.1//EN"
 "http://www.w3.org/Graphics/SVG/1.1/DTD/svg11.dtd">
<!-- Generated by graphviz version 2.38.0 (20140413.2041)
 -->
<!-- Title: G Pages: 1 -->
<svg width="263pt" height="167pt"
 viewBox="0.00 0.00 263.00 167.41" xmlns="http://www.w3.org/2000/svg" xmlns:xlink="http://www.w3.org/1999/xlink">
<g id="graph0" class="graph" transform="scale(1 1) rotate(0) translate(4 163.413)">
<title>G</title>
<text text-anchor="middle" x="127.5" y="-7.8" font-family="Times,serif" font-size="14.00" fill="white">good balance</text>
<!-- A -->
<g id="node1" class="node"><title>A</title>
<ellipse fill="none" stroke="white" cx="27" cy="-69.4134" rx="27" ry="18"/>
<text text-anchor="middle" x="27" y="-65.7134" font-family="Times,serif" font-size="14.00" fill="white">A</text>
</g>
<!-- C -->
<g id="node2" class="node"><title>C</title>
<ellipse fill="none" stroke="white" cx="124" cy="-69.4134" rx="27" ry="18"/>
<text text-anchor="middle" x="124" y="-65.7134" font-family="Times,serif" font-size="14.00" fill="white">C</text>
</g>
<!-- A&#45;&gt;C -->
<g id="edge1" class="edge"><title>A&#45;&gt;C</title>
<path fill="none" stroke="white" d="M54.2106,-69.4134C64.2826,-69.4134 75.9647,-69.4134 86.8114,-69.4134"/>
<polygon fill="white" stroke="white" points="86.8749,-72.9135 96.8749,-69.4134 86.8749,-65.9135 86.8749,-72.9135"/>
<text text-anchor="middle" x="75.5" y="-73.2134" font-family="Times,serif" font-size="14.00" fill="white">5</text>
</g>
<!-- D -->
<g id="node3" class="node"><title>D</title>
<ellipse fill="none" stroke="white" cx="124" cy="-141.413" rx="27" ry="18"/>
<text text-anchor="middle" x="124" y="-137.713" font-family="Times,serif" font-size="14.00" fill="white">D</text>
</g>
<!-- A&#45;&gt;D -->
<g id="edge2" class="edge"><title>A&#45;&gt;D</title>
<path fill="none" stroke="white" d="M45.4245,-82.6193C59.9299,-93.6129 80.7921,-109.424 97.2292,-121.882"/>
<polygon fill="white" stroke="white" points="95.2805,-124.797 105.364,-128.047 99.5086,-119.218 95.2805,-124.797"/>
<text text-anchor="middle" x="75.5" y="-112.213" font-family="Times,serif" font-size="14.00" fill="white">6</text>
</g>
<!-- B -->
<g id="node4" class="node"><title>B</title>
<ellipse fill="none" stroke="white" cx="228" cy="-112.413" rx="27" ry="18"/>
<text text-anchor="middle" x="228" y="-108.713" font-family="Times,serif" font-size="14.00" fill="white">B</text>
</g>
<!-- C&#45;&gt;B -->
<g id="edge3" class="edge"><title>C&#45;&gt;B</title>
<path fill="none" stroke="white" d="M147.132,-78.7438C161.204,-84.6757 179.646,-92.4506 195.264,-99.0344"/>
<polygon fill="white" stroke="white" points="193.984,-102.293 204.558,-102.953 196.703,-95.843 193.984,-102.293"/>
<text text-anchor="middle" x="176" y="-98.2134" font-family="Times,serif" font-size="14.00" fill="white">3</text>
</g>
<!-- E -->
<g id="node5" class="node"><title>E</title>
<ellipse fill="none" stroke="white" cx="228" cy="-45.4134" rx="27" ry="18"/>
<text text-anchor="middle" x="228" y="-41.7134" font-family="Times,serif" font-size="14.00" fill="white">E</text>
</g>
<!-- C&#45;&gt;E -->
<g id="edge4" class="edge"><title>C&#45;&gt;E</title>
<path fill="none" stroke="white" d="M149.691,-63.6037C162.501,-60.5896 178.36,-56.858 192.374,-53.5606"/>
<polygon fill="white" stroke="white" points="193.25,-56.9503 202.182,-51.2528 191.647,-50.1363 193.25,-56.9503"/>
<text text-anchor="middle" x="176" y="-63.2134" font-family="Times,serif" font-size="14.00" fill="white">10</text>
</g>
<!-- D&#45;&gt;C -->
<g id="edge6" class="edge"><title>D&#45;&gt;C</title>
<path fill="none" stroke="white" d="M124,-123C124,-115.354 124,-106.305 124,-97.8408"/>
<polygon fill="white" stroke="white" points="127.5,-97.582 124,-87.5821 120.5,-97.5821 127.5,-97.582"/>
<text text-anchor="middle" x="113.5" y="-101.713" font-family="Times,serif" font-size="14.00" fill="white">4</text>
</g>
<!-- D&#45;&gt;B -->
<g id="edge5" class="edge"><title>D&#45;&gt;B</title>
<path fill="none" stroke="white" d="M149.173,-134.541C162.256,-130.821 178.634,-126.165 192.985,-122.084"/>
<polygon fill="white" stroke="white" points="194.339,-125.338 203.001,-119.237 192.425,-118.605 194.339,-125.338"/>
<text text-anchor="middle" x="176" y="-132.213" font-family="Times,serif" font-size="14.00" fill="white">1</text>
</g>
<!-- E&#45;&gt;A -->
<g id="edge7" class="edge"><title>E&#45;&gt;A</title>
<path fill="none" stroke="white" d="M204.072,-36.6742C177.796,-27.9299 133.637,-17.1397 97,-27.4134 81.2447,-31.8314 65.5176,-40.9471 53.0659,-49.5604"/>
<polygon fill="white" stroke="white" points="50.6738,-46.971 44.6244,-55.669 54.7776,-52.6419 50.6738,-46.971"/>
<text text-anchor="middle" x="124" y="-31.2134" font-family="Times,serif" font-size="14.00" fill="white">3</text>
</g>
</g>
</svg>
