<?xml version="1.0" encoding="UTF-8" standalone="no"?>
<!DOCTYPE svg PUBLIC "-//W3C//DTD SVG 1.1//EN"
 "http://www.w3.org/Graphics/SVG/1.1/DTD/svg11.dtd">
<!-- Generated by graphviz version 2.38.0 (20140413.2041)
 -->
<!-- Title: G Pages: 1 -->
<svg width="177pt" height="157pt"
 viewBox="0.00 0.00 177.00 157.23" xmlns="http://www.w3.org/2000/svg" xmlns:xlink="http://www.w3.org/1999/xlink">
<g id="graph0" class="graph" transform="scale(1 1) rotate(0) translate(4 153.228)">
<title>G</title>
<text text-anchor="middle" x="84.5" y="-22.8" font-family="montserrat" font-size="14.00" fill="white">Centrality: 0</text>
<text text-anchor="middle" x="84.5" y="-7.8" font-family="montserrat" font-size="14.00" fill="white"> Connectedness: large</text>
<!-- A -->
<g id="node1" class="node"><title>A</title>
<ellipse fill="none" stroke="white" cx="30" cy="-131.228" rx="27" ry="18"/>
<text text-anchor="middle" x="30" y="-127.528" font-family="montserrat" font-size="14.00" fill="white">A</text>
</g>
<!-- B -->
<g id="node2" class="node"><title>B</title>
<ellipse fill="none" stroke="white" cx="30" cy="-59.2276" rx="27" ry="18"/>
<text text-anchor="middle" x="30" y="-55.5276" font-family="montserrat" font-size="14.00" fill="white">B</text>
</g>
<!-- A&#45;&gt;B -->
<g id="edge1" class="edge"><title>A&#45;&gt;B</title>
<path fill="none" stroke="white" d="M30,-102.537C30,-97.6372 30,-92.5484 30,-87.655"/>
<polygon fill="white" stroke="white" points="26.5001,-102.814 30,-112.814 33.5001,-102.814 26.5001,-102.814"/>
<polygon fill="white" stroke="white" points="33.5001,-87.3962 30,-77.3962 26.5001,-87.3963 33.5001,-87.3962"/>
<text text-anchor="middle" x="19.5" y="-91.5276" font-family="montserrat" font-size="14.00" fill="white">10</text>
</g>
<!-- C -->
<g id="node3" class="node"><title>C</title>
<ellipse fill="none" stroke="white" cx="139" cy="-131.228" rx="27" ry="18"/>
<text text-anchor="middle" x="139" y="-127.528" font-family="montserrat" font-size="14.00" fill="white">C</text>
</g>
<!-- A&#45;&gt;C -->
<g id="edge2" class="edge"><title>A&#45;&gt;C</title>
<path fill="none" stroke="white" d="M67.3672,-131.228C78.3963,-131.228 90.5115,-131.228 101.546,-131.228"/>
<polygon fill="white" stroke="white" points="67.1752,-127.728 57.1751,-131.228 67.1751,-134.728 67.1752,-127.728"/>
<polygon fill="white" stroke="white" points="101.724,-134.728 111.724,-131.228 101.724,-127.728 101.724,-134.728"/>
<text text-anchor="middle" x="84.5" y="-135.028" font-family="montserrat" font-size="14.00" fill="white">10</text>
</g>
<!-- D -->
<g id="node4" class="node"><title>D</title>
<ellipse fill="none" stroke="white" cx="139" cy="-59.2276" rx="27" ry="18"/>
<text text-anchor="middle" x="139" y="-55.5276" font-family="montserrat" font-size="14.00" fill="white">D</text>
</g>
<!-- A&#45;&gt;D -->
<g id="edge3" class="edge"><title>A&#45;&gt;D</title>
<path fill="none" stroke="white" d="M59.5987,-114.266C70.5034,-107.606 82.9602,-99.7626 94,-92.2276 100.041,-88.1046 106.406,-83.4947 112.36,-79.0583"/>
<polygon fill="white" stroke="white" points="57.6119,-111.377 50.8688,-119.549 61.2363,-117.366 57.6119,-111.377"/>
<polygon fill="white" stroke="white" points="114.831,-81.5779 120.704,-72.7596 110.614,-75.991 114.831,-81.5779"/>
<text text-anchor="middle" x="84.5" y="-109.028" font-family="montserrat" font-size="14.00" fill="white">10</text>
</g>
<!-- B&#45;&gt;C -->
<g id="edge4" class="edge"><title>B&#45;&gt;C</title>
<path fill="none" stroke="white" d="M66.9836,-62.7268C76.3021,-64.8015 85.9655,-68.0751 94,-73.2276 106.425,-81.1955 116.67,-93.9635 124.139,-105.494"/>
<polygon fill="white" stroke="white" points="67.5681,-59.2757 57.1007,-60.914 66.3051,-66.1609 67.5681,-59.2757"/>
<polygon fill="white" stroke="white" points="121.34,-107.629 129.522,-114.361 127.324,-103.996 121.34,-107.629"/>
<text text-anchor="middle" x="84.5" y="-77.0276" font-family="montserrat" font-size="14.00" fill="white">10</text>
</g>
<!-- B&#45;&gt;D -->
<g id="edge5" class="edge"><title>B&#45;&gt;D</title>
<path fill="none" stroke="white" d="M59.8416,-43.4195C70.4618,-39.3727 82.6655,-36.7724 94,-39.2276 98.7719,-40.2612 103.648,-41.8582 108.334,-43.7091"/>
<polygon fill="white" stroke="white" points="58.3769,-40.2398 50.6039,-47.4391 61.1699,-46.6584 58.3769,-40.2398"/>
<polygon fill="white" stroke="white" points="107.027,-46.958 117.591,-47.7657 109.837,-40.5465 107.027,-46.958"/>
<text text-anchor="middle" x="84.5" y="-43.0276" font-family="montserrat" font-size="14.00" fill="white">10</text>
</g>
<!-- C&#45;&gt;D -->
<g id="edge6" class="edge"><title>C&#45;&gt;D</title>
<path fill="none" stroke="white" d="M139,-102.537C139,-97.6372 139,-92.5484 139,-87.655"/>
<polygon fill="white" stroke="white" points="135.5,-102.814 139,-112.814 142.5,-102.814 135.5,-102.814"/>
<polygon fill="white" stroke="white" points="142.5,-87.3962 139,-77.3962 135.5,-87.3963 142.5,-87.3962"/>
<text text-anchor="middle" x="128.5" y="-91.5276" font-family="montserrat" font-size="14.00" fill="white">10</text>
</g>
</g>
</svg>
