<?xml version="1.0" encoding="UTF-8" standalone="no"?>
<!DOCTYPE svg PUBLIC "-//W3C//DTD SVG 1.1//EN"
 "http://www.w3.org/Graphics/SVG/1.1/DTD/svg11.dtd">
<!-- Generated by graphviz version 2.38.0 (20140413.2041)
 -->
<!-- Title: G Pages: 1 -->
<svg width="270pt" height="190pt"
 viewBox="0.00 0.00 270.00 190.00" xmlns="http://www.w3.org/2000/svg" xmlns:xlink="http://www.w3.org/1999/xlink">
<g id="graph0" class="graph" transform="scale(1 1) rotate(0) translate(4 186)">
<title>G</title>
<text text-anchor="middle" x="131" y="-22.8" font-family="Times,serif" font-size="14.00" fill="white">Centrality: 1</text>
<text text-anchor="middle" x="131" y="-7.8" font-family="Times,serif" font-size="14.00" fill="white"> Connectedness: large</text>
<!-- A -->
<g id="node1" class="node"><title>A</title>
<ellipse fill="none" stroke="white" cx="27" cy="-164" rx="27" ry="18"/>
<text text-anchor="middle" x="27" y="-160.3" font-family="Times,serif" font-size="14.00" fill="white">A</text>
</g>
<!-- H -->
<g id="node4" class="node"><title>H</title>
<ellipse fill="none" stroke="white" cx="131" cy="-110" rx="27" ry="18"/>
<text text-anchor="middle" x="131" y="-106.3" font-family="Times,serif" font-size="14.00" fill="white">H</text>
</g>
<!-- A&#45;&gt;H -->
<g id="edge1" class="edge"><title>A&#45;&gt;H</title>
<path fill="none" stroke="white" d="M57.9026,-148.169C71.2211,-141.118 86.8699,-132.834 100.179,-125.788"/>
<polygon fill="white" stroke="white" points="55.8415,-145.3 48.6412,-153.072 59.1167,-151.487 55.8415,-145.3"/>
<polygon fill="white" stroke="white" points="102.189,-128.684 109.389,-120.911 98.914,-122.497 102.189,-128.684"/>
<text text-anchor="middle" x="79" y="-143.8" font-family="Times,serif" font-size="14.00" fill="white">10</text>
</g>
<!-- B -->
<g id="node2" class="node"><title>B</title>
<ellipse fill="none" stroke="white" cx="27" cy="-110" rx="27" ry="18"/>
<text text-anchor="middle" x="27" y="-106.3" font-family="Times,serif" font-size="14.00" fill="white">B</text>
</g>
<!-- B&#45;&gt;H -->
<g id="edge2" class="edge"><title>B&#45;&gt;H</title>
<path fill="none" stroke="white" d="M64.093,-110C73.6805,-110 84.0386,-110 93.6403,-110"/>
<polygon fill="white" stroke="white" points="64.0029,-106.5 54.0028,-110 64.0028,-113.5 64.0029,-106.5"/>
<polygon fill="white" stroke="white" points="93.69,-113.5 103.69,-110 93.69,-106.5 93.69,-113.5"/>
<text text-anchor="middle" x="79" y="-113.8" font-family="Times,serif" font-size="14.00" fill="white">10</text>
</g>
<!-- C -->
<g id="node3" class="node"><title>C</title>
<ellipse fill="none" stroke="white" cx="27" cy="-56" rx="27" ry="18"/>
<text text-anchor="middle" x="27" y="-52.3" font-family="Times,serif" font-size="14.00" fill="white">C</text>
</g>
<!-- C&#45;&gt;H -->
<g id="edge3" class="edge"><title>C&#45;&gt;H</title>
<path fill="none" stroke="white" d="M57.9026,-71.8308C71.2211,-78.8818 86.8699,-87.1664 100.179,-94.2123"/>
<polygon fill="white" stroke="white" points="59.1167,-68.5134 48.6412,-66.9277 55.8415,-74.6999 59.1167,-68.5134"/>
<polygon fill="white" stroke="white" points="98.914,-97.5029 109.389,-99.0885 102.189,-91.3164 98.914,-97.5029"/>
<text text-anchor="middle" x="79" y="-89.8" font-family="Times,serif" font-size="14.00" fill="white">10</text>
</g>
<!-- D -->
<g id="node5" class="node"><title>D</title>
<ellipse fill="none" stroke="white" cx="235" cy="-164" rx="27" ry="18"/>
<text text-anchor="middle" x="235" y="-160.3" font-family="Times,serif" font-size="14.00" fill="white">D</text>
</g>
<!-- D&#45;&gt;H -->
<g id="edge4" class="edge"><title>D&#45;&gt;H</title>
<path fill="none" stroke="white" d="M204.179,-148.212C190.87,-141.166 175.221,-132.882 161.903,-125.831"/>
<polygon fill="white" stroke="white" points="202.914,-151.503 213.389,-153.089 206.189,-145.316 202.914,-151.503"/>
<polygon fill="white" stroke="white" points="163.117,-122.513 152.641,-120.928 159.841,-128.7 163.117,-122.513"/>
<text text-anchor="middle" x="183" y="-143.8" font-family="Times,serif" font-size="14.00" fill="white">10</text>
</g>
<!-- E -->
<g id="node6" class="node"><title>E</title>
<ellipse fill="none" stroke="white" cx="235" cy="-110" rx="27" ry="18"/>
<text text-anchor="middle" x="235" y="-106.3" font-family="Times,serif" font-size="14.00" fill="white">E</text>
</g>
<!-- E&#45;&gt;H -->
<g id="edge5" class="edge"><title>E&#45;&gt;H</title>
<path fill="none" stroke="white" d="M197.64,-110C188.039,-110 177.681,-110 168.093,-110"/>
<polygon fill="white" stroke="white" points="197.69,-113.5 207.69,-110 197.69,-106.5 197.69,-113.5"/>
<polygon fill="white" stroke="white" points="168.003,-106.5 158.003,-110 168.003,-113.5 168.003,-106.5"/>
<text text-anchor="middle" x="183" y="-113.8" font-family="Times,serif" font-size="14.00" fill="white">10</text>
</g>
<!-- F -->
<g id="node7" class="node"><title>F</title>
<ellipse fill="none" stroke="white" cx="235" cy="-56" rx="27" ry="18"/>
<text text-anchor="middle" x="235" y="-52.3" font-family="Times,serif" font-size="14.00" fill="white">F</text>
</g>
<!-- F&#45;&gt;H -->
<g id="edge6" class="edge"><title>F&#45;&gt;H</title>
<path fill="none" stroke="white" d="M204.179,-71.7877C190.87,-78.8336 175.221,-87.1182 161.903,-94.1692"/>
<polygon fill="white" stroke="white" points="206.189,-74.6836 213.389,-66.9115 202.914,-68.4971 206.189,-74.6836"/>
<polygon fill="white" stroke="white" points="159.841,-91.3001 152.641,-99.0723 163.117,-97.4866 159.841,-91.3001"/>
<text text-anchor="middle" x="183" y="-89.8" font-family="Times,serif" font-size="14.00" fill="white">10</text>
</g>
</g>
</svg>
