<svg xmlns="http://www.w3.org/2000/svg" xmlns:xlink="http://www.w3.org/1999/xlink" version="1.1" x="0px" y="0px" viewBox="0 0 100 125" enable-background="new 0 0 100 100" xml:space="preserve"><path fill="#000000" d="M31.455,16.656c0.597-0.354,1.401-0.661,2.31-1.075c0.456-0.2,0.947-0.416,1.47-0.646  c0.54-0.184,1.114-0.379,1.721-0.586c0.605-0.207,1.242-0.426,1.911-0.654c0.687-0.168,1.404-0.345,2.153-0.529  c1.48-0.435,3.151-0.572,4.903-0.859c3.546-0.317,7.597-0.271,11.913,0.613c4.301,0.868,8.858,2.578,13.118,5.367  c4.259,2.762,8.205,6.594,11.235,11.311c3.036,4.711,5.142,10.311,5.827,16.264c0.612,5.947-0.104,12.209-2.357,18  c-2.308,5.766-6.016,11.078-10.839,15.121c-4.796,4.069-10.646,6.895-16.747,8.119c-6.099,1.27-12.423,0.939-18.182-0.759  c-5.767-1.669-10.984-4.688-15.092-8.546c-4.172-3.801-7.23-8.432-9.239-13.133c-0.984-2.366-1.717-4.753-2.219-7.105  c-0.447-2.36-0.735-4.67-0.77-6.896c-0.119-4.452,0.59-8.514,1.608-11.986c1.025-3.48,2.409-6.355,3.736-8.633  c1.305-2.292,2.495-3.926,3.48-5.141c1.104-1.25,2.256-2.015,3.292-2.266c1.02-0.275,1.843-0.132,2.339,0.311  s0.674,1.18,0.418,2.084c-0.123,0.458-0.378,0.935-0.723,1.485c-0.331,0.563-0.811,1.144-1.404,1.797  c-0.828,0.964-2.137,2.263-3.396,4.206c-1.289,1.918-2.632,4.393-3.664,7.445c-1.021,3.046-1.77,6.656-1.768,10.652  c-0.023,2,0.19,4.08,0.544,6.217c0.409,2.127,1.027,4.291,1.876,6.447c1.74,4.274,4.454,8.525,8.211,12.036  c3.692,3.562,8.422,6.36,13.683,7.929c5.253,1.592,11.055,1.934,16.647,0.785c5.597-1.107,10.959-3.684,15.366-7.423  c4.436-3.718,7.814-8.593,9.921-13.882c2.048-5.314,2.665-11.061,2.07-16.496c-0.673-5.438-2.646-10.523-5.463-14.775  c-2.816-4.258-6.454-7.688-10.344-10.113c-3.895-2.447-8.033-3.9-11.913-4.573c-3.894-0.69-7.514-0.614-10.648-0.216  c-1.547,0.329-3.017,0.498-4.305,0.957c-0.649,0.195-1.273,0.383-1.869,0.562c-0.579,0.226-1.122,0.466-1.64,0.681  c-0.516,0.219-1.002,0.426-1.46,0.619c-0.433,0.246-0.839,0.477-1.218,0.691c-0.747,0.442-1.409,0.77-1.917,1.106  c-0.909,0.612-1.746,1.067-2.514,1.397c-0.742,0.367-1.378,0.661-1.967,0.805c-1.163,0.303-2.04,0.152-2.466-0.357  s-0.394-1.389,0.263-2.543c0.335-0.566,0.795-1.242,1.477-1.888C29.527,17.965,30.403,17.312,31.455,16.656z M63.696,54.279  c-1.013,0-1.833,1.645-1.833,3.674c0,2.033,0.82,3.68,1.833,3.68c1.012,0,1.832-1.646,1.832-3.68  C65.528,55.924,64.708,54.279,63.696,54.279z M39.085,54.279c-1.012,0-1.832,1.645-1.832,3.674c0,2.033,0.82,3.68,1.832,3.68  c1.013,0,1.833-1.646,1.833-3.68C40.918,55.924,40.098,54.279,39.085,54.279z M19.426,43.631c-0.411,1.244-0.127,2.736,1.378,2.926  c0.412,0.051,1.013,0.021,1.774,0.021c0.378,0.011,0.8-0.002,1.26-0.028c0.457-0.008,0.952-0.049,1.481-0.118  c1.056-0.112,2.243-0.361,3.485-0.774c1.246-0.408,2.522-1.043,3.764-1.84c1.237-0.805,2.432-1.791,3.54-2.916l0.356-0.385  l0.143-0.164l0.275-0.347l0.071-0.089c0.028,0.007,0.061,0.033,0.091,0.049l0.188,0.111c0.132,0.078,0.253,0.158,0.378,0.217  c1.478,0.847,3.098,1.448,4.737,1.979c1.649,0.521,3.352,0.851,5.052,1.118c1.704,0.251,3.41,0.373,5.093,0.448  c1.681,0.053,3.339,0.051,4.951-0.005c1.613-0.071,3.162-0.155,4.686-0.289c1.548-0.144,3-0.374,4.382-0.646  c1.38-0.283,2.678-0.623,3.873-1.014c1.191-0.395,2.278-0.842,3.232-1.336c0.961-0.471,1.77-1.015,2.451-1.482  c0.656-0.504,1.244-0.885,1.559-1.264c0.465-0.489,0.444-1.111,0.185-1.596c-0.263-0.495-0.788-0.9-1.377-1.209  c-0.589-0.307-1.236-0.526-1.755-0.633c-0.521-0.102-0.89-0.089-1.079,0.152c-0.147,0.241-0.319,0.604-0.653,1.023  c-0.366,0.395-0.839,0.871-1.511,1.328c-0.654,0.469-1.484,0.926-2.452,1.354c-0.971,0.424-2.082,0.809-3.303,1.146  c-1.221,0.323-2.562,0.605-3.943,0.801c-1.408,0.19-2.926,0.326-4.455,0.439c-1.536,0.092-3.108,0.127-4.693,0.097  c-1.58-0.054-3.175-0.159-4.741-0.39c-1.56-0.246-3.107-0.555-4.563-1.035c-1.445-0.488-2.851-1.043-4.076-1.795  c-0.577-0.333-1.113-0.71-1.646-1.064l-0.802-0.539c-0.132-0.079-0.27-0.201-0.396-0.246l-0.315,0.353  c-0.423,0.469-0.843,0.934-1.258,1.395l-0.64,0.671l-0.414,0.415c-0.996,0.915-2.024,1.672-3.044,2.245  c-1.027,0.562-2.03,0.97-2.984,1.178c-0.953,0.213-1.834,0.301-2.617,0.267c-0.39-0.005-0.754-0.033-1.091-0.093  c-0.335-0.04-0.641-0.092-0.917-0.171c-0.55-0.125-0.961-0.345-1.253-0.434C20.796,41.252,19.845,42.352,19.426,43.631z   M40.371,73.797c6.381,2.707,13.589,3.305,20.211,1.118c1.789-0.591-1.181-2.782-2.518-2.341c-5.48,1.81-11.505,1.361-16.789-0.881  C39.17,70.799,38.262,72.901,40.371,73.797L40.371,73.797z"/><text x="0" y="115" fill="#000000" font-size="5px" font-weight="bold" font-family="'Helvetica Neue', Helvetica, Arial-Unicode, Arial, Sans-serif">Created by Veronika Geertsema König</text><text x="0" y="120" fill="#000000" font-size="5px" font-weight="bold" font-family="'Helvetica Neue', Helvetica, Arial-Unicode, Arial, Sans-serif">from the Noun Project</text></svg>