<svg xmlns="http://www.w3.org/2000/svg" xmlns:xlink="http://www.w3.org/1999/xlink" version="1.1" x="0px" y="0px" viewBox="0 0 100 125" enable-background="new 0 0 100 100" xml:space="preserve"><g><path d="M76.38,28.801c-3.377,0-6.562-4.777-6.562-4.777c-2.865-5.438-0.857-7.925-0.035-8.649   c-5.443-5.205-13.345-8.487-22.125-8.487c-8.613,0-16.38,3.157-21.811,8.192c0.102,0.021,0.204,0.042,0.307,0.061   c0,0,3.769,2.24,0.268,8.883c0,0-3.182,4.777-6.562,4.777c-0.384,0-0.771-0.062-1.156-0.201c0,0-0.136-0.102-0.371-0.308   c-0.247,1.314-0.376,2.663-0.376,4.037c0,14.028,13.324,25.442,29.701,25.442c16.378,0,29.702-11.414,29.702-25.442   c0-1.222-0.104-2.423-0.299-3.6C76.834,28.776,76.607,28.801,76.38,28.801z M32.308,46.985c-0.095-0.028-0.186-0.052-0.274-0.096   l-0.049-0.016l-0.013-0.022c-0.535-0.297-0.912-0.843-0.912-1.498c0-0.959,0.776-1.731,1.729-1.731   c0.467,0,0.885,0.188,1.196,0.486c0.031,0.008,0.055,0.012,0.087,0.021l7.084,5.911L32.308,46.985z M62.948,46.851l-0.013,0.022   l-0.05,0.016c-0.088,0.043-0.177,0.068-0.274,0.096l-8.85,3.056l7.085-5.911c0.034-0.009,0.057-0.013,0.088-0.021   c0.311-0.298,0.729-0.486,1.196-0.486c0.955,0,1.729,0.772,1.729,1.731C63.858,46.008,63.483,46.554,62.948,46.851z"/><path d="M88.131,63.728c0.462-2.32,0.673-4.524,0.67-6.597c-0.041-12.367-7.222-19.82-10.442-22.553   c-0.15,1.525-0.436,3.015-0.872,4.455c3.068,3.129,7.467,9.167,7.459,18.098c0,1.731-0.173,3.585-0.547,5.556l-5.492-4.583   l1.045,20.111c9.128-5.454,15.367-15.582,15.367-15.582L88.131,63.728z"/><path d="M31.119,82.264c0.234-1.877,0.558-3.762,0.97-5.64c-1.744-0.353-3.217-0.498-4.345-0.544   C27.595,79.566,29.363,81.353,31.119,82.264z"/><path d="M32.459,85.816l0.005,0.001c0.005-0.05,0.009-0.1,0.015-0.151C32.473,85.718,32.464,85.766,32.459,85.816z"/><path d="M26.277,79.434c-2.65-1.268-5.547-3.005-8.098-5.317c-4.211-3.833-7.506-9.072-7.637-16.687   c0-0.028-0.002-0.052-0.002-0.143c0.006-1.25,0.307-10.516,7.631-17.243c-0.014-0.032-0.021-0.063-0.029-0.093   c-0.222-0.637-0.413-1.288-0.58-1.944c-0.043-0.175-0.091-0.346-0.133-0.522c-0.119-0.526-0.22-1.06-0.305-1.597   C7.046,43.799,6.682,55.574,6.688,57.287c0,0.135,0.002,0.212,0.002,0.236c0.151,11.701,7.18,19.051,13.874,23.176   c3.191,1.982,6.33,3.305,8.765,4.153C27.897,83.806,26.547,82.117,26.277,79.434z"/><path d="M64.281,82.51c1.757-0.914,3.524-2.699,3.376-6.184c-1.129,0.047-2.604,0.191-4.346,0.546   C63.723,78.747,64.047,80.633,64.281,82.51z"/><path d="M39.078,59.681c-0.45-0.108-0.903-0.227-1.355-0.353c-3.007,2.564-7.54,7.5-9.946,15.388   c1.256,0.048,2.888,0.202,4.799,0.58C34.423,68.542,37.072,63.158,39.078,59.681z"/><path d="M57.656,59.314c-0.452,0.125-0.897,0.243-1.341,0.352c2.008,3.478,4.661,8.872,6.509,15.63   c1.912-0.377,3.542-0.532,4.798-0.58C65.214,66.817,60.672,61.878,57.656,59.314z"/><path d="M70.645,23.489c0.758,1.134,3.413,4.329,5.736,4.329c0.232,0,0.461-0.032,0.682-0.097   c1.115-0.925,9.195-8.164,6.758-21.779c-4.655,7.097-9.793,9.429-13.337,10.124C69.958,16.49,68.024,18.5,70.645,23.489z"/><path d="M19.177,27.721c0.223,0.064,0.454,0.097,0.685,0.097c2.308,0,4.945-3.146,5.697-4.264c2.659-5.051,0.729-7.064,0.204-7.488   c-3.546-0.695-8.688-3.028-13.339-10.125C9.938,19.686,18.059,26.813,19.177,27.721z"/><path d="M47.659,58.892c-1.949,0-3.85-0.174-5.7-0.473c-2.776,4.33-8.135,14.187-9.48,27.249c0.129-1.265,0.292-2.503,0.493-3.707   l0.006,0.094C32.77,83.305,32.602,85,32.465,86h-0.001c-0.379,3-0.44,8,0.017,11h4.372c0.558-1,2.578-8,5.903-10h4.217h1.054h4.216   c3.325,2,5.345,9,5.902,10h4.753c2.046-18-5.883-33.421-9.477-39.03C51.55,58.275,49.63,58.892,47.659,58.892z"/></g><text x="0" y="115" fill="#000000" font-size="5px" font-weight="bold" font-family="'Helvetica Neue', Helvetica, Arial-Unicode, Arial, Sans-serif">Created by Milena Zanotelli</text><text x="0" y="120" fill="#000000" font-size="5px" font-weight="bold" font-family="'Helvetica Neue', Helvetica, Arial-Unicode, Arial, Sans-serif">from the Noun Project</text></svg>