<svg xmlns="http://www.w3.org/2000/svg" xmlns:xlink="http://www.w3.org/1999/xlink" version="1.1" x="0px" y="0px" viewBox="0 0 120.301 297.73" style="enable-background:new 0 0 120.301 238.184;" xml:space="preserve"><g><ellipse transform="matrix(0.2268 -0.9739 0.9739 0.2268 24.3474 75.6678)" cx="59.829" cy="22.5" rx="22.495" ry="22.495"/><path d="M10.172,122.626c0.609,0,1.227-0.07,1.845-0.216c1.091-0.258,2.076-0.729,2.922-1.356l17.843,24.428v80.339   c0,6.829,5.537,12.363,12.363,12.363c6.828,0,12.365-5.534,12.365-12.363v-90.272h4.635v90.272c0,6.829,5.537,12.363,12.363,12.363   c6.828,0,12.365-5.534,12.365-12.363v-79.454l18.489-25.313c0.847,0.627,1.831,1.099,2.923,1.356   c0.618,0.146,1.236,0.215,1.845,0.215c3.627,0,6.911-2.482,7.779-6.165c1.634-6.927,2.391-13.232,2.391-18.985   c0.008-8.696-1.753-16.147-4.726-22.265c-4.456-9.214-11.5-15.154-18.131-18.618c-6.431-3.321-12.271-4.6-16.81-4.747   c-0.482-0.094-0.979-0.146-1.488-0.146H40.512c-0.549,0-1.083,0.059-1.6,0.167c-2.804,0.161-5.982,0.765-9.567,1.955   c-6.213,2.093-13.526,6.085-19.411,13.235C4.037,74.181-0.041,84.435,0,97.475c0.002,5.754,0.756,12.06,2.392,18.989   C3.262,120.144,6.547,122.626,10.172,122.626z M59.902,124.223l-2.391-3.02l-7.109-8.98l1.828-13.467l3.644-26.854   c1.297,0.486,2.662,0.74,4.026,0.739h0.002h0.006c1.363,0,2.726-0.254,4.021-0.74l3.632,26.756l1.842,13.566l-7.256,9.165   L59.902,124.223z M97.998,77.206c3.497,4.325,6.26,10.39,6.303,20.27c0,4.345-0.574,9.423-1.964,15.311   c-0.385,1.633-0.238,3.266,0.326,4.721l-15.789,7.544v-16.17v-39.52C90.623,70.781,94.779,73.267,97.998,77.206z M56.101,59.723   h3.801h3.799l1.9,7.5l-0.289,0.456c-1.566,1.306-3.484,1.96-5.412,1.962c-1.928-0.002-3.843-0.655-5.408-1.958l-0.292-0.461   L56.101,59.723z M19.126,82.188c2.762-5.673,6.917-9.174,11.172-11.429c0.825-0.444,1.662-0.828,2.485-1.16v39.282v15.861   l-15.143-7.235c0.564-1.455,0.711-3.088,0.326-4.722c-1.392-5.887-1.964-10.962-1.964-15.31   C16.009,90.891,17.288,85.996,19.126,82.188z"/></g><text x="0" y="253.184" fill="#000000" font-size="5px" font-weight="bold" font-family="'Helvetica Neue', Helvetica, Arial-Unicode, Arial, Sans-serif">Created by Gan Khoon Lay</text><text x="0" y="258.18399999999997" fill="#000000" font-size="5px" font-weight="bold" font-family="'Helvetica Neue', Helvetica, Arial-Unicode, Arial, Sans-serif">from the Noun Project</text></svg>