<svg xmlns="http://www.w3.org/2000/svg" xmlns:xlink="http://www.w3.org/1999/xlink" version="1.1" x="0px" y="0px" viewBox="0 0 53.8 74.25" enable-background="new 0 0 53.8 59.4" xml:space="preserve"><path d="M42.4,5c-1-1-2.4-1.5-3.9-1.5c-0.7,0-1.5,0.101-2.1,0.4c-0.3-0.8-0.8-1.4-1.4-2c-1-1-2.2-1.5-3.7-1.5s-2.9,0.5-3.9,1.5  C27.2,2,27.1,2.3,26.9,2.4c-0.2-0.3-0.5-0.5-0.7-0.8C25.2,0.5,23.9,0,22.4,0s-2.8,0.5-3.8,1.601c-0.7,0.699-1,1.3-1.3,2  c-0.7-0.301-1.6-0.5-2.4-0.5c-1.5,0-2.8,0.5-3.9,1.5C9.9,5.7,9.4,6.9,9.4,8.4c0,0.2,0,0.399,0.1,0.5c-0.3,0-0.7,0-0.9,0  c-1.6,0-2.8,0.5-3.8,1.5C3.7,11.5,3.1,12.8,3.1,14.3c0,1,0.3,1.801,0.8,2.601c-0.9,0.2-1.6,0.7-2.3,1.399c-1,1-1.6,2.301-1.6,3.801  s0.6,2.8,1.6,3.8C1.7,26,1.8,26.101,2,26.3c-0.2,0.101-0.3,0.2-0.4,0.301C0.6,27.5,0,28.8,0,30.2c0,1,0.3,1.9,0.8,2.7  c-0.2,0.399-0.3,1.1-0.3,1.7V37.3c0,2.5,1.3,3.7,3.8,3.7h0.8C6,45.3,7.9,49.101,11,52.4l0,0c4.4,4.6,9.6,7,15.7,7  c6.1,0,11.3-2.4,15.7-7l0,0c3.1-3.3,5.1-7.101,6-11.4h0.7c2.5,0,3.8-1.2,3.8-3.7v-2.699c0-0.301,0-0.601,0-1  c0.6-0.801,0.9-1.9,0.9-3.101c0-1.5-0.5-2.8-1.5-3.899C52.1,26.5,52,26.4,51.9,26.3c0.1-0.199,0.2-0.3,0.4-0.399  c1-1,1.5-2.3,1.5-3.8S53.3,19.3,52.3,18.3c-0.8-0.899-1.8-1.399-2.9-1.5c0.4-0.8,0.6-1.6,0.6-2.5c0-1.5-0.5-2.8-1.6-3.899  c-1-1-2.3-1.5-3.8-1.5c-0.2,0-0.5,0-0.6,0l0,0C44,7.4,43.5,6.101,42.4,5z M40.4,9.601C40.8,9.4,41.1,9.3,41.5,9.3  c0.5,0,0.9,0.2,1.3,0.601c0.3,0.399,0.5,0.899,0.4,1.3c-0.1,0.5-0.2,0.9-0.6,1.2c-0.2,0.2-0.5,0.399-0.6,0.5c-0.1,0-0.2,0-0.4,0.1  L38,12.8c1.4,0.801,2.6,2,3.8,3.2c3.1,3.4,5.1,7.3,5.9,11.601c-1.1-3.2-2.8-6.2-5.3-9c-4.4-4.601-9.6-7-15.7-7  c-6.1,0-11.3,2.399-15.7,7c-2.4,2.699-4.2,5.699-5.2,9C6.5,23.3,8.4,19.4,11.6,16c2.5-2.6,5.3-4.5,8.3-5.6c0,0,0,0,0-0.101  C20,10.4,20.1,10.4,20.1,10.4c1.9-0.7,3.9-1,6-1.101c0.1,0,0.1,0,0.1,0c0.1-0.1,0.1,0,0.2,0c0,0,0.2,0,0.3,0  c3.5,0,6.7,0.801,9.6,2.4l-1.8-3.8c-0.1-0.601-0.1-1.101,0-1.5c0.2-0.601,0.6-1,1.1-1.4c0.7-0.2,1.3-0.2,1.8-0.1  c0.6,0.3,1.1,0.7,1.4,1.3C38.9,6.4,39,6.8,39,7s0,0.4,0,0.5l-1.6,4.7L40.4,9.601z M48.7,32.4l0.4-0.101c1.5,0,2.3,0.801,2.3,2.301  V37.3c0,1.5-0.8,2.2-2.3,2.2h-0.5c0.2-1.2,0.3-2.6,0.3-4c0-0.7,0-1.5-0.1-2.2c0-0.1,0-0.199,0-0.199V33c0,0,0,0,0-0.1  c-0.1-0.101-0.1-0.2-0.1-0.4C48.7,32.5,48.7,32.5,48.7,32.4z M47.2,32.5c0,0.2,0,0.4,0.1,0.5c0,0.101,0,0.3,0,0.4  c0.1,0.7,0.1,1.399,0.1,2.1c0,1.601-0.2,3.2-0.4,4.601c-0.8,4.3-2.7,8-5.7,11.199c-4,4.4-8.9,6.601-14.6,6.601  c-5.7,0-10.6-2.2-14.6-6.601c-3-3.199-4.9-6.899-5.6-11.1c0-0.1,0-0.2-0.1-0.2C6.2,38.5,6,37.101,6,35.5c0-0.7,0-1.399,0.2-2.1  c0-0.101,0-0.101,0-0.101s0-0.199,0-0.3c0-0.1,0-0.3,0-0.5c0.3,0,0.5,0,0.6,0c5.3,0.101,10.1-1.7,14.6-5.399  c2.8-2.2,4.9-4.7,6.2-7.4c1.5,2.7,3.5,5.2,6.2,7.4C37.9,30.4,42.3,32.2,47.2,32.5z M5,30.9H4.9C4.9,30.8,4.9,30.8,5,30.8  C5,30.8,5,30.8,5,30.9z M4.7,33c0,0,0,0.101,0,0.2c-0.2,0.8-0.2,1.6-0.2,2.3c0,1.4,0.1,2.8,0.3,4H4.3c-1.5,0-2.3-0.7-2.3-2.2v-2.699  c0-1.5,0.8-2.301,2.3-2.301L4.7,32.4C4.7,32.5,4.7,32.8,4.7,33L4.7,33z"/><path d="M36.3,31.601c-0.1,0-0.1,0-0.2,0c-0.5-0.5-1.1-0.801-1.8-0.801c-0.8,0-1.4,0.301-1.9,0.801c-0.5,0.6-0.8,1.199-0.8,1.899  c0,0.8,0.2,1.4,0.8,1.9c0,0.1,0,0.1,0,0.1c0.5,0.5,1.1,0.8,1.9,0.8c0.7,0,1.3-0.3,1.9-0.8c0.5-0.5,0.8-1.2,0.8-2  C37,32.8,36.7,32.2,36.3,31.601z M33.6,32.9c0.2-0.101,0.4-0.3,0.7-0.3c0.2,0,0.5,0.199,0.6,0.3c0.1,0.1,0.2,0.399,0.2,0.6  c0,0.3,0,0.5-0.1,0.7c-0.2,0.1-0.5,0.3-0.7,0.3c-0.3,0-0.4-0.2-0.6-0.3c-0.1-0.1-0.1-0.1-0.1-0.1C33.5,34,33.4,33.8,33.4,33.5  C33.4,33.3,33.5,33,33.6,32.9z"/><path d="M21.6,31.601c-0.1,0-0.1,0-0.2,0c-0.5-0.5-1.1-0.801-1.8-0.801c-0.8,0-1.4,0.301-1.9,0.801c-0.6,0.6-0.8,1.199-0.8,1.899  c0,0.8,0.2,1.4,0.7,1.9c0,0.1,0,0.1,0.1,0.1c0.5,0.5,1.1,0.8,1.9,0.8c0.7,0,1.3-0.3,1.9-0.8c0.5-0.5,0.8-1.2,0.8-2  C22.3,32.8,22,32.2,21.6,31.601z M18.9,32.9c0.2-0.101,0.4-0.3,0.7-0.3c0.2,0,0.5,0.199,0.6,0.3c0.2,0.1,0.2,0.399,0.2,0.6  c0,0.3,0,0.5-0.1,0.7c-0.2,0.1-0.5,0.3-0.7,0.3c-0.3,0-0.5-0.2-0.6-0.3s-0.1-0.1-0.1-0.1C18.8,34,18.6,33.8,18.6,33.5  C18.6,33.3,18.8,33,18.9,32.9z"/><path d="M18.7,46.9c-0.1,0.2-0.1,0.399,0.1,0.7c0.4,0.6,0.9,1.199,1.6,1.899c1.9,1.9,4.2,2.9,7,2.9c2.7,0,5.1-1,7.1-2.9  c0.6-0.7,1.1-1.3,1.5-1.899c0.1-0.301,0.2-0.5,0.1-0.7c0-0.3-0.1-0.4-0.3-0.601c-0.3-0.1-0.5-0.1-0.8-0.1c-0.2,0.1-0.4,0.2-0.5,0.4  c-0.4,0.6-0.7,1.1-1.2,1.6c-1.7,1.6-3.6,2.4-5.9,2.4s-4.2-0.801-5.8-2.4l0,0c-0.5-0.5-1-1-1.2-1.6c-0.2-0.2-0.4-0.301-0.6-0.4  c-0.3,0-0.5,0-0.7,0.1C18.9,46.5,18.8,46.601,18.7,46.9z"/><text x="0" y="74.4" fill="#000000" font-size="5px" font-weight="bold" font-family="'Helvetica Neue', Helvetica, Arial-Unicode, Arial, Sans-serif">Created by Peacock Dream</text><text x="0" y="79.4" fill="#000000" font-size="5px" font-weight="bold" font-family="'Helvetica Neue', Helvetica, Arial-Unicode, Arial, Sans-serif">from the Noun Project</text></svg>