<svg xmlns="http://www.w3.org/2000/svg" xmlns:xlink="http://www.w3.org/1999/xlink" version="1.1" x="0px" y="0px" viewBox="0 0 100 125" enable-background="new 0 0 100 100" xml:space="preserve"><path d="M64.336,94.993h-3.354c-1.438,0-2.608-1.17-2.608-2.608v-0.407c0-0.129-0.042-0.129-0.09-0.129  c-0.059,0.006-0.973,0.172-2.394,0.347c-1.965,0.242-3.853,0.364-5.61,0.364c-1.575,0-3.165-0.085-4.856-0.26  c-1.227-0.128-2.483-0.3-3.818-0.523c-0.001,0.05-0.001,0.099-0.001,0.148v0.46c0,1.438-1.17,2.608-2.608,2.608h-3.354  c-0.954,0-1.79-0.516-2.245-1.281c-0.458,0.752-1.285,1.252-2.227,1.252h-3.354c-1.438,0-2.609-1.17-2.609-2.608v-6.253  c0-0.475-0.369-1.224-0.745-1.512c-0.099-0.075-2.432-1.875-4.023-3.496c-1.794-1.828-3.595-4.379-3.672-4.486  c-0.254-0.358-0.947-0.714-1.398-0.714c-0.036,0-0.268,0.012-0.832,0.064c-0.899,0.09-1.607,0.067-2.224-0.169  c-2.668-1.024-4.634-3.397-5.838-7.045c-0.939-2.842-1.26-5.898-1.45-8.512c-0.08-1.166,0.326-2.283,1.144-3.146  c0.782-0.826,1.847-1.324,3-1.403c0.462-0.031,0.883-0.052,1.276-0.071c0.627-0.031,1.181-0.058,1.716-0.12  c0.729-0.083,1.094-0.2,1.098-0.2c0.514-0.178,1.277-0.8,1.56-1.277c0.116-0.196,2.859-4.815,5.36-7.604  c2.478-2.762,4.452-4.454,4.535-4.525c-0.178-0.109-1.137-0.813-2.466-3.283c-1.293-2.4-2.326-5.481-2.37-5.611  c-0.235-0.706-0.146-1.422,0.244-1.963c0.385-0.534,1.021-0.84,1.745-0.84l0.152,0.004c0.285,0.017,7.017,0.415,10.79,1.631  c3.742,1.206,7.85,3.513,8.022,3.611c0.519,0.292,1.253,0.472,1.636,0.472l1.275-0.131c2.165-0.205,4.442-0.309,6.783-0.309  c0.794,0,1.559,0.012,2.28,0.034c2.701,0.079,4.799,0.28,5.86,0.443c1.605,0.246,3.223,0.589,4.807,1.017  c2.522,0.683,4.845,1.557,6.902,2.595l-0.212,0.423l0.215-0.423l-0.346,0.693l0.411-0.652l0.188,0.109  c0.28,0.161,0.789,0.454,1.399,0.82c1.455,0.874,2.606,1.636,3.424,2.268c2.795,2.164,4.48,3.552,5.94,5.132  c1.537,1.665,3.195,4.616,3.265,4.741c0.171,0.303,0.469,0.49,0.607,0.522l0.422-0.132c0.507-0.16,0.997-0.357,1.456-0.586  c0.111-0.056,0.183-0.091,0.304-0.223c0.178-0.194,0.454-0.599,0.762-1.417c0.192-0.514,0.333-1.088,0.47-1.644l0.079-0.316  c0.182-0.732,0.375-1.436,0.732-1.972c0.437-0.648,1.093-1.085,1.852-1.236c0.742-0.15,1.538,0.004,2.177,0.43  c0.646,0.427,1.069,1.088,1.194,1.859c0.104,0.642,0.004,1.333-0.288,2.001c-0.354,0.806-0.545,1.439-0.726,2.069l-0.042,0.15  c-0.164,0.585-0.335,1.189-0.626,1.867c-0.336,0.782-0.835,1.543-1.444,2.198c-0.573,0.619-1.212,1.115-1.849,1.434  c-0.608,0.303-1.244,0.569-1.894,0.794l-0.588,0.203c-0.06,0.026-0.118,0.175-0.062,0.386c0.002,0.003,0.157,0.589,0.325,1.686  c0.166,1.086,0.25,2.187,0.25,3.275c0,3.534-0.828,6.979-2.46,10.233c-1.576,3.147-3.852,6.012-6.762,8.516  c-1.221,1.051-2.97,2.128-3.044,2.175c-0.363,0.225-0.736,0.891-0.736,1.319v6.096c0,1.438-1.17,2.608-2.608,2.608h-3.354  c-0.942,0-1.77-0.5-2.229-1.252C66.126,94.478,65.289,94.993,64.336,94.993z M58.283,89.613c1.305,0,2.326,1.039,2.326,2.364v0.407  c0,0.204,0.17,0.373,0.372,0.373h3.354c0.202,0,0.372-0.169,0.372-0.373v-2.439c0-1.884,0.341-2.388,0.931-2.62l0.484-0.192  c0.821-0.373,2.313,0.195,2.313,2.187v3.036c0,0.201,0.17,0.373,0.373,0.373h3.354c0.202,0,0.373-0.172,0.373-0.373V86.26  c0-1.206,0.774-2.592,1.8-3.224c0.018-0.012,1.673-1.033,2.758-1.965c2.684-2.309,4.777-4.94,6.22-7.822  c1.476-2.943,2.225-6.049,2.225-9.232c0-0.975-0.076-1.964-0.225-2.938c-0.14-0.916-0.268-1.421-0.276-1.452  c-0.192-0.721-0.1-1.482,0.256-2.084c0.305-0.516,0.777-0.876,1.332-1.015l0.493-0.175c0.558-0.192,1.105-0.422,1.625-0.681  c0.389-0.195,0.819-0.535,1.208-0.953c0.436-0.471,0.792-1.011,1.027-1.562c0.234-0.543,0.372-1.029,0.53-1.593l0.044-0.154  c0.194-0.68,0.417-1.421,0.828-2.355c0.115-0.263,0.161-0.535,0.128-0.744c-0.026-0.163-0.093-0.269-0.225-0.355  c-0.11-0.074-0.238-0.113-0.369-0.113c-0.311,0.048-0.463,0.151-0.564,0.302c-0.168,0.251-0.332,0.913-0.421,1.269l-0.076,0.31  c-0.146,0.589-0.31,1.257-0.549,1.893c-0.352,0.939-0.746,1.641-1.205,2.143c-0.403,0.438-0.754,0.613-0.923,0.697  c-0.597,0.298-1.196,0.539-1.816,0.733l-0.542,0.171c-0.243,0.056-0.381,0.069-0.522,0.069c-0.973,0-2.035-0.687-2.585-1.671  c-0.017-0.028-1.602-2.847-2.957-4.316c-1.354-1.465-2.971-2.793-5.666-4.882c-0.737-0.569-1.847-1.302-3.206-2.119  c-0.595-0.356-1.092-0.643-1.363-0.799c-0.05-0.028-0.111-0.064-0.178-0.107c-1.916-0.964-4.086-1.777-6.451-2.418  c-1.504-0.407-3.038-0.731-4.562-0.966c-0.996-0.152-2.986-0.342-5.586-0.418c-0.701-0.021-1.442-0.032-2.215-0.032  c-2.27,0-4.478,0.101-6.562,0.298l-1.172,0.125c-0.727,0.082-2.147-0.23-3.058-0.743c-0.041-0.022-4.088-2.295-7.611-3.43  c-3.191-1.029-9.015-1.448-10.066-1.516c0.252,0.741,1.136,3.205,2.16,5.107c1.056,1.958,1.746,2.494,1.752,2.5  c0.592,0.383,0.977,1.012,1.022,1.699c0.045,0.688-0.255,1.36-0.824,1.846c-0.019,0.016-1.951,1.674-4.322,4.317  c-2.353,2.623-5.073,7.202-5.1,7.248c-0.552,0.934-1.742,1.903-2.766,2.257c-0.093,0.032-0.599,0.194-1.56,0.305  c-0.579,0.067-1.181,0.098-1.861,0.131c-0.382,0.02-0.791,0.039-1.237,0.069c-0.58,0.039-1.138,0.299-1.527,0.71  c-0.383,0.404-0.574,0.92-0.537,1.452c0.18,2.473,0.48,5.357,1.343,7.967c0.985,2.981,2.505,4.886,4.521,5.66  c0.261,0.099,0.704,0.078,1.203,0.031c0.72-0.069,0.983-0.075,0.983-0.075c0,0,0.001,0,0.001,0c1.234,0,2.62,0.716,3.288,1.662  c0.019,0.026,1.775,2.51,3.44,4.207c1.48,1.508,3.767,3.272,3.789,3.29c0.923,0.707,1.619,2.119,1.619,3.284v6.253  c0,0.201,0.17,0.373,0.373,0.373h3.354c0.203,0,0.373-0.172,0.373-0.373v-2.804c0-1.863,1.382-2.591,2.446-2.143l0.411,0.151  c0.87,0.288,0.87,1.106,0.87,2.588v2.236c0,0.204,0.17,0.373,0.373,0.373h3.354c0.203,0,0.373-0.169,0.373-0.373v-0.46  c0-1.686,0.481-2.539,1.43-2.539l0.365,0.047c1.598,0.285,3.066,0.495,4.491,0.644c1.614,0.166,3.128,0.247,4.626,0.247  c1.667,0,3.463-0.116,5.338-0.347c1.332-0.162,2.191-0.319,2.208-0.322C57.981,89.628,58.135,89.613,58.283,89.613z M24.905,56.971  c-2.261,0-4.099-1.839-4.099-4.099c0-2.261,1.838-4.1,4.099-4.1s4.099,1.838,4.099,4.1C29.004,55.132,27.166,56.971,24.905,56.971z   M24.905,51.009c-1.027,0-1.863,0.835-1.863,1.863c0,1.027,0.836,1.862,1.863,1.862c1.028,0,1.863-0.835,1.863-1.862  C26.768,51.844,25.933,51.009,24.905,51.009z"/><path d="M64.657,42.77c-0.029,0.852-0.777,1.518-1.671,1.489c0,0-5.934-1.711-11.186-1.885c-4.786-0.156-11.195,1.157-11.195,1.157  c-0.896-0.029-1.597-0.743-1.571-1.594l0,0c0.03-0.853,0.774-1.517,1.67-1.487c0,0,6.226-1.498,11.338-1.287  c4.879,0.203,11.042,2.013,11.042,2.013C63.98,41.205,64.686,41.918,64.657,42.77L64.657,42.77z"/><path d="M58.728,19.904c-0.495-0.642-1.243-1.082-2.245-1.322c1.273-0.65,1.834-1.753,1.68-3.31  c-0.051-0.565-0.206-1.055-0.467-1.469c-0.263-0.415-0.614-0.749-1.059-1.001c-0.445-0.252-0.929-0.444-1.45-0.578  c-0.522-0.132-1.122-0.228-1.797-0.288V8.703h-1.976v3.144c-0.342,0-0.863,0.008-1.566,0.025V8.703h-1.976v3.234  c-0.282,0.008-0.696,0.012-1.244,0.012l-2.719-0.012v2.104h1.423c0.649,0,1.031,0.292,1.142,0.873v3.683  c0.085,0,0.154,0.003,0.205,0.013h-0.205v5.158c-0.069,0.435-0.314,0.654-0.744,0.654h-1.425l-0.396,2.348h2.565  c0.164,0,0.398,0.002,0.707,0.006c0.307,0.004,0.539,0.007,0.691,0.007v3.271h1.976V26.82c0.359,0.009,0.882,0.013,1.566,0.013v3.22  h1.977v-3.271c0.7-0.035,1.322-0.099,1.866-0.192c0.543-0.095,1.063-0.243,1.559-0.443c0.497-0.202,0.91-0.452,1.245-0.751  c0.333-0.3,0.609-0.681,0.828-1.142c0.217-0.463,0.356-0.997,0.415-1.604C59.417,21.461,59.224,20.545,58.728,19.904L58.728,19.904z   M49.887,14.181c0.062,0,0.23-0.001,0.507-0.006c0.278-0.005,0.509-0.009,0.692-0.013c0.186-0.004,0.433,0.006,0.746,0.032  c0.312,0.026,0.574,0.061,0.789,0.103c0.214,0.043,0.448,0.113,0.704,0.212c0.256,0.098,0.461,0.217,0.615,0.359  c0.154,0.14,0.286,0.321,0.392,0.539c0.108,0.217,0.162,0.468,0.162,0.75c0,0.239-0.039,0.458-0.115,0.655  c-0.077,0.197-0.193,0.361-0.348,0.494c-0.154,0.133-0.312,0.248-0.475,0.346c-0.163,0.099-0.37,0.178-0.622,0.238  c-0.253,0.059-0.473,0.106-0.66,0.14c-0.188,0.035-0.424,0.058-0.706,0.071c-0.282,0.012-0.496,0.022-0.642,0.025  c-0.146,0.004-0.344,0.004-0.597,0c-0.252-0.003-0.4-0.006-0.441-0.006v-3.939H49.887z M55.281,22.918  c-0.08,0.197-0.185,0.368-0.314,0.514c-0.128,0.146-0.297,0.273-0.506,0.385c-0.21,0.111-0.412,0.201-0.61,0.27  c-0.195,0.068-0.434,0.126-0.71,0.178c-0.278,0.052-0.521,0.088-0.732,0.11c-0.21,0.021-0.46,0.038-0.751,0.051  c-0.29,0.012-0.517,0.02-0.68,0.02c-0.163,0-0.367-0.002-0.616-0.007c-0.248-0.003-0.406-0.006-0.475-0.006v-4.337  c0.068,0,0.271-0.004,0.609-0.014c0.339-0.008,0.614-0.011,0.828-0.011c0.215,0,0.51,0.011,0.887,0.039  c0.376,0.025,0.691,0.064,0.948,0.115c0.257,0.052,0.537,0.131,0.841,0.238c0.305,0.107,0.551,0.237,0.739,0.392  c0.188,0.154,0.346,0.35,0.474,0.59c0.128,0.24,0.193,0.513,0.193,0.821C55.405,22.504,55.364,22.722,55.281,22.918L55.281,22.918z   M55.281,22.918"/><path d="M51.108,34.128c-8.015,0-14.535-6.519-14.535-14.532c0-8.014,6.52-14.534,14.535-14.534c8.014,0,14.531,6.52,14.531,14.534  C65.64,27.609,59.122,34.128,51.108,34.128z M51.108,7.298c-6.782,0-12.299,5.517-12.299,12.298c0,6.78,5.517,12.296,12.299,12.296  c6.78,0,12.296-5.516,12.296-12.296C63.404,12.815,57.889,7.298,51.108,7.298z"/><text x="0" y="115" fill="#000000" font-size="5px" font-weight="bold" font-family="'Helvetica Neue', Helvetica, Arial-Unicode, Arial, Sans-serif">Created by TMD</text><text x="0" y="120" fill="#000000" font-size="5px" font-weight="bold" font-family="'Helvetica Neue', Helvetica, Arial-Unicode, Arial, Sans-serif">from the Noun Project</text></svg>