<svg xmlns="http://www.w3.org/2000/svg" xmlns:xlink="http://www.w3.org/1999/xlink" version="1.1" x="0px" y="0px" viewBox="0 0 100 125" enable-background="new 0 0 100 100" xml:space="preserve"><ellipse fill="none" cx="83.506" cy="86.775" rx="2.347" ry="3.009"/><path d="M16.856,59.992l4.328-9.885c-2.703-2.477-4.494-5.935-4.802-9.813l-0.003,0.003v-0.071c-0.007-0.099-0.008-0.2-0.015-0.299  l3.601-3.601c-0.001-0.032-0.006-0.061-0.006-0.094c0-2.245,1.24-4.064,2.769-4.064c0.382,0,0.745,0.114,1.076,0.319l3.308-3.308  l1.5-2.701l-2.701,1.5l-9.498,9.498c-0.058,0.533-0.092,1.073-0.092,1.622c0,0.28,0.027,0.553,0.042,0.829l-0.497,0.497  l-0.118-0.118l-0.308,0.308c-0.265,0.265-0.699,0.265-0.963,0c-0.265-0.265-0.265-0.698,0-0.963l0.308-0.308l-0.118-0.119  l1.713-1.712v-18.39l17.174-3.282l-4.718,2.872l12.718-1.231l-6.564,3.487h12.103l-5.333,2.256l7.18,3.487h-9.369  c3.677,2.476,6.164,6.552,6.526,11.225c1.174,0.486,1.966,1.357,1.966,2.361c0,1.126-0.99,2.091-2.407,2.524  c-0.455,1.75-1.181,3.391-2.192,4.832c-1.41-0.345-4.04-1.318-5.499-4.018c-0.853,1.25-0.997,6.695,0.848,8.31  c-1.949,1.151-4.186,1.847-6.572,2.008l0.69,4.348c0.468,0.24,0.926,0.508,1.376,0.796l30.753-30.753l5.915,5.915l-30.76,30.76  c1.044,1.547,1.947,3.267,2.688,5.126h38.869h2.092c2.3,0,4.183,1.882,4.183,4.183c0,2.3-1.882,4.183-4.183,4.183h-2.092H44.959  c0.133,1.224,0.208,2.474,0.208,3.749c0,1.749-0.131,3.456-0.378,5.107H7.661c-0.246-1.651-0.378-3.358-0.378-5.107  C7.283,72.715,11.143,64.407,16.856,59.992z"/><path d="M74.404,30.828l-5.915-5.915l0.683-0.683c1.627-1.627,4.289-1.627,5.915,0c1.627,1.627,1.627,4.288,0,5.915L74.404,30.828z"/><path d="M76.589,38.586L60.62,22.618l-0.638,0.638c-1.4,1.4-3.691,1.4-5.091,0c-1.4-1.4-1.4-3.691,0-5.092l3.376-3.376  c1.4-1.4,3.691-1.4,5.092,0c1.4,1.4,1.4,3.691,0,5.092l-0.595,0.595l15.968,15.968c0.59,0.59,0.59,1.554,0,2.144  C78.143,39.176,77.178,39.176,76.589,38.586z"/><path d="M79.583,58.63c0-1.024,1.13-1.861,2.512-1.861v12.584h-2.512V58.63z"/><path d="M67.774,79.337c-1.007,1.161-1.157,2.715-0.292,3.58c0.916,0.917,2.612,0.707,3.787-0.469  c0.928-0.928,1.243-2.175,0.888-3.112h3.557l-2.73,2.73c-0.017,0.017-0.038,0.027-0.055,0.042l-0.005-0.024  c-0.234,0.403-0.513,0.795-0.868,1.15c-1.732,1.732-4.232,2.041-5.582,0.691c-1.11-1.11-1.082-2.99-0.082-4.589H67.774z"/><path d="M80.246,85.348c-0.12,0.45-0.199,0.925-0.199,1.427c0,2.45,1.549,4.436,3.459,4.436c1.91,0,3.459-1.986,3.459-4.436  c0-2.45-1.549-4.436-3.459-4.436c-0.504,0-0.979,0.145-1.411,0.393v-3.395H80.17c0.028,0.451,0.046,0.91,0.046,1.366v4.589  c0,0.023,0.008,0.046,0.009,0.069L80.246,85.348z M81.159,86.775c0-1.662,1.051-3.009,2.347-3.009c1.296,0,2.347,1.347,2.347,3.009  c0,1.662-1.051,3.009-2.347,3.009C82.209,89.784,81.159,88.437,81.159,86.775z"/><path d="M83.828,69.353h-0.788l8.784-8.784c0.977,0.977,1.184,2.369,0.46,3.093l-6.236,6.236  C85.377,69.561,84.63,69.353,83.828,69.353z"/><text x="0" y="115" fill="#000000" font-size="5px" font-weight="bold" font-family="'Helvetica Neue', Helvetica, Arial-Unicode, Arial, Sans-serif">Created by Marie Van den Broeck</text><text x="0" y="120" fill="#000000" font-size="5px" font-weight="bold" font-family="'Helvetica Neue', Helvetica, Arial-Unicode, Arial, Sans-serif">from the Noun Project</text></svg>