<svg xmlns="http://www.w3.org/2000/svg" xmlns:xlink="http://www.w3.org/1999/xlink" viewBox="0 0 48 60" version="1.1" x="0px" y="0px"><title>theicons.co/svg/clothes-11</title><desc>Created with Sketch.</desc><g stroke="none" stroke-width="1" fill="none" fill-rule="evenodd"><g transform="translate(-1152.000000, -960.000000)" fill="#000000"><g transform="translate(96.000000, 960.000000)"><g transform="translate(1056.000000, 0.000000)"><path d="M26.0330824,21.7548156 L23.548695,20.4626498 C23.0574293,20.2071354 22.2077518,20 21.6595105,20 L18.440918,20 C16.2272715,20 16,21.795645 16,21.9941413 C16,23.1019465 15.0349121,24 13,24 C10.9650879,24 10,23.1029399 10,21.9941413 C10,20.3943034 8.35644531,20 7.60351562,20 C6.85058594,20 6.31641392,20 6.00779351,20 C3.79722667,20 2,21.7905162 2,23.99923 L2,38.0000004 C0.89418941,38.0007496 0,38.8958928 0,40 C0,41.1118043 0.895301779,41.9992561 2,41.9999995 L2,42.0092049 L2.20238337,42 L45.9986107,42 C47.1050616,42 48,41.1045695 48,40 C48,38.8881957 47.1046982,38.0007439 46,38.0000005 L46,35.992017 C46,34.9001762 45.192627,31.5102539 42.1804626,30.1533018 L35.5918777,26.7264834 L35.9055774,25.8646006 C36.2859659,24.8194917 35.7480565,23.6793219 34.7101007,23.3015369 C33.6649085,22.921118 32.5245192,23.4587641 32.1468069,24.4965201 L32.0127227,24.8649132 L29.7180292,23.6714099 C30.4375463,21.0545383 30.0894138,18.8518154 28.9927568,16.1146574 C28.4055305,14.6489931 28.373092,14.5620445 28.2740643,14.1206981 C28.1233221,13.4488715 28.2039973,12.9805566 28.6603779,12.3135418 C29.2517809,11.4491873 29.7134726,11.3295835 31.6713604,11.4235981 C31.8375241,11.4315765 31.9140899,11.4351618 32.0098996,11.4393136 C35.7011112,11.599267 37.9394072,10.5067886 39.5109182,6.55410099 C39.9190031,5.52767979 39.4177425,4.36478282 38.3913213,3.9566979 C37.3649001,3.54861298 36.2020031,4.04987358 35.7939182,5.07629478 C34.9337869,7.23970959 34.3268215,7.53596023 32.1830714,7.44306387 C32.0955227,7.43927007 32.0261544,7.4360218 31.8632127,7.42820162 C28.6447668,7.27365719 26.9641626,7.70902686 25.3591534,10.0547995 C24.2597131,11.6616667 23.9831211,13.2672673 24.3711048,14.9964307 C24.4706188,15.4399439 24.6087816,15.8801115 24.7972648,16.3853245 C24.8678039,16.5743985 24.9430449,16.7667771 25.0404201,17.0092727 C25.0744495,17.0940169 25.2358556,17.4929117 25.2796897,17.6023176 C25.9284835,19.221649 26.2108747,20.4315576 26.0330824,21.7548156 L26.0330824,21.7548156 Z M6,29.0403481 L6,23.99923 C6.553989,24 6.10894775,23.9992299 6.33955632,24.0108271 C7.24621229,26.5281203 9.86925634,28 13,28 C16.8920874,28 19.3220825,25.7242432 19.65979,24 C20.6595866,24 21.6863023,24.0026845 21.6863023,24.0026845 L24.6701828,25.5535114 L24.0938059,27.1370939 C23.7201243,28.1637756 24.2519435,29.3206781 25.2898993,29.6984631 C26.3350915,30.078882 27.4752047,29.5419946 27.8525764,28.5051745 L28.2497535,27.4139392 L30.6339411,28.6530846 L30.0944226,30.1353994 C29.7140341,31.1805083 30.2519435,32.3206781 31.2898993,32.6984631 C32.3350915,33.078882 33.4754808,32.5412359 33.8531931,31.5034799 L34.2135118,30.5135124 L40.5375158,33.8003179 C41.3594521,34.1705925 42,35.448202 42,35.992017 L42,38 L14.0259525,38 C13.5226383,33.7407462 11.5108102,30.9886161 8.4365109,29.7056632 C7.62539247,29.3671709 6.80559885,29.1541822 6,29.0403481 L6,29.0403481 Z M6,33.1636007 L6,38 L9.99845829,38 C9.61273936,35.4658185 8.50846248,34.070022 6.89600863,33.39712 C6.65298748,33.2957035 6.33859425,33.2200198 6,33.1636007 L6,33.1636007 Z"/></g></g></g></g><text x="0" y="63" fill="#000000" font-size="5px" font-weight="bold" font-family="'Helvetica Neue', Helvetica, Arial-Unicode, Arial, Sans-serif">Created by Sergey Minkin</text><text x="0" y="68" fill="#000000" font-size="5px" font-weight="bold" font-family="'Helvetica Neue', Helvetica, Arial-Unicode, Arial, Sans-serif">from the Noun Project</text></svg>