<svg xmlns="http://www.w3.org/2000/svg" xmlns:xlink="http://www.w3.org/1999/xlink" viewBox="0 0 100 125" version="1.1" x="0px" y="0px"><title>ghosty sleeping face 2</title><desc>Created with Sketch.</desc><g stroke="none" stroke-width="1" fill="none" fill-rule="evenodd"><g fill="#000000"><path d="M66.0089317,16.7652228 C61.3761366,15.5597992 56.0329526,15 50,15 C25.1471863,15 12,24.5 12,49.5 C12,66.865299 19.1655273,75.5302734 14.4174785,84.6619448 C10.6956841,91.8198753 9.57910156,98.1152344 29.4775391,89.1650391 C34.9484083,86.7042756 39.9925478,96.2414659 44.92717,96.2354201 C51.7583008,96.2270508 51.919549,91.2139194 55.1581603,91.1675846 C58.7600878,91.1160519 61.752624,94.1439322 66.9176444,94.2224689 C73.4487305,94.3217773 75.1699219,89.1791992 78.2221257,90.8911871 C85.7385762,95.1071808 88.7089844,94.5058594 85.5984789,84.5309117 C81.8246377,72.4287413 88,66.8270061 88,49.5 C88,39.3433766 85.8300412,31.7450468 81.5867865,26.3026835 L89.4897666,27.9825138 L90.2205816,24.5442995 L80.6777828,22.515915 L91.8577895,14.7716778 L92.6482629,11.0527929 L78.9655734,8.1444475 L78.2496729,11.5124942 L86.9153763,13.3544463 L75.9261782,21.0567083 C73.9565859,19.7372457 71.7511797,18.6498625 69.313767,17.7787111 L71.5908217,15.9538059 L71.9726443,13.2369963 L61.9768355,11.832177 L61.6310338,14.2926838 L67.9617127,15.1824027 L66.0089317,16.7652228 L66.0089317,16.7652228 Z M66.3086955,20.1870726 C77.1210702,23.7872968 83,32.1911194 83,48 C83,66.1649077 78.1845703,73.7973633 81.1809363,83.1067845 C82.3029137,86.5926605 85.8906363,91.048031 78.0272751,86.8330483 C75.0029297,85.2119141 71.8881836,90.4467773 66.7734375,90.5175781 C61.6586914,90.5883789 58.7658003,87.1834864 55.0375977,87.21875 C51.9104016,87.2483289 50.1069336,92.1508789 44.92717,92.2354201 C39.8470206,92.3183355 35.0108466,82.9645424 28.2983398,86.1645508 C15.2504883,92.3847656 15.6786072,89.4106379 18.1952435,83.1755172 C21.5486901,74.8671477 15,66.2315539 15,48 C15,25.4999996 26.90861,18 50,18 C54.7992445,18 59.1230338,18.3883261 62.9392536,19.2533401 L60.3220864,21.3746762 L59.9402637,24.0914858 L70.5511993,25.5827555 L70.9042052,23.0709882 L63.9327692,22.0912167 L66.3086955,20.1870726 L66.3086955,20.1870726 Z"/><path d="M30.6366708,50.2689549 C31.8866708,51.2670018 34.9113707,51.6489035 38.2836905,51.6489035 C40.7929516,51.6489035 42.8606216,51.2935644 44.6106216,50.2955176 C46.3606216,49.2974707 46.1106216,50.9474722 44.6106216,52.2955176 C43.1106216,53.6435629 41.3284587,54.6489035 38.2836905,54.6489035 C35.2968606,54.6489035 32.1366708,53.6122166 30.6366708,52.2689549 C29.1366708,50.9256932 29.3866708,49.270908 30.6366708,50.2689549 Z" transform="translate(37.717234, 52.306263) rotate(-5.000000) translate(-37.717234, -52.306263) "/><path d="M55.5466707,50.2689549 C56.7966707,51.2670018 59.8213706,51.6489035 63.1936903,51.6489035 C65.7029514,51.6489035 67.7706215,51.2935644 69.5206215,50.2955176 C71.2706215,49.2974707 71.0206215,50.9474722 69.5206215,52.2955176 C68.0206215,53.6435629 66.2384585,54.6489035 63.1936903,54.6489035 C60.2068605,54.6489035 57.0466707,53.6122166 55.5466707,52.2689549 C54.0466707,50.9256932 54.2966707,49.270908 55.5466707,50.2689549 Z" transform="translate(62.627234, 52.306263) scale(-1, 1) rotate(-5.000000) translate(-62.627234, -52.306263) "/><ellipse cx="49.7060609" cy="67.9648487" rx="3.70606085" ry="2.96484868"/><polygon points="50.2544922 29.0765625 55.1107422 23.8640625 50.4794922 23.8640625 50.4794922 22.0640625 57.7919922 22.0640625 57.7919922 24.0515625 52.9169922 29.2265625 58.0169922 29.2265625 58.0169922 31.0640625 50.2544922 31.0640625"/></g></g><text x="0" y="115" fill="#000000" font-size="5px" font-weight="bold" font-family="'Helvetica Neue', Helvetica, Arial-Unicode, Arial, Sans-serif">Created by Peter Emil van den Berg</text><text x="0" y="120" fill="#000000" font-size="5px" font-weight="bold" font-family="'Helvetica Neue', Helvetica, Arial-Unicode, Arial, Sans-serif">from the Noun Project</text></svg>