<?xml version="1.0" encoding="UTF-8" standalone="no"?>
<!DOCTYPE svg PUBLIC "-//W3C//DTD SVG 1.1//EN"
 "http://www.w3.org/Graphics/SVG/1.1/DTD/svg11.dtd">
<!-- Generated by graphviz version 2.40.1 (20161225.0304)
 -->
<!-- Title: G Pages: 1 -->
<svg width="286pt" height="150pt"
 viewBox="0.00 0.00 286.00 150.00" xmlns="http://www.w3.org/2000/svg" xmlns:xlink="http://www.w3.org/1999/xlink">
<g id="graph0" class="graph" transform="scale(1 1) rotate(0) translate(4 146)">
<title>G</title>
<!-- B -->
<g id="node1" class="node">
<title>B</title>
<ellipse fill="none" stroke="#ffffff" cx="251" cy="-83" rx="27" ry="18"/>
<text text-anchor="middle" x="251" y="-79.3" font-family="ubuntu" font-size="14.00" fill="#ffffff">B</text>
</g>
<!-- A -->
<g id="node2" class="node">
<title>A</title>
<ellipse fill="none" stroke="#ffffff" cx="27" cy="-58" rx="27" ry="18"/>
<text text-anchor="middle" x="27" y="-54.3" font-family="ubuntu" font-size="14.00" fill="#ffffff">A</text>
</g>
<!-- B&#45;&gt;A -->
<g id="edge1" class="edge">
<title>B&#45;&gt;A</title>
<path fill="none" stroke="#ffffff" d="M231.4058,-95.7937C223.7115,-100.4201 214.6608,-105.3883 206,-109 165.4996,-125.8892 150.1199,-133.3064 108,-121 84.264,-114.0649 62.4546,-96.1291 47.4607,-81.1608"/>
<polygon fill="#ffffff" stroke="#ffffff" points="49.7205,-78.4612 40.267,-73.6777 44.6742,-83.3124 49.7205,-78.4612"/>
<text text-anchor="middle" x="135" y="-130.8" font-family="ubuntu" font-size="14.00" fill="#ffffff">1฿</text>
</g>
<!-- C -->
<g id="node3" class="node">
<title>C</title>
<ellipse fill="none" stroke="#ffffff" cx="135" cy="-22" rx="27" ry="18"/>
<text text-anchor="middle" x="135" y="-18.3" font-family="ubuntu" font-size="14.00" fill="#ffffff">C</text>
</g>
<!-- A&#45;&gt;C -->
<g id="edge3" class="edge">
<title>A&#45;&gt;C</title>
<path fill="none" stroke="#ffffff" d="M51.2373,-49.9209C65.967,-45.011 84.9931,-38.669 101.1889,-33.2704"/>
<polygon fill="#ffffff" stroke="#ffffff" points="102.4636,-36.5349 110.8436,-30.0521 100.2499,-29.8941 102.4636,-36.5349"/>
<text text-anchor="middle" x="81" y="-46.8" font-family="ubuntu" font-size="14.00" fill="#ffffff">5฿</text>
</g>
<!-- D -->
<g id="node4" class="node">
<title>D</title>
<ellipse fill="none" stroke="#ffffff" cx="135" cy="-94" rx="27" ry="18"/>
<text text-anchor="middle" x="135" y="-90.3" font-family="ubuntu" font-size="14.00" fill="#ffffff">D</text>
</g>
<!-- A&#45;&gt;D -->
<g id="edge2" class="edge">
<title>A&#45;&gt;D</title>
<path fill="none" stroke="#ffffff" d="M51.2373,-66.0791C65.967,-70.989 84.9931,-77.331 101.1889,-82.7296"/>
<polygon fill="#ffffff" stroke="#ffffff" points="100.2499,-86.1059 110.8436,-85.9479 102.4636,-79.4651 100.2499,-86.1059"/>
<text text-anchor="middle" x="81" y="-82.8" font-family="ubuntu" font-size="14.00" fill="#ffffff">5฿</text>
</g>
<!-- C&#45;&gt;B -->
<g id="edge4" class="edge">
<title>C&#45;&gt;B</title>
<path fill="none" stroke="#ffffff" d="M156.2762,-33.1883C174.2319,-42.6305 200.1645,-56.2676 220.358,-66.8865"/>
<polygon fill="#ffffff" stroke="#ffffff" points="218.986,-70.1194 229.4659,-71.676 222.244,-63.9238 218.986,-70.1194"/>
<text text-anchor="middle" x="193" y="-61.8" font-family="ubuntu" font-size="14.00" fill="#ffffff">3฿</text>
</g>
<!-- E -->
<g id="node5" class="node">
<title>E</title>
<ellipse fill="none" stroke="#ffffff" cx="251" cy="-18" rx="27" ry="18"/>
<text text-anchor="middle" x="251" y="-14.3" font-family="ubuntu" font-size="14.00" fill="#ffffff">E</text>
</g>
<!-- C&#45;&gt;E -->
<g id="edge5" class="edge">
<title>C&#45;&gt;E</title>
<path fill="none" stroke="#ffffff" d="M162.1152,-19.9613C168.0082,-19.5828 174.2106,-19.2336 180,-19 190.9213,-18.5594 202.7943,-18.304 213.6497,-18.1584"/>
<polygon fill="#ffffff" stroke="#ffffff" points="213.7198,-21.658 223.6813,-18.05 213.6441,-14.6584 213.7198,-21.658"/>
<text text-anchor="middle" x="193" y="-22.8" font-family="ubuntu" font-size="14.00" fill="#ffffff">10฿</text>
</g>
<!-- D&#45;&gt;B -->
<g id="edge6" class="edge">
<title>D&#45;&gt;B</title>
<path fill="none" stroke="#ffffff" d="M161.9043,-91.4487C177.4234,-89.9771 197.1595,-88.1056 214.1101,-86.4982"/>
<polygon fill="#ffffff" stroke="#ffffff" points="214.6167,-89.9659 224.2416,-85.5374 213.9558,-82.9972 214.6167,-89.9659"/>
<text text-anchor="middle" x="193" y="-93.8" font-family="ubuntu" font-size="14.00" fill="#ffffff">1฿</text>
</g>
<!-- D&#45;&gt;C -->
<g id="edge7" class="edge">
<title>D&#45;&gt;C</title>
<path fill="none" stroke="#ffffff" d="M135,-75.5867C135,-67.9407 135,-58.8916 135,-50.4274"/>
<polygon fill="#ffffff" stroke="#ffffff" points="138.5001,-50.1686 135,-40.1686 131.5001,-50.1687 138.5001,-50.1686"/>
<text text-anchor="middle" x="124.5" y="-54.3" font-family="ubuntu" font-size="14.00" fill="#ffffff">4฿</text>
</g>
</g>
</svg>
