<?xml version="1.0" encoding="UTF-8" standalone="no"?>
<!DOCTYPE svg PUBLIC "-//W3C//DTD SVG 1.1//EN"
 "http://www.w3.org/Graphics/SVG/1.1/DTD/svg11.dtd">
<!-- Generated by graphviz version 2.40.1 (20161225.0304)
 -->
<!-- Title: G Pages: 1 -->
<svg width="286pt" height="149pt"
 viewBox="0.00 0.00 286.00 149.00" xmlns="http://www.w3.org/2000/svg" xmlns:xlink="http://www.w3.org/1999/xlink">
<g id="graph0" class="graph" transform="scale(1 1) rotate(0) translate(4 145)">
<title>G</title>
<!-- B -->
<g id="node1" class="node">
<title>B</title>
<ellipse fill="none" stroke="#ffffff" cx="251" cy="-83" rx="27" ry="18"/>
<text text-anchor="middle" x="251" y="-79.3" font-family="ubuntu" font-size="14.00" fill="#ffffff">B</text>
</g>
<!-- A -->
<g id="node2" class="node">
<title>A</title>
<ellipse fill="none" stroke="#ffffff" cx="27" cy="-67" rx="27" ry="18"/>
<text text-anchor="middle" x="27" y="-63.3" font-family="ubuntu" font-size="14.00" fill="#ffffff">A</text>
</g>
<!-- B&#45;&gt;A -->
<g id="edge1" class="edge">
<title>B&#45;&gt;A</title>
<path fill="none" stroke="#ffffff" d="M230.8649,-95.4279C223.2576,-99.7886 214.4063,-104.4737 206,-108 165.4833,-124.9961 150.5324,-132.0212 108,-121 86.3272,-115.384 65.3953,-101.121 50.2405,-88.6636"/>
<polygon fill="#ffffff" stroke="#ffffff" points="52.3211,-85.8375 42.4476,-81.995 47.7699,-91.156 52.3211,-85.8375"/>
<text text-anchor="middle" x="135" y="-129.8" font-family="ubuntu" font-size="14.00" fill="#ffffff">1฿</text>
</g>
<!-- C -->
<g id="node3" class="node">
<title>C</title>
<ellipse fill="none" stroke="#ffffff" cx="135" cy="-40" rx="27" ry="18"/>
<text text-anchor="middle" x="135" y="-36.3" font-family="ubuntu" font-size="14.00" fill="#ffffff">C</text>
</g>
<!-- A&#45;&gt;C -->
<g id="edge3" class="edge">
<title>A&#45;&gt;C</title>
<path fill="none" stroke="#ffffff" d="M52.3212,-60.6697C66.4369,-57.1408 84.2357,-52.6911 99.7002,-48.825"/>
<polygon fill="#ffffff" stroke="#ffffff" points="100.6107,-52.2051 109.4632,-46.3842 98.9129,-45.4141 100.6107,-52.2051"/>
<text text-anchor="middle" x="81" y="-58.8" font-family="ubuntu" font-size="14.00" fill="#ffffff">5฿</text>
</g>
<!-- D -->
<g id="node4" class="node">
<title>D</title>
<ellipse fill="none" stroke="#ffffff" cx="135" cy="-94" rx="27" ry="18"/>
<text text-anchor="middle" x="135" y="-90.3" font-family="ubuntu" font-size="14.00" fill="#ffffff">D</text>
</g>
<!-- A&#45;&gt;D -->
<g id="edge2" class="edge">
<title>A&#45;&gt;D</title>
<path fill="none" stroke="#ffffff" d="M52.3212,-73.3303C66.4369,-76.8592 84.2357,-81.3089 99.7002,-85.175"/>
<polygon fill="#ffffff" stroke="#ffffff" points="98.9129,-88.5859 109.4632,-87.6158 100.6107,-81.7949 98.9129,-88.5859"/>
<text text-anchor="middle" x="81" y="-85.8" font-family="ubuntu" font-size="14.00" fill="#ffffff">6฿</text>
</g>
<!-- C&#45;&gt;B -->
<g id="edge4" class="edge">
<title>C&#45;&gt;B</title>
<path fill="none" stroke="#ffffff" d="M158.7542,-48.8055C175.8006,-55.1244 198.9956,-63.7225 217.8618,-70.716"/>
<polygon fill="#ffffff" stroke="#ffffff" points="216.6845,-74.0123 227.2775,-74.2063 219.1175,-67.4487 216.6845,-74.0123"/>
<text text-anchor="middle" x="193" y="-68.8" font-family="ubuntu" font-size="14.00" fill="#ffffff">3฿</text>
</g>
<!-- E -->
<g id="node5" class="node">
<title>E</title>
<ellipse fill="none" stroke="#ffffff" cx="251" cy="-18" rx="27" ry="18"/>
<text text-anchor="middle" x="251" y="-14.3" font-family="ubuntu" font-size="14.00" fill="#ffffff">E</text>
</g>
<!-- C&#45;&gt;E -->
<g id="edge5" class="edge">
<title>C&#45;&gt;E</title>
<path fill="none" stroke="#ffffff" d="M155.8544,-28.0336C163.24,-24.4079 171.7647,-20.8879 180,-19 190.8359,-16.5159 202.848,-15.6578 213.863,-15.5884"/>
<polygon fill="#ffffff" stroke="#ffffff" points="213.9976,-19.0907 224.0473,-15.7362 214.0992,-12.0914 213.9976,-19.0907"/>
<text text-anchor="middle" x="193" y="-22.8" font-family="ubuntu" font-size="14.00" fill="#ffffff">10฿</text>
</g>
<!-- D&#45;&gt;B -->
<g id="edge6" class="edge">
<title>D&#45;&gt;B</title>
<path fill="none" stroke="#ffffff" d="M161.9043,-91.4487C177.4234,-89.9771 197.1595,-88.1056 214.1101,-86.4982"/>
<polygon fill="#ffffff" stroke="#ffffff" points="214.6167,-89.9659 224.2416,-85.5374 213.9558,-82.9972 214.6167,-89.9659"/>
<text text-anchor="middle" x="193" y="-92.8" font-family="ubuntu" font-size="14.00" fill="#ffffff">2฿</text>
</g>
</g>
</svg>
