<?xml version="1.0" encoding="UTF-8" standalone="no"?>
<!DOCTYPE svg PUBLIC "-//W3C//DTD SVG 1.1//EN"
 "http://www.w3.org/Graphics/SVG/1.1/DTD/svg11.dtd">
<!-- Generated by graphviz version 2.40.1 (20161225.0304)
 -->
<!-- Title: G Pages: 1 -->
<svg width="232pt" height="130pt"
 viewBox="0.00 0.00 231.58 130.00" xmlns="http://www.w3.org/2000/svg" xmlns:xlink="http://www.w3.org/1999/xlink">
<g id="graph0" class="graph" transform="scale(1 1) rotate(0) translate(4 126)">
<title>G</title>
<g id="clust1" class="cluster">
<title>cluster0</title>
</g>
<!-- Alice -->
<g id="node1" class="node">
<title>Alice</title>
<ellipse fill="none" stroke="#ffffff" cx="31.8472" cy="-88" rx="31.6951" ry="18"/>
<text text-anchor="middle" x="31.8472" y="-84.3" font-family="ubuntu" font-size="14.00" fill="#ffffff">Alice</text>
</g>
<!-- Corrupted -->
<g id="node2" class="node">
<title>Corrupted</title>
<ellipse fill="none" stroke="#ffffff" cx="153.6396" cy="-88" rx="53.8905" ry="18"/>
<text text-anchor="middle" x="153.6396" y="-84.3" font-family="ubuntu" font-size="14.00" fill="#ffffff">Corrupted</text>
</g>
<!-- Alice&#45;&gt;Corrupted -->
<g id="edge1" class="edge">
<title>Alice&#45;&gt;Corrupted</title>
<path fill="none" stroke="#ffffff" d="M62.0974,-93.9242C71.5537,-94.4812 82.3435,-94.7564 93.1177,-94.7499"/>
<polygon fill="#ffffff" stroke="#ffffff" points="93.4307,-98.2473 103.3988,-94.6573 93.3676,-91.2476 93.4307,-98.2473"/>
</g>
<!-- Corrupted&#45;&gt;Alice -->
<g id="edge2" class="edge">
<title>Corrupted&#45;&gt;Alice</title>
<path fill="none" stroke="#ffffff" d="M103.3988,-81.3427C92.9915,-81.1599 82.1556,-81.2474 72.1586,-81.6051"/>
<polygon fill="#ffffff" stroke="#ffffff" points="71.9229,-78.1122 62.0974,-82.0758 72.2501,-85.1046 71.9229,-78.1122"/>
</g>
<!-- Sybil -->
<g id="node3" class="node">
<title>Sybil</title>
<ellipse fill="none" stroke="#ffffff" cx="153.6396" cy="-34" rx="30.5947" ry="18"/>
<text text-anchor="middle" x="153.6396" y="-30.3" font-family="ubuntu" font-size="14.00" fill="#ffffff">Sybil</text>
</g>
<!-- Corrupted&#45;&gt;Sybil -->
<g id="edge3" class="edge">
<title>Corrupted&#45;&gt;Sybil</title>
<path fill="none" stroke="#ffffff" d="M133.9614,-71.1415C131.1384,-66.7129 130.1646,-62.2844 131.0398,-57.8558"/>
<polygon fill="#ffffff" stroke="#ffffff" points="134.2328,-59.2923 135.4331,-48.7656 127.9303,-56.2462 134.2328,-59.2923"/>
</g>
<!-- Sybil&#45;&gt;Alice -->
<g id="edge5" class="edge">
<title>Sybil&#45;&gt;Alice</title>
<path fill="none" stroke="#ffffff" d="M128.8905,-44.7014C117.5411,-49.6309 103.92,-55.5781 91.6943,-61 83.3666,-64.6932 74.4056,-68.712 66.0184,-72.4931"/>
<polygon fill="#ffffff" stroke="#ffffff" points="64.5298,-69.325 56.8571,-76.6311 67.4113,-75.7044 64.5298,-69.325"/>
</g>
<!-- Sybil&#45;&gt;Corrupted -->
<g id="edge4" class="edge">
<title>Sybil&#45;&gt;Corrupted</title>
<path fill="none" stroke="#ffffff" d="M171.846,-48.7656C175.0723,-52.9611 176.639,-57.1566 176.5461,-61.352"/>
<polygon fill="#ffffff" stroke="#ffffff" points="173.1258,-60.5484 173.3177,-71.1415 179.7736,-62.7408 173.1258,-60.5484"/>
</g>
</g>
</svg>
