<?xml version="1.0" encoding="UTF-8" standalone="no"?>
<!DOCTYPE svg PUBLIC "-//W3C//DTD SVG 1.1//EN"
 "http://www.w3.org/Graphics/SVG/1.1/DTD/svg11.dtd">
<!-- Generated by graphviz version 2.38.0 (20140413.2041)
 -->
<!-- Title: G Pages: 1 -->
<svg width="232pt" height="130pt"
 viewBox="0.00 0.00 231.58 130.00" xmlns="http://www.w3.org/2000/svg" xmlns:xlink="http://www.w3.org/1999/xlink">
<g id="graph0" class="graph" transform="scale(1 1) rotate(0) translate(4 126)">
<title>G</title>
<g id="clust1" class="cluster"><title>cluster0</title>
</g>
<!-- Alice -->
<g id="node1" class="node"><title>Alice</title>
<ellipse fill="none" stroke="white" cx="31.8472" cy="-88" rx="31.6951" ry="18"/>
<text text-anchor="middle" x="31.8472" y="-84.3" font-family="ubuntu" font-size="14.00" fill="white">Alice</text>
</g>
<!-- Corrupted -->
<g id="node2" class="node"><title>Corrupted</title>
<ellipse fill="none" stroke="white" cx="153.64" cy="-88" rx="53.8905" ry="18"/>
<text text-anchor="middle" x="153.64" y="-84.3" font-family="ubuntu" font-size="14.00" fill="white">Corrupted</text>
</g>
<!-- Alice&#45;&gt;Corrupted -->
<g id="edge1" class="edge"><title>Alice&#45;&gt;Corrupted</title>
<path fill="none" stroke="white" d="M62.2571,-93.9035C71.6122,-94.4727 82.3202,-94.7548 93.0166,-94.7499"/>
<polygon fill="white" stroke="white" points="93.256,-98.248 103.224,-94.6573 93.1924,-91.2483 93.256,-98.248"/>
</g>
<!-- Corrupted&#45;&gt;Alice -->
<g id="edge2" class="edge"><title>Corrupted&#45;&gt;Alice</title>
<path fill="none" stroke="white" d="M103.224,-81.3427C93.0005,-81.1602 82.3567,-81.2472 72.5343,-81.6038"/>
<polygon fill="white" stroke="white" points="72.078,-78.1215 62.2571,-82.0965 72.4133,-85.1135 72.078,-78.1215"/>
</g>
<!-- Sybil -->
<g id="node3" class="node"><title>Sybil</title>
<ellipse fill="none" stroke="white" cx="153.64" cy="-34" rx="29.795" ry="18"/>
<text text-anchor="middle" x="153.64" y="-30.3" font-family="ubuntu" font-size="14.00" fill="white">Sybil</text>
</g>
<!-- Corrupted&#45;&gt;Sybil -->
<g id="edge3" class="edge"><title>Corrupted&#45;&gt;Sybil</title>
<path fill="none" stroke="white" d="M134.38,-71.1415C131.617,-66.7129 130.664,-62.2844 131.521,-57.8558"/>
<polygon fill="white" stroke="white" points="134.708,-59.3019 135.82,-48.7656 128.381,-56.3087 134.708,-59.3019"/>
</g>
<!-- Sybil&#45;&gt;Alice -->
<g id="edge5" class="edge"><title>Sybil&#45;&gt;Alice</title>
<path fill="none" stroke="white" d="M128.874,-44.4421C117.593,-49.4211 103.932,-55.4821 91.6943,-61 83.5191,-64.6862 74.724,-68.6971 66.4894,-72.4724"/>
<polygon fill="white" stroke="white" points="64.7769,-69.4074 57.1509,-76.7624 67.699,-75.7683 64.7769,-69.4074"/>
</g>
<!-- Sybil&#45;&gt;Corrupted -->
<g id="edge4" class="edge"><title>Sybil&#45;&gt;Corrupted</title>
<path fill="none" stroke="white" d="M171.459,-48.7656C174.616,-52.9611 176.15,-57.1566 176.059,-61.352"/>
<polygon fill="white" stroke="white" points="172.64,-60.5498 172.899,-71.1415 179.302,-62.7 172.64,-60.5498"/>
</g>
</g>
</svg>
