<?xml version="1.0" encoding="UTF-8" standalone="no"?>
<!DOCTYPE svg PUBLIC "-//W3C//DTD SVG 1.1//EN"
 "http://www.w3.org/Graphics/SVG/1.1/DTD/svg11.dtd">
<!-- Generated by graphviz version 2.38.0 (20140413.2041)
 -->
<!-- Title: G Pages: 1 -->
<svg width="310pt" height="148pt"
 viewBox="0.00 0.00 310.00 148.00" xmlns="http://www.w3.org/2000/svg" xmlns:xlink="http://www.w3.org/1999/xlink">
<g id="graph0" class="graph" transform="scale(1 1) rotate(0) translate(4 144)">
<title>G</title>
<!-- B -->
<g id="node1" class="node"><title>B</title>
<ellipse fill="none" stroke="white" cx="275" cy="-83" rx="27" ry="18"/>
<text text-anchor="middle" x="275" y="-79.3" font-family="ubuntu" font-size="14.00" fill="white">B</text>
</g>
<!-- A -->
<g id="node2" class="node"><title>A</title>
<ellipse fill="none" stroke="white" cx="27" cy="-69" rx="27" ry="18"/>
<text text-anchor="middle" x="27" y="-65.3" font-family="ubuntu" font-size="14.00" fill="white">A</text>
</g>
<!-- B&#45;&gt;A -->
<g id="edge1" class="edge"><title>B&#45;&gt;A</title>
<path fill="none" stroke="white" d="M255.407,-95.7939C247.81,-100.532 238.761,-105.578 230,-109 184.192,-126.894 168.39,-129.775 120,-121 97.5816,-116.935 91.9032,-114.089 72,-103 65.1586,-99.1882 58.2346,-94.3779 51.9675,-89.5848"/>
<polygon fill="white" stroke="white" points="53.8998,-86.6493 43.8979,-83.1547 49.5375,-92.1238 53.8998,-86.6493"/>
<text text-anchor="middle" x="147" y="-128.8" font-family="ubuntu" font-size="14.00" fill="white">1m฿</text>
</g>
<!-- C -->
<g id="node3" class="node"><title>C</title>
<ellipse fill="none" stroke="white" cx="147" cy="-40" rx="27" ry="18"/>
<text text-anchor="middle" x="147" y="-36.3" font-family="ubuntu" font-size="14.00" fill="white">C</text>
</g>
<!-- A&#45;&gt;C -->
<g id="edge3" class="edge"><title>A&#45;&gt;C</title>
<path fill="none" stroke="white" d="M52.7367,-62.9206C69.729,-58.7446 92.524,-53.1424 111.324,-48.522"/>
<polygon fill="white" stroke="white" points="112.42,-51.8569 121.296,-46.0713 110.75,-45.0592 112.42,-51.8569"/>
<text text-anchor="middle" x="87" y="-60.8" font-family="ubuntu" font-size="14.00" fill="white">5m฿</text>
</g>
<!-- D -->
<g id="node4" class="node"><title>D</title>
<ellipse fill="none" stroke="white" cx="147" cy="-94" rx="27" ry="18"/>
<text text-anchor="middle" x="147" y="-90.3" font-family="ubuntu" font-size="14.00" fill="white">D</text>
</g>
<!-- A&#45;&gt;D -->
<g id="edge2" class="edge"><title>A&#45;&gt;D</title>
<path fill="none" stroke="white" d="M53.0248,-74.3019C69.9209,-77.8815 92.4561,-82.6559 111.109,-86.6078"/>
<polygon fill="white" stroke="white" points="110.503,-90.0571 121.011,-88.7058 111.954,-83.2091 110.503,-90.0571"/>
<text text-anchor="middle" x="87" y="-87.8" font-family="ubuntu" font-size="14.00" fill="white">6m฿</text>
</g>
<!-- C&#45;&gt;B -->
<g id="edge4" class="edge"><title>C&#45;&gt;B</title>
<path fill="none" stroke="white" d="M171.748,-47.6065C188.154,-52.9136 210.456,-60.2306 230,-67 233.591,-68.2437 237.337,-69.5667 241.063,-70.8986"/>
<polygon fill="white" stroke="white" points="240.161,-74.2941 250.756,-74.3967 242.538,-67.7098 240.161,-74.2941"/>
<text text-anchor="middle" x="211" y="-70.8" font-family="ubuntu" font-size="14.00" fill="white">3m฿</text>
</g>
<!-- E -->
<g id="node5" class="node"><title>E</title>
<ellipse fill="none" stroke="white" cx="275" cy="-18" rx="27" ry="18"/>
<text text-anchor="middle" x="275" y="-14.3" font-family="ubuntu" font-size="14.00" fill="white">E</text>
</g>
<!-- C&#45;&gt;E -->
<g id="edge5" class="edge"><title>C&#45;&gt;E</title>
<path fill="none" stroke="white" d="M167.92,-28.2478C175.239,-24.5436 183.756,-20.9194 192,-19 206.84,-15.5449 223.604,-14.8039 238.089,-15.1115"/>
<polygon fill="white" stroke="white" points="238.047,-18.6124 248.173,-15.4971 238.314,-11.6175 238.047,-18.6124"/>
<text text-anchor="middle" x="211" y="-22.8" font-family="ubuntu" font-size="14.00" fill="white">10m฿</text>
</g>
<!-- D&#45;&gt;B -->
<g id="edge6" class="edge"><title>D&#45;&gt;B</title>
<path fill="none" stroke="white" d="M173.802,-91.7474C192.195,-90.1417 217.179,-87.9606 237.597,-86.178"/>
<polygon fill="white" stroke="white" points="238.142,-89.6439 247.799,-85.2873 237.533,-82.6704 238.142,-89.6439"/>
<text text-anchor="middle" x="211" y="-93.8" font-family="ubuntu" font-size="14.00" fill="white">2m฿</text>
</g>
</g>
</svg>
