<?xml version="1.0" encoding="UTF-8" standalone="no"?>
<!DOCTYPE svg PUBLIC "-//W3C//DTD SVG 1.1//EN"
 "http://www.w3.org/Graphics/SVG/1.1/DTD/svg11.dtd">
<!-- Generated by graphviz version 2.40.1 (20161225.0304)
 -->
<!-- Title: G Pages: 1 -->
<svg width="278pt" height="149pt"
 viewBox="0.00 0.00 278.00 149.00" xmlns="http://www.w3.org/2000/svg" xmlns:xlink="http://www.w3.org/1999/xlink">
<g id="graph0" class="graph" transform="scale(1 1) rotate(0) translate(4 145)">
<title>G</title>
<!-- A -->
<g id="node1" class="node">
<title>A</title>
<ellipse fill="none" stroke="#ffffff" cx="27" cy="-72" rx="27" ry="18"/>
<text text-anchor="middle" x="27" y="-68.3" font-family="ubuntu" font-size="14.00" fill="#ffffff">A</text>
</g>
<!-- D -->
<g id="node2" class="node">
<title>D</title>
<ellipse fill="none" stroke="#ffffff" cx="135" cy="-123" rx="27" ry="18"/>
<text text-anchor="middle" x="135" y="-119.3" font-family="ubuntu" font-size="14.00" fill="#ffffff">D</text>
</g>
<!-- A&#45;&gt;D -->
<g id="edge1" class="edge">
<title>A&#45;&gt;D</title>
<path fill="none" stroke="#ffffff" d="M49.116,-82.4437C64.8412,-89.8694 86.1864,-99.9491 103.6627,-108.2018"/>
<polygon fill="#ffffff" stroke="#ffffff" points="102.3765,-111.465 112.9136,-112.5703 105.3656,-105.1353 102.3765,-111.465"/>
<text text-anchor="middle" x="81" y="-103.8" font-family="ubuntu" font-size="14.00" fill="#ffffff">6฿</text>
</g>
<!-- B -->
<g id="node3" class="node">
<title>B</title>
<ellipse fill="none" stroke="#ffffff" cx="243" cy="-72" rx="27" ry="18"/>
<text text-anchor="middle" x="243" y="-68.3" font-family="ubuntu" font-size="14.00" fill="#ffffff">B</text>
</g>
<!-- A&#45;&gt;B -->
<g id="edge2" class="edge">
<title>A&#45;&gt;B</title>
<path fill="none" stroke="#ffffff" d="M54.3565,-72C92.7403,-72 162.6983,-72 205.7878,-72"/>
<polygon fill="#ffffff" stroke="#ffffff" points="205.8656,-75.5001 215.8656,-72 205.8655,-68.5001 205.8656,-75.5001"/>
<text text-anchor="middle" x="135" y="-75.8" font-family="ubuntu" font-size="14.00" fill="#ffffff">4฿</text>
</g>
<!-- C -->
<g id="node4" class="node">
<title>C</title>
<ellipse fill="none" stroke="#ffffff" cx="135" cy="-18" rx="27" ry="18"/>
<text text-anchor="middle" x="135" y="-14.3" font-family="ubuntu" font-size="14.00" fill="#ffffff">C</text>
</g>
<!-- A&#45;&gt;C -->
<g id="edge3" class="edge">
<title>A&#45;&gt;C</title>
<path fill="none" stroke="#ffffff" d="M45.7805,-58.7332C53.6702,-53.4705 63.074,-47.5917 72,-43 81.339,-38.1959 91.8236,-33.7029 101.5198,-29.888"/>
<polygon fill="#ffffff" stroke="#ffffff" points="102.7884,-33.1501 110.8817,-26.3127 100.291,-26.6108 102.7884,-33.1501"/>
<text text-anchor="middle" x="81" y="-46.8" font-family="ubuntu" font-size="14.00" fill="#ffffff">5฿</text>
</g>
<!-- D&#45;&gt;B -->
<g id="edge5" class="edge">
<title>D&#45;&gt;B</title>
<path fill="none" stroke="#ffffff" d="M157.116,-112.5563C172.8412,-105.1306 194.1864,-95.0509 211.6627,-86.7982"/>
<polygon fill="#ffffff" stroke="#ffffff" points="213.3656,-89.8647 220.9136,-82.4297 210.3765,-83.535 213.3656,-89.8647"/>
<text text-anchor="middle" x="189" y="-103.8" font-family="ubuntu" font-size="14.00" fill="#ffffff">2฿</text>
</g>
<!-- C&#45;&gt;B -->
<g id="edge4" class="edge">
<title>C&#45;&gt;B</title>
<path fill="none" stroke="#ffffff" d="M159.1183,-26.3127C171.0594,-30.7421 185.548,-36.5945 198,-43 203.8577,-46.0133 209.9211,-49.5809 215.6274,-53.165"/>
<polygon fill="#ffffff" stroke="#ffffff" points="213.9242,-56.2318 224.2195,-58.7332 217.7311,-50.3576 213.9242,-56.2318"/>
<text text-anchor="middle" x="189" y="-46.8" font-family="ubuntu" font-size="14.00" fill="#ffffff">3฿</text>
</g>
</g>
</svg>
