<?xml version="1.0" encoding="UTF-8" standalone="no"?>
<!DOCTYPE svg PUBLIC "-//W3C//DTD SVG 1.1//EN"
 "http://www.w3.org/Graphics/SVG/1.1/DTD/svg11.dtd">
<!-- Generated by graphviz version 2.38.0 (20140413.2041)
 -->
<!-- Title: G Pages: 1 -->
<svg width="242pt" height="98pt"
 viewBox="0.00 0.00 242.00 98.00" xmlns="http://www.w3.org/2000/svg" xmlns:xlink="http://www.w3.org/1999/xlink">
<g id="graph0" class="graph" transform="scale(1 1) rotate(0) translate(4 94)">
<title>G</title>
<!-- A -->
<g id="node1" class="node"><title>A</title>
</g>
<!-- B -->
<g id="node2" class="node"><title>B</title>
</g>
<!-- A&#45;&gt;B -->
<g id="edge1" class="edge"><title>A&#45;&gt;B</title>
<path fill="none" stroke="white" d="M52.0464,-52.3779C61.4354,-55.2586 72.3623,-58.6112 82.4996,-61.7215"/>
<polygon fill="white" stroke="white" points="81.7006,-65.1373 92.2874,-64.7245 83.7539,-58.4452 81.7006,-65.1373"/>
</g>
<!-- C -->
<g id="node3" class="node"><title>C</title>
</g>
<!-- A&#45;&gt;C -->
<g id="edge2" class="edge"><title>A&#45;&gt;C</title>
<path fill="none" stroke="white" d="M52.0464,-37.6221C61.4354,-34.7414 72.3623,-31.3888 82.4996,-28.2785"/>
<polygon fill="white" stroke="white" points="83.7539,-31.5548 92.2874,-25.2755 81.7006,-24.8627 83.7539,-31.5548"/>
</g>
<!-- D -->
<g id="node4" class="node"><title>D</title>
</g>
<!-- B&#45;&gt;D -->
<g id="edge4" class="edge"><title>B&#45;&gt;D</title>
<path fill="none" stroke="white" d="M142.046,-64.6221C151.435,-61.7414 162.362,-58.3888 172.5,-55.2785"/>
<polygon fill="white" stroke="white" points="173.754,-58.5548 182.287,-52.2755 171.701,-51.8627 173.754,-58.5548"/>
</g>
<!-- C&#45;&gt;D -->
<g id="edge3" class="edge"><title>C&#45;&gt;D</title>
<path fill="none" stroke="white" d="M142.046,-25.3779C151.435,-28.2586 162.362,-31.6112 172.5,-34.7215"/>
<polygon fill="white" stroke="white" points="171.701,-38.1373 182.287,-37.7245 173.754,-31.4452 171.701,-38.1373"/>
</g>
</g>
</svg>
