<?xml version="1.0" encoding="UTF-8" standalone="no"?>
<!DOCTYPE svg PUBLIC "-//W3C//DTD SVG 1.1//EN"
 "http://www.w3.org/Graphics/SVG/1.1/DTD/svg11.dtd">
<!-- Generated by graphviz version 2.38.0 (20140413.2041)
 -->
<!-- Title: G Pages: 1 -->
<svg width="244pt" height="127pt"
 viewBox="0.00 0.00 244.00 127.22" xmlns="http://www.w3.org/2000/svg" xmlns:xlink="http://www.w3.org/1999/xlink">
<g id="graph0" class="graph" transform="scale(1 1) rotate(0) translate(4 123.216)">
<title>G</title>
<!-- A -->
<g id="node1" class="node"><title>A</title>
</g>
<!-- B -->
<g id="node2" class="node"><title>B</title>
</g>
<!-- A&#45;&gt;B -->
<g id="edge1" class="edge"><title>A&#45;&gt;B</title>
<path fill="none" stroke="white" d="M47.752,-59.2005C59.7354,-66.4713 75.2296,-75.8723 88.5224,-83.9376"/>
<polygon fill="white" stroke="white" points="86.9383,-87.0702 97.3032,-89.2653 90.5694,-81.0857 86.9383,-87.0702"/>
</g>
<!-- C -->
<g id="node3" class="node"><title>C</title>
</g>
<!-- A&#45;&gt;C -->
<g id="edge2" class="edge"><title>A&#45;&gt;C</title>
<path fill="none" stroke="white" d="M54.2216,-47.2161C62.5505,-47.2161 71.9135,-47.2161 80.8161,-47.2161"/>
<polygon fill="white" stroke="white" points="80.9659,-50.7162 90.9659,-47.2161 80.9658,-43.7162 80.9659,-50.7162"/>
</g>
<!-- D -->
<g id="node4" class="node"><title>D</title>
</g>
<!-- A&#45;&gt;D -->
<g id="edge5" class="edge"><title>A&#45;&gt;D</title>
<path fill="none" stroke="white" d="M43.7244,-32.8657C55.705,-22.9562 73.1347,-10.6253 91,-5.21611 113.97,1.7387 122.03,1.7387 145,-5.21611 159.236,-9.52656 173.196,-18.2323 184.342,-26.6056"/>
<polygon fill="white" stroke="white" points="182.257,-29.4186 192.276,-32.8657 186.593,-23.9234 182.257,-29.4186"/>
<text text-anchor="middle" x="118" y="-9.01611" font-family="ubuntu" font-size="14.00" fill="white">10m฿</text>
</g>
<!-- B&#45;&gt;D -->
<g id="edge4" class="edge"><title>B&#45;&gt;D</title>
<path fill="none" stroke="white" d="M138.752,-89.2318C150.735,-81.9609 166.23,-72.56 179.522,-64.4947"/>
<polygon fill="white" stroke="white" points="181.569,-67.3466 188.303,-59.167 177.938,-61.362 181.569,-67.3466"/>
</g>
<!-- C&#45;&gt;D -->
<g id="edge3" class="edge"><title>C&#45;&gt;D</title>
<path fill="none" stroke="white" d="M145.222,-47.2161C153.551,-47.2161 162.914,-47.2161 171.816,-47.2161"/>
<polygon fill="white" stroke="white" points="171.966,-50.7162 181.966,-47.2161 171.966,-43.7162 171.966,-50.7162"/>
</g>
</g>
</svg>
