<?xml version="1.0" encoding="UTF-8" standalone="no"?>
<!DOCTYPE svg PUBLIC "-//W3C//DTD SVG 1.1//EN"
 "http://www.w3.org/Graphics/SVG/1.1/DTD/svg11.dtd">
<!-- Generated by graphviz version 2.40.1 (20161225.0304)
 -->
<!-- Title: G Pages: 1 -->
<svg width="244pt" height="127pt"
 viewBox="0.00 0.00 244.00 127.15" xmlns="http://www.w3.org/2000/svg" xmlns:xlink="http://www.w3.org/1999/xlink">
<g id="graph0" class="graph" transform="scale(1 1) rotate(0) translate(4 123.1537)">
<title>G</title>
<!-- A -->
<g id="node1" class="node">
<title>A</title>
</g>
<!-- B -->
<g id="node2" class="node">
<title>B</title>
</g>
<!-- A&#45;&gt;B -->
<g id="edge1" class="edge">
<title>A&#45;&gt;B</title>
<path fill="none" stroke="#ffffff" d="M47.1958,-59.138C59.3635,-66.3584 75.0711,-75.6793 88.599,-83.7069"/>
<polygon fill="#ffffff" stroke="#ffffff" points="87.1599,-86.9228 97.5459,-89.0161 90.7322,-80.9029 87.1599,-86.9228"/>
</g>
<!-- C -->
<g id="node3" class="node">
<title>C</title>
</g>
<!-- A&#45;&gt;C -->
<g id="edge2" class="edge">
<title>A&#45;&gt;C</title>
<path fill="none" stroke="#ffffff" d="M54.303,-47.1537C62.5813,-47.1537 71.8217,-47.1537 80.6405,-47.1537"/>
<polygon fill="#ffffff" stroke="#ffffff" points="80.7163,-50.6538 90.7163,-47.1537 80.7162,-43.6538 80.7163,-50.6538"/>
</g>
<!-- D -->
<g id="node4" class="node">
<title>D</title>
</g>
<!-- A&#45;&gt;D -->
<g id="edge5" class="edge">
<title>A&#45;&gt;D</title>
<path fill="none" stroke="#ffffff" d="M43.2723,-32.59C55.454,-22.7151 73.0455,-10.5189 91,-5.1537 113.9953,1.7179 122.0047,1.7179 145,-5.1537 159.3075,-9.4291 173.3845,-18.0422 184.6772,-26.3618"/>
<polygon fill="#ffffff" stroke="#ffffff" points="182.6767,-29.2393 192.7277,-32.59 186.9599,-23.7027 182.6767,-29.2393"/>
<text text-anchor="middle" x="118" y="-8.9537" font-family="ubuntu" font-size="14.00" fill="#ffffff">10฿</text>
</g>
<!-- B&#45;&gt;D -->
<g id="edge4" class="edge">
<title>B&#45;&gt;D</title>
<path fill="none" stroke="#ffffff" d="M138.1958,-89.1693C150.3635,-81.949 166.0711,-72.628 179.599,-64.6004"/>
<polygon fill="#ffffff" stroke="#ffffff" points="181.7322,-67.4044 188.5459,-59.2912 178.1599,-61.3845 181.7322,-67.4044"/>
</g>
<!-- C&#45;&gt;D -->
<g id="edge3" class="edge">
<title>C&#45;&gt;D</title>
<path fill="none" stroke="#ffffff" d="M145.303,-47.1537C153.5813,-47.1537 162.8217,-47.1537 171.6405,-47.1537"/>
<polygon fill="#ffffff" stroke="#ffffff" points="171.7163,-50.6538 181.7163,-47.1537 171.7162,-43.6538 171.7163,-50.6538"/>
</g>
</g>
</svg>
