<?xml version="1.0" encoding="UTF-8" standalone="no"?>
<!DOCTYPE svg PUBLIC "-//W3C//DTD SVG 1.1//EN"
 "http://www.w3.org/Graphics/SVG/1.1/DTD/svg11.dtd">
<!-- Generated by graphviz version 2.40.1 (20161225.0304)
 -->
<!-- Title: G Pages: 1 -->
<svg width="242pt" height="98pt"
 viewBox="0.00 0.00 242.00 98.00" xmlns="http://www.w3.org/2000/svg" xmlns:xlink="http://www.w3.org/1999/xlink">
<g id="graph0" class="graph" transform="scale(1 1) rotate(0) translate(4 94)">
<title>G</title>
<!-- A -->
<g id="node1" class="node">
<title>A</title>
</g>
<!-- B -->
<g id="node2" class="node">
<title>B</title>
</g>
<!-- A&#45;&gt;B -->
<g id="edge1" class="edge">
<title>A&#45;&gt;B</title>
<path fill="none" stroke="#ffffff" d="M52.07,-52.521C61.5102,-55.3531 72.4169,-58.6251 82.564,-61.6692"/>
<polygon fill="#ffffff" stroke="#ffffff" points="81.7915,-65.0915 92.3755,-64.6126 83.803,-58.3867 81.7915,-65.0915"/>
</g>
<!-- C -->
<g id="node3" class="node">
<title>C</title>
</g>
<!-- A&#45;&gt;C -->
<g id="edge2" class="edge">
<title>A&#45;&gt;C</title>
<path fill="none" stroke="#ffffff" d="M52.07,-37.479C61.5102,-34.6469 72.4169,-31.3749 82.564,-28.3308"/>
<polygon fill="#ffffff" stroke="#ffffff" points="83.803,-31.6133 92.3755,-25.3874 81.7915,-24.9085 83.803,-31.6133"/>
</g>
<!-- D -->
<g id="node4" class="node">
<title>D</title>
</g>
<!-- B&#45;&gt;D -->
<g id="edge4" class="edge">
<title>B&#45;&gt;D</title>
<path fill="none" stroke="#ffffff" d="M142.07,-64.479C151.5102,-61.6469 162.4169,-58.3749 172.564,-55.3308"/>
<polygon fill="#ffffff" stroke="#ffffff" points="173.803,-58.6133 182.3755,-52.3874 171.7915,-51.9085 173.803,-58.6133"/>
</g>
<!-- C&#45;&gt;D -->
<g id="edge3" class="edge">
<title>C&#45;&gt;D</title>
<path fill="none" stroke="#ffffff" d="M142.07,-25.521C151.5102,-28.3531 162.4169,-31.6251 172.564,-34.6692"/>
<polygon fill="#ffffff" stroke="#ffffff" points="171.7915,-38.0915 182.3755,-37.6126 173.803,-31.3867 171.7915,-38.0915"/>
</g>
</g>
</svg>
