<?xml version="1.0" encoding="UTF-8" standalone="no"?>
<!DOCTYPE svg PUBLIC "-//W3C//DTD SVG 1.1//EN"
 "http://www.w3.org/Graphics/SVG/1.1/DTD/svg11.dtd">
<!-- Generated by graphviz version 2.38.0 (20140413.2041)
 -->
<!-- Title: G Pages: 1 -->
<svg width="310pt" height="150pt"
 viewBox="0.00 0.00 310.00 150.00" xmlns="http://www.w3.org/2000/svg" xmlns:xlink="http://www.w3.org/1999/xlink">
<g id="graph0" class="graph" transform="scale(1 1) rotate(0) translate(4 146)">
<title>G</title>
<!-- B -->
<g id="node1" class="node"><title>B</title>
<ellipse fill="none" stroke="white" cx="275" cy="-83" rx="27" ry="18"/>
<text text-anchor="middle" x="275" y="-79.3" font-family="ubuntu" font-size="14.00" fill="white">B</text>
</g>
<!-- A -->
<g id="node2" class="node"><title>A</title>
<ellipse fill="none" stroke="white" cx="27" cy="-55" rx="27" ry="18"/>
<text text-anchor="middle" x="27" y="-51.3" font-family="ubuntu" font-size="14.00" fill="white">A</text>
</g>
<!-- B&#45;&gt;A -->
<g id="edge1" class="edge"><title>B&#45;&gt;A</title>
<path fill="none" stroke="white" d="M255.927,-96.109C248.257,-101.125 239.017,-106.48 230,-110 184.231,-127.867 168.003,-131.477 120,-121 97.0724,-115.996 91.2674,-112.397 72,-99 63.5323,-93.1122 55.261,-85.4966 48.2173,-78.2607"/>
<polygon fill="white" stroke="white" points="50.4923,-75.5693 41.1047,-70.6578 45.3804,-80.3515 50.4923,-75.5693"/>
<text text-anchor="middle" x="147" y="-130.8" font-family="ubuntu" font-size="14.00" fill="white">1m฿</text>
</g>
<!-- C -->
<g id="node3" class="node"><title>C</title>
<ellipse fill="none" stroke="white" cx="147" cy="-22" rx="27" ry="18"/>
<text text-anchor="middle" x="147" y="-18.3" font-family="ubuntu" font-size="14.00" fill="white">C</text>
</g>
<!-- A&#45;&gt;C -->
<g id="edge3" class="edge"><title>A&#45;&gt;C</title>
<path fill="none" stroke="white" d="M52.1638,-48.2423C69.4245,-43.4152 92.8826,-36.8549 112.026,-31.5012"/>
<polygon fill="white" stroke="white" points="113.181,-34.8127 121.869,-28.7486 111.295,-28.0713 113.181,-34.8127"/>
<text text-anchor="middle" x="87" y="-46.8" font-family="ubuntu" font-size="14.00" fill="white">5m฿</text>
</g>
<!-- D -->
<g id="node4" class="node"><title>D</title>
<ellipse fill="white" stroke="white" cx="147" cy="-94" rx="27" ry="18"/>
<text text-anchor="middle" x="147" y="-90.3" font-family="ubuntu" font-size="14.00">D</text>
</g>
<!-- A&#45;&gt;D -->
<g id="edge2" class="edge"><title>A&#45;&gt;D</title>
<path fill="none" stroke="white" d="M51.5955,-62.7985C69.1211,-68.5909 93.2605,-76.5691 112.742,-83.008"/>
<polygon fill="white" stroke="white" points="111.852,-86.4 122.445,-86.215 114.049,-79.7536 111.852,-86.4"/>
<text text-anchor="middle" x="87" y="-83.8" font-family="ubuntu" font-size="14.00" fill="white">5m฿</text>
</g>
<!-- C&#45;&gt;B -->
<g id="edge4" class="edge"><title>C&#45;&gt;B</title>
<path fill="none" stroke="white" d="M169.374,-32.3478C189.648,-42.1628 220.331,-57.0174 243.235,-68.1056"/>
<polygon fill="white" stroke="white" points="241.995,-71.3941 252.521,-72.6014 245.045,-65.0936 241.995,-71.3941"/>
<text text-anchor="middle" x="211" y="-65.8" font-family="ubuntu" font-size="14.00" fill="white">3m฿</text>
</g>
<!-- E -->
<g id="node5" class="node"><title>E</title>
<ellipse fill="none" stroke="white" cx="275" cy="-18" rx="27" ry="18"/>
<text text-anchor="middle" x="275" y="-14.3" font-family="ubuntu" font-size="14.00" fill="white">E</text>
</g>
<!-- C&#45;&gt;E -->
<g id="edge5" class="edge"><title>C&#45;&gt;E</title>
<path fill="none" stroke="white" d="M174.045,-19.9825C179.946,-19.5927 186.186,-19.2335 192,-19 206.85,-18.4037 223.224,-18.1274 237.41,-18.0093"/>
<polygon fill="white" stroke="white" points="237.792,-21.5072 247.77,-17.9472 237.75,-14.5073 237.792,-21.5072"/>
<text text-anchor="middle" x="211" y="-22.8" font-family="ubuntu" font-size="14.00" fill="white">10m฿</text>
</g>
<!-- D&#45;&gt;B -->
<g id="edge6" class="edge"><title>D&#45;&gt;B</title>
<path fill="none" stroke="white" d="M173.802,-91.7474C192.195,-90.1417 217.179,-87.9606 237.597,-86.178"/>
<polygon fill="white" stroke="white" points="238.142,-89.6439 247.799,-85.2873 237.533,-82.6704 238.142,-89.6439"/>
<text text-anchor="middle" x="211" y="-94.8" font-family="ubuntu" font-size="14.00" fill="white">2m฿</text>
</g>
<!-- D&#45;&gt;C -->
<g id="edge7" class="edge"><title>D&#45;&gt;C</title>
<path fill="none" stroke="green" d="M147,-75.8594C147,-67.2681 147,-58.6768 147,-50.0854"/>
<polygon fill="green" stroke="green" points="150.5,-50 147,-40 143.5,-50 150.5,-50"/>
</g>
</g>
</svg>
