<?xml version="1.0" encoding="UTF-8" standalone="no"?>
<!DOCTYPE svg PUBLIC "-//W3C//DTD SVG 1.1//EN"
 "http://www.w3.org/Graphics/SVG/1.1/DTD/svg11.dtd">
<!-- Generated by graphviz version 2.38.0 (20140413.2041)
 -->
<!-- Title: G Pages: 1 -->
<svg width="310pt" height="143pt"
 viewBox="0.00 0.00 310.00 143.00" xmlns="http://www.w3.org/2000/svg" xmlns:xlink="http://www.w3.org/1999/xlink">
<g id="graph0" class="graph" transform="scale(1 1) rotate(0) translate(4 139)">
<title>G</title>
<!-- B -->
<g id="node1" class="node"><title>B</title>
<ellipse fill="none" stroke="white" cx="275" cy="-80" rx="27" ry="18"/>
<text text-anchor="middle" x="275" y="-76.3" font-family="ubuntu" font-size="14.00" fill="white">B</text>
</g>
<!-- A -->
<g id="node2" class="node"><title>A</title>
<ellipse fill="none" stroke="white" cx="27" cy="-51" rx="27" ry="18"/>
<text text-anchor="middle" x="27" y="-47.3" font-family="ubuntu" font-size="14.00" fill="white">A</text>
</g>
<!-- B&#45;&gt;A -->
<g id="edge1" class="edge"><title>B&#45;&gt;A</title>
<path fill="none" stroke="white" d="M253.14,-91.1181C223.592,-105.472 167.819,-127.437 120,-117 97.0724,-111.996 91.2674,-108.397 72,-95 63.5323,-89.1122 55.261,-81.4966 48.2173,-74.2607"/>
<polygon fill="white" stroke="white" points="50.4923,-71.5693 41.1047,-66.6578 45.3804,-76.3515 50.4923,-71.5693"/>
<text text-anchor="middle" x="147" y="-123.8" font-family="ubuntu" font-size="14.00" fill="white">1m฿</text>
</g>
<!-- C -->
<g id="node3" class="node"><title>C</title>
<ellipse fill="none" stroke="white" cx="147" cy="-18" rx="27" ry="18"/>
<text text-anchor="middle" x="147" y="-14.3" font-family="ubuntu" font-size="14.00" fill="white">C</text>
</g>
<!-- A&#45;&gt;C -->
<g id="edge3" class="edge"><title>A&#45;&gt;C</title>
<path fill="none" stroke="white" d="M52.1638,-44.2423C69.4245,-39.4152 92.8826,-32.8549 112.026,-27.5012"/>
<polygon fill="white" stroke="white" points="113.181,-30.8127 121.869,-24.7486 111.295,-24.0713 113.181,-30.8127"/>
<text text-anchor="middle" x="87" y="-42.8" font-family="ubuntu" font-size="14.00" fill="white">5m฿</text>
</g>
<!-- D -->
<g id="node4" class="node"><title>D</title>
<ellipse fill="white" stroke="white" cx="147" cy="-90" rx="27" ry="18"/>
<text text-anchor="middle" x="147" y="-86.3" font-family="ubuntu" font-size="14.00">D</text>
</g>
<!-- A&#45;&gt;D -->
<g id="edge2" class="edge"><title>A&#45;&gt;D</title>
<path fill="none" stroke="white" d="M51.5955,-58.7985C69.1211,-64.5909 93.2605,-72.5691 112.742,-79.008"/>
<polygon fill="white" stroke="white" points="111.852,-82.4 122.445,-82.215 114.049,-75.7536 111.852,-82.4"/>
<text text-anchor="middle" x="87" y="-79.8" font-family="ubuntu" font-size="14.00" fill="white">5m฿</text>
</g>
<!-- C&#45;&gt;B -->
<g id="edge4" class="edge"><title>C&#45;&gt;B</title>
<path fill="none" stroke="white" d="M169.09,-28.3774C189.532,-38.4364 220.749,-53.797 243.819,-65.1492"/>
<polygon fill="white" stroke="white" points="242.324,-68.314 252.842,-69.5887 245.414,-62.0332 242.324,-68.314"/>
<text text-anchor="middle" x="211" y="-62.8" font-family="ubuntu" font-size="14.00" fill="white">3m฿</text>
</g>
<!-- E -->
<g id="node5" class="node"><title>E</title>
<ellipse fill="none" stroke="white" cx="275" cy="-18" rx="27" ry="18"/>
<text text-anchor="middle" x="275" y="-14.3" font-family="ubuntu" font-size="14.00" fill="white">E</text>
</g>
<!-- C&#45;&gt;E -->
<g id="edge5" class="edge"><title>C&#45;&gt;E</title>
<path fill="none" stroke="white" d="M174.107,-18C192.522,-18 217.43,-18 237.767,-18"/>
<polygon fill="white" stroke="white" points="237.926,-21.5001 247.926,-18 237.926,-14.5001 237.926,-21.5001"/>
<text text-anchor="middle" x="211" y="-21.8" font-family="ubuntu" font-size="14.00" fill="white">10m฿</text>
</g>
<!-- D&#45;&gt;B -->
<g id="edge6" class="edge"><title>D&#45;&gt;B</title>
<path fill="none" stroke="green" d="M174.107,-87.928C192.522,-86.4665 217.43,-84.4897 237.767,-82.8757"/>
<polygon fill="green" stroke="green" points="238.234,-86.3496 247.926,-82.0694 237.681,-79.3716 238.234,-86.3496"/>
</g>
<!-- D&#45;&gt;C -->
<g id="edge7" class="edge"><title>D&#45;&gt;C</title>
<path fill="none" stroke="white" d="M147,-71.5867C147,-63.9407 147,-54.8916 147,-46.4274"/>
<polygon fill="white" stroke="white" points="150.5,-46.1686 147,-36.1686 143.5,-46.1687 150.5,-46.1686"/>
<text text-anchor="middle" x="136.5" y="-50.3" font-family="ubuntu" font-size="14.00" fill="white">4m฿</text>
</g>
</g>
</svg>
