<?xml version="1.0" standalone="yes"?>

<svg version="1.1" viewBox="0.0 0.0 585.9448818897638 511.8608923884514" fill="none" stroke="none" stroke-linecap="square" stroke-miterlimit="10" xmlns="http://www.w3.org/2000/svg" xmlns:xlink="http://www.w3.org/1999/xlink"><clipPath id="p.0"><path d="m0 0l585.9449 0l0 511.8609l-585.9449 0l0 -511.8609z" clip-rule="nonzero"></path></clipPath><g clip-path="url(#p.0)"><path fill="#000000" fill-opacity="0.0" d="m0 0l585.9449 0l0 511.8609l-585.9449 0z" fill-rule="evenodd"></path><path fill="#000000" fill-opacity="0.0" d="m341.77188 316.11823l130.51968 72.44095l-27.086609 48.787415l-130.51968 -72.44095z" fill-rule="evenodd"></path><path fill="#000000" d="m359.52792 365.54514l-2.0765991 -1.1525269l7.341736 -13.223663q-1.1533813 0.30697632 -2.7636719 0.34249878q-1.6102905 0.03552246 -2.7774658 -0.14767456l1.1148987 -2.0081177q2.1961975 0.1645813 4.138733 -0.27624512q1.9501343 -0.4544983 3.103363 -1.2440491l1.3388672 0.743103l-9.419861 16.966675zm9.7742 -5.4759827q1.6610107 -2.9917297 3.2920837 -4.4810486q1.6311035 -1.4893188 3.393097 -1.7980652q1.7695618 -0.3223877 3.6138916 0.7012634q1.3661804 0.75827026 2.0874634 1.8733826q0.72125244 1.1151428 0.81427 2.5249023q0.10058594 1.3960876 -0.35723877 3.0898438q-0.43658447 1.6876831 -1.8321228 4.2012634q-1.6534119 2.9780579 -3.2845154 4.4673767q-1.6098328 1.4832764 -3.3793945 1.8056641q-1.7695618 0.3223877 -3.627594 -0.7088623q-2.445465 -1.3572693 -2.868164 -3.8792725q-0.4911499 -3.042511 2.1482239 -7.7964478zm2.131256 1.1828918q-2.313263 4.1665344 -2.1092834 6.0846252q0.21154785 1.9044495 1.6460266 2.7006226q1.4345093 0.7961731 3.1705017 -0.04522705q1.736023 -0.8413696 4.041687 -4.994232q2.313263 -4.166565 2.101715 -6.070984q-0.20397949 -1.9181213 -1.6657715 -2.7294617q-1.4208374 -0.7885742 -2.9489746 -0.06411743q-1.9226379 0.9522095 -4.235901 5.1187744zm13.431366 18.35553l9.381958 -16.898376l6.339081 3.5183105q1.9263 1.0691223 2.8130188 2.2403564q0.8942871 1.1575317 0.9584656 2.5870361q0.07785034 1.4371033 -0.5668335 2.5982666q-0.6067505 1.092865 -1.7250977 1.723053q-1.1183777 0.6302185 -2.6330872 0.5579529q1.2798462 1.3000488 1.5003662 2.834198q0.23422241 1.541748 -0.5848999 3.0171204q-0.6598511 1.1884766 -1.7341614 1.9324951q-1.0743408 0.74398804 -2.1230469 0.8946228q-1.0411072 0.13696289 -2.3206482 -0.1979065q-1.2583008 -0.3409729 -2.8703918 -1.2357178l-6.434723 -3.5714111zm7.664917 -8.558807l3.661377 2.0321045q1.4891357 0.82650757 2.244995 0.9779968q0.983551 0.22421265 1.7468872 -0.12054443q0.76330566 -0.3447876 1.2562866 -1.232727q0.47021484 -0.84698486 0.40927124 -1.7028503q-0.05340576 -0.86953735 -0.6758728 -1.5187988q-0.6011963 -0.655365 -2.4318848 -1.6714172l-3.3744812 -1.8728943l-2.8365784 5.109131zm-4.3306885 7.800293l4.2078247 2.3354492q1.0929565 0.6065979 1.5756226 0.76727295q0.84091187 0.2880249 1.5345154 0.2619629q0.7011719 -0.039733887 1.3703613 -0.47247314q0.6904297 -0.43884277 1.1379089 -1.2448425q0.5233154 -0.9425659 0.41830444 -1.912262q-0.09136963 -0.96206665 -0.8003845 -1.7130127q-0.701416 -0.7645569 -2.313507 -1.6593018l-3.9072876 -2.1686096l-3.2233582 5.8058167zm16.596863 11.820648l8.274597 -14.903931l-5.560364 -3.08609l1.1073303 -1.9944763l13.38858 7.430908l-1.1073303 1.9944763l-5.587677 -3.1012573l-8.274597 14.9039l-2.2405396 -1.2435303zm25.288422 6.2798767l1.9219971 1.8172913q-2.2348938 2.3515015 -4.869507 2.7835083q-2.6209717 0.43954468 -5.2713623 -1.0314636q-2.7323608 -1.51651 -3.8257751 -3.5708618q-1.0857849 -2.0680237 -0.819458 -4.6722107q0.28756714 -2.6102905 1.6300049 -5.0282593q1.4637756 -2.6365356 3.566925 -4.042572q2.103119 -1.4060364 4.5223694 -1.3857117q2.4268494 0.006652832 4.667389 1.2502136q2.5411072 1.4103394 3.5419617 3.6635437q1.0221252 2.2471008 0.3946228 4.9546204l-2.4877625 -0.70166016q0.43643188 -2.1702576 -0.2211914 -3.6253357q-0.63638306 -1.4611816 -2.3304443 -2.4013977q-1.9536438 -1.0843201 -3.7884827 -0.8696594q-1.8272705 0.20101929 -3.2322998 1.4762878q-1.3913574 1.2828369 -2.3166504 2.949463q-1.1983643 2.1584167 -1.4648743 4.119171q-0.26651 1.9607849 0.6187744 3.488617q0.88531494 1.527832 2.4291077 2.384674q1.8716431 1.0387878 3.7687073 0.67993164q1.9182739 -0.3649292 3.5659485 -2.2381897z" fill-rule="nonzero"></path><path fill="#ffffff" d="m50.769028 192.74803l0 0c0 -21.343414 17.30931 -38.645676 38.661415 -38.645676l0 0c10.253647 0 20.087334 4.071594 27.337753 11.319061c7.2504196 7.247467 11.323662 17.077148 11.323662 27.326614l0 0c0 21.343414 -17.309303 38.645676 -38.661415 38.645676l0 0c-21.352104 0 -38.661415 -17.302261 -38.661415 -38.645676z" fill-rule="evenodd"></path><path stroke="#000000" stroke-width="1.0" stroke-linejoin="round" stroke-linecap="butt" d="m50.769028 192.74803l0 0c0 -21.343414 17.30931 -38.645676 38.661415 -38.645676l0 0c10.253647 0 20.087334 4.071594 27.337753 11.319061c7.2504196 7.247467 11.323662 17.077148 11.323662 27.326614l0 0c0 21.343414 -17.309303 38.645676 -38.661415 38.645676l0 0c-21.352104 0 -38.661415 -17.302261 -38.661415 -38.645676z" fill-rule="evenodd"></path><path fill="#000000" d="m78.71169 204.46803l8.796875 -22.90625l3.265625 0l9.375 22.90625l-3.453125 0l-2.671875 -6.9375l-9.578125 0l-2.515625 6.9375l-3.21875 0zm6.609375 -9.40625l7.765625 0l-2.390625 -6.34375q-1.09375 -2.890625 -1.625 -4.75q-0.4375 2.203125 -1.234375 4.375l-2.515625 6.71875z" fill-rule="nonzero"></path><path fill="#ffffff" d="m461.16473 192.74803l0 0c0 -21.343414 17.309326 -38.645676 38.661438 -38.645676l0 0c10.253632 0 20.087341 4.071594 27.337769 11.319061c7.2504272 7.247467 11.323669 17.077148 11.323669 27.326614l0 0c0 21.343414 -17.309326 38.645676 -38.661438 38.645676l0 0c-21.352112 0 -38.661438 -17.302261 -38.661438 -38.645676z" fill-rule="evenodd"></path><path stroke="#000000" stroke-width="1.0" stroke-linejoin="round" stroke-linecap="butt" d="m461.16473 192.74803l0 0c0 -21.343414 17.309326 -38.645676 38.661438 -38.645676l0 0c10.253632 0 20.087341 4.071594 27.337769 11.319061c7.2504272 7.247467 11.323669 17.077148 11.323669 27.326614l0 0c0 21.343414 -17.309326 38.645676 -38.661438 38.645676l0 0c-21.352112 0 -38.661438 -17.302261 -38.661438 -38.645676z" fill-rule="evenodd"></path><path fill="#000000" d="m491.49805 204.46803l0 -22.90625l8.59375 0q2.625 0 4.203125 0.703125q1.59375 0.6875 2.484375 2.140625q0.90625 1.4375 0.90625 3.015625q0 1.46875 -0.796875 2.765625q-0.796875 1.296875 -2.40625 2.09375q2.078125 0.609375 3.1875 2.078125q1.125 1.46875 1.125 3.46875q0 1.609375 -0.6875 3.0q-0.671875 1.375 -1.671875 2.125q-1.0 0.75 -2.515625 1.140625q-1.5 0.375 -3.6875 0.375l-8.734375 0zm3.03125 -13.28125l4.953125 0q2.015625 0 2.890625 -0.265625q1.15625 -0.34375 1.734375 -1.140625q0.59375 -0.796875 0.59375 -2.0q0 -1.140625 -0.546875 -2.0q-0.546875 -0.875 -1.5625 -1.1875q-1.015625 -0.328125 -3.484375 -0.328125l-4.578125 0l0 6.921875zm0 10.578125l5.703125 0q1.46875 0 2.0625 -0.109375q1.046875 -0.1875 1.75 -0.625q0.703125 -0.4375 1.15625 -1.265625q0.453125 -0.84375 0.453125 -1.9375q0 -1.28125 -0.65625 -2.21875q-0.65625 -0.953125 -1.828125 -1.328125q-1.15625 -0.390625 -3.34375 -0.390625l-5.296875 0l0 7.875z" fill-rule="nonzero"></path><path fill="#ffffff" d="m251.19524 63.3937l0 0c0 -21.343414 17.30931 -38.645668 38.661423 -38.645668l0 0c10.253632 0 20.08731 4.0715847 27.337738 11.319054c7.2504272 7.247471 11.323669 17.077148 11.323669 27.326614l0 0c0 21.343414 -17.309296 38.645668 -38.661407 38.645668l0 0c-21.352112 0 -38.661423 -17.302254 -38.661423 -38.645668z" fill-rule="evenodd"></path><path stroke="#000000" stroke-width="1.0" stroke-linejoin="round" stroke-linecap="butt" d="m251.19524 63.3937l0 0c0 -21.343414 17.30931 -38.645668 38.661423 -38.645668l0 0c10.253632 0 20.08731 4.0715847 27.337738 11.319054c7.2504272 7.247471 11.323669 17.077148 11.323669 27.326614l0 0c0 21.343414 -17.309296 38.645668 -38.661407 38.645668l0 0c-21.352112 0 -38.661423 -17.302254 -38.661423 -38.645668z" fill-rule="evenodd"></path><path fill="#000000" d="m280.77072 75.1137l0 -22.90625l7.890625 0q2.671875 0 4.078125 0.328125q1.96875 0.453125 3.359375 1.640625q1.8125 1.53125 2.703125 3.921875q0.90625 2.375 0.90625 5.4375q0 2.609375 -0.609375 4.625q-0.609375 2.015625 -1.5625 3.34375q-0.953125 1.3125 -2.09375 2.078125q-1.125 0.75 -2.734375 1.140625q-1.59375 0.390625 -3.671875 0.390625l-8.265625 0zm3.03125 -2.703125l4.890625 0q2.265625 0 3.546875 -0.421875q1.296875 -0.421875 2.0625 -1.1875q1.078125 -1.078125 1.671875 -2.890625q0.609375 -1.828125 0.609375 -4.421875q0 -3.59375 -1.1875 -5.515625q-1.171875 -1.9375 -2.859375 -2.59375q-1.21875 -0.46875 -3.921875 -0.46875l-4.8125 0l0 17.5z" fill-rule="nonzero"></path><path fill="#ffffff" d="m251.19524 326.34454l0 0c0 -21.343414 17.30931 -38.64566 38.661423 -38.64566l0 0c10.253632 0 20.08731 4.0715637 27.337738 11.319031c7.2504272 7.247467 11.323669 17.077148 11.323669 27.32663l0 0c0 21.343414 -17.309296 38.64566 -38.661407 38.64566l0 0c-21.352112 0 -38.661423 -17.302246 -38.661423 -38.64566z" fill-rule="evenodd"></path><path stroke="#000000" stroke-width="1.0" stroke-linejoin="round" stroke-linecap="butt" d="m251.19524 326.34454l0 0c0 -21.343414 17.30931 -38.64566 38.661423 -38.64566l0 0c10.253632 0 20.08731 4.0715637 27.337738 11.319031c7.2504272 7.247467 11.323669 17.077148 11.323669 27.32663l0 0c0 21.343414 -17.309296 38.64566 -38.661407 38.64566l0 0c-21.352112 0 -38.661423 -17.302246 -38.661423 -38.64566z" fill-rule="evenodd"></path><path fill="#000000" d="m297.11447 330.0333l3.03125 0.765625q-0.953125 3.734375 -3.4375 5.703125q-2.46875 1.953125 -6.046875 1.953125q-3.703125 0 -6.03125 -1.5q-2.3125 -1.515625 -3.53125 -4.375q-1.203125 -2.859375 -1.203125 -6.140625q0 -3.578125 1.359375 -6.234375q1.375 -2.671875 3.890625 -4.046875q2.53125 -1.390625 5.5625 -1.390625q3.4375 0 5.78125 1.75q2.34375 1.75 3.265625 4.921875l-2.984375 0.703125q-0.796875 -2.5 -2.3125 -3.640625q-1.515625 -1.140625 -3.8125 -1.140625q-2.640625 0 -4.421875 1.265625q-1.765625 1.265625 -2.484375 3.40625q-0.71875 2.125 -0.71875 4.390625q0 2.921875 0.84375 5.109375q0.859375 2.171875 2.65625 3.25q1.796875 1.078125 3.890625 1.078125q2.546875 0 4.3125 -1.46875q1.765625 -1.46875 2.390625 -4.359375z" fill-rule="nonzero"></path><path fill="#ffffff" d="m461.16473 431.00525l0 0c0 -21.343414 17.309326 -38.64566 38.661438 -38.64566l0 0c10.253632 0 20.087341 4.0715637 27.337769 11.319031c7.2504272 7.2474976 11.323669 17.077148 11.323669 27.32663l0 0c0 21.343414 -17.309326 38.64566 -38.661438 38.64566l0 0c-21.352112 0 -38.661438 -17.302246 -38.661438 -38.64566z" fill-rule="evenodd"></path><path stroke="#000000" stroke-width="1.0" stroke-linejoin="round" stroke-linecap="butt" d="m461.16473 431.00525l0 0c0 -21.343414 17.309326 -38.64566 38.661438 -38.64566l0 0c10.253632 0 20.087341 4.0715637 27.337769 11.319031c7.2504272 7.2474976 11.323669 17.077148 11.323669 27.32663l0 0c0 21.343414 -17.309326 38.64566 -38.661438 38.64566l0 0c-21.352112 0 -38.661438 -17.302246 -38.661438 -38.64566z" fill-rule="evenodd"></path><path fill="#000000" d="m491.68555 442.72525l0 -22.90625l16.5625 0l0 2.703125l-13.53125 0l0 7.015625l12.671875 0l0 2.6875l-12.671875 0l0 7.796875l14.0625 0l0 2.703125l-17.09375 0z" fill-rule="nonzero"></path><path fill="#000000" fill-opacity="0.0" d="m116.768196 165.42142l134.4252 -102.01575" fill-rule="evenodd"></path><path stroke="#000000" stroke-width="2.0" stroke-linejoin="round" stroke-linecap="butt" d="m116.768196 165.42142l124.86619 -94.76139" fill-rule="evenodd"></path><path fill="#000000" stroke="#000000" stroke-width="2.0" stroke-linecap="butt" d="m243.63144 73.291504l5.232895 -8.118309l-9.22699 2.8553467z" fill-rule="evenodd"></path><path fill="#000000" fill-opacity="0.0" d="m328.51807 63.3937l143.9685 102.015755" fill-rule="evenodd"></path><path stroke="#000000" stroke-width="2.0" stroke-linejoin="round" stroke-linecap="butt" d="m328.51807 63.3937l134.17743 95.07781" fill-rule="evenodd"></path><path fill="#000000" stroke="#000000" stroke-width="2.0" stroke-linecap="butt" d="m460.78558 161.16689l9.315399 2.5521393l-5.4955444 -7.942871z" fill-rule="evenodd"></path><path fill="#000000" fill-opacity="0.0" d="m116.768196 220.07465l134.4252 106.26773" fill-rule="evenodd"></path><path stroke="#000000" stroke-width="2.0" stroke-linejoin="round" stroke-linecap="butt" d="m116.768196 220.07465l125.01145 98.825836" fill-rule="evenodd"></path><path fill="#000000" stroke="#000000" stroke-width="2.0" stroke-linecap="butt" d="m239.73099 321.49197l9.168732 3.0371704l-5.071396 -8.220154z" fill-rule="evenodd"></path><path fill="#000000" fill-opacity="0.0" d="m328.51807 326.34454l143.9685 -106.267715" fill-rule="evenodd"></path><path stroke="#000000" stroke-width="2.0" stroke-linejoin="round" stroke-linecap="butt" d="m328.51807 326.34454l134.31378 -99.14128" fill-rule="evenodd"></path><path fill="#000000" stroke="#000000" stroke-width="2.0" stroke-linecap="butt" d="m464.7937 229.8611l5.340515 -8.047928l-9.264191 2.732254z" fill-rule="evenodd"></path><path fill="#000000" fill-opacity="0.0" d="m317.1944 353.67114l143.9685 77.322845" fill-rule="evenodd"></path><path stroke="#000000" stroke-width="2.0" stroke-linejoin="round" stroke-linecap="butt" d="m317.1944 353.67114l133.39676 71.64493" fill-rule="evenodd"></path><path fill="#000000" stroke="#000000" stroke-width="2.0" stroke-linecap="butt" d="m449.0281 428.22638l9.5589905 1.3841858l-6.432892 -7.204773z" fill-rule="evenodd"></path><path fill="#000000" fill-opacity="0.0" d="m461.16473 192.74803l-333.07086 0" fill-rule="evenodd"></path><path stroke="#000000" stroke-width="2.0" stroke-linejoin="round" stroke-linecap="butt" d="m461.16473 192.74803l-321.07086 0" fill-rule="evenodd"></path><path fill="#000000" stroke="#000000" stroke-width="2.0" stroke-linecap="butt" d="m140.09389 189.44456l-9.076202 3.3034668l9.076202 3.3034668z" fill-rule="evenodd"></path><path fill="#000000" fill-opacity="0.0" d="m89.14277 131.05655l119.74804 -89.13385l33.32283 44.787403l-119.74803 89.133865z" fill-rule="evenodd"></path><path fill="#000000" d="m141.43883 117.070335l-1.7807007 1.5591965q-1.0901031 -0.94163513 -1.9394684 -1.0885468q-1.3708344 -0.24572754 -2.498886 0.5939331q-0.914978 0.6810608 -1.2312622 1.6956177q-0.40811157 1.3361359 0.010696411 2.9722366q0.41879272 1.6361008 2.1285553 3.9864273q-0.08477783 -1.5536041 0.5323181 -2.792076q0.6077881 -1.2510071 1.6982269 -2.0626755q1.9051666 -1.4180984 4.290924 -1.0123444q2.376419 0.393219 4.027298 2.6120682q1.0912476 1.4666977 1.3847198 3.1960907q0.30599976 1.7200699 -0.30265808 3.2054672q-0.5961304 1.4760742 -1.9999237 2.520996q-2.3689117 1.7632904 -5.1694336 1.1403503q-2.8098602 -0.6354828 -5.8038177 -4.659485q-3.3390503 -4.487854 -3.2048645 -7.762703q0.12950134 -2.8623276 2.5861511 -4.690918q1.829956 -1.3621216 3.7604218 -1.201828q1.930481 0.16028595 3.5117035 1.7881927zm-2.799759 12.465965q0.73683167 0.9903259 1.821991 1.5850372q1.0758362 0.5821686 2.1822968 0.49876404q1.0971375 -0.095947266 1.9243774 -0.71170044q1.2032471 -0.89564514 1.3499146 -2.504654q0.13734436 -1.6215286 -1.1031494 -3.288803q-1.203186 -1.6171265 -2.7363586 -1.8978348q-1.5424957 -0.2932434 -2.8460236 0.6770325q-1.2910004 0.9609451 -1.5032501 2.5603256q-0.20904541 1.5775146 0.910202 3.081833zm20.156784 -7.192787l-11.537476 -15.506882l5.81575 -4.3289185q1.7672882 -1.3154678 3.1996307 -1.641449q1.4230194 -0.33851624 2.7521515 0.19145966q1.3416595 0.5206528 2.1344604 1.5861969q0.7461548 1.0028687 0.86009216 2.2815552q0.11392212 1.2786865 -0.57547 2.6294022q1.7115936 -0.6312332 3.2004547 -0.20067596q1.5014038 0.42123413 2.5087128 1.7751083q0.81144714 1.090622 1.047226 2.376007q0.23576355 1.2853851 -0.058670044 2.303154q-0.3037567 1.0052338 -1.1356659 2.0335083q-0.82870483 1.0064163 -2.3077087 2.1073074l-5.903488 4.394226zm-4.644409 -10.508942l3.3591003 -2.500328q1.3661957 -1.016922 1.8153839 -1.6434555q0.6092224 -0.80407715 0.6092377 -1.6416626q3.0517578E-5 -0.8375931 -0.60621643 -1.65242q-0.5782776 -0.7772293 -1.3833313 -1.0739899q-0.8143921 -0.30930328 -1.662323 -0.009284973q-0.8447113 0.27815247 -2.5242615 1.5283127l-3.0958862 2.3044052l3.4882965 4.688423zm5.325699 7.157982l3.8604584 -2.8735046q1.0027161 -0.7463684 1.3478394 -1.1201324q0.6086273 -0.6478119 0.87039185 -1.2906647q0.2524414 -0.65538025 0.13354492 -1.4434052q-0.11569214 -0.80989075 -0.6659851 -1.5495071q-0.6435547 -0.864975 -1.5704498 -1.1684418q-0.9143677 -0.31279755 -1.8905487 0.024253845q-0.98550415 0.32450867 -2.464508 1.4253998l-3.5847015 2.6682587l3.9639587 5.3277435zm17.604324 -10.25985l-10.17572 -13.676643l-5.1013184 3.7971344l-1.3617401 -1.8302383l12.283264 -9.1429825l1.3617401 1.8302383l-5.1263885 3.815796l10.175735 13.676643l-2.0555725 1.5300522zm16.132904 -20.462059l2.4472961 -1.00354q1.2229614 3.0048447 0.532074 5.5838165q-0.67836 2.5696335 -3.1099396 4.37957q-2.5067902 1.8659134 -4.8290253 2.0167084q-2.331543 0.13825226 -4.5951385 -1.1765213q-2.2603912 -1.3366318 -3.9112701 -3.5554886q-1.8000946 -2.4194183 -2.2156677 -4.914978q-0.41557312 -2.495552 0.59884644 -4.692032q1.0050812 -2.2090073 3.0606537 -3.7390594q2.331314 -1.7353058 4.796646 -1.7199173q2.4685516 -0.0064849854 4.6776276 1.6800003l-1.6635437 1.9784241q-1.7980957 -1.2911758 -3.3948212 -1.2908325q-1.5935211 -0.021530151 -3.1477356 1.1353378q-1.7923584 1.3341293 -2.3520508 3.0947418q-0.5690155 1.7480774 0.014755249 3.5535583q0.5963135 1.7961502 1.7342072 3.3255234q1.4736633 1.9806747 3.1508026 3.0307465q1.6771393 1.0500717 3.433899 0.87218475q1.7567596 -0.17788696 3.1730957 -1.232132q1.7171478 -1.2781525 2.1710358 -3.1547928q0.45710754 -1.8985138 -0.5717468 -4.171318z" fill-rule="nonzero"></path><path fill="#000000" fill-opacity="0.0" d="m308.09552 281.8807l119.74805 -89.133865l33.322815 44.7874l-119.74802 89.13385z" fill-rule="evenodd"></path><path fill="#000000" d="m356.18884 282.84613l1.7060852 -1.6594849q1.5415955 1.3652344 2.8503418 1.5013428q1.3212891 0.12680054 2.461853 -0.7221985q1.341156 -0.9982605 1.565918 -2.6069946q0.2373352 -1.618042 -0.78863525 -2.9969788q-0.9793396 -1.3162537 -2.456543 -1.521759q-1.4865417 -0.21801758 -2.815155 0.77090454q-0.53897095 0.40118408 -1.1918945 1.1988525l-1.0274048 -1.8258972q0.20666504 -0.114868164 0.319458 -0.19882202q1.2157898 -0.90496826 1.7270813 -2.259491q0.50198364 -1.3670349 -0.48666382 -2.6958313q-0.7741394 -1.0404663 -2.0015564 -1.1981506q-1.2149048 -0.1670227 -2.3429565 0.67263794q-1.1029968 0.8210144 -1.3201904 2.0734558q-0.22650146 1.2399292 0.6050415 2.8025513l-2.1569824 1.0796204q-1.0760803 -2.1792297 -0.6312256 -4.1465454q0.45739746 -1.9766235 2.2998962 -3.3480835q1.2659302 -0.94229126 2.7416992 -1.1837158q1.4789734 -0.26330566 2.7425232 0.25704956q1.2635498 0.5203552 2.0470276 1.5733948q0.75546265 1.0153809 0.8320923 2.243927q0.06729126 1.2160034 -0.6343384 2.4979248q1.611908 -0.7128601 3.1226196 -0.27908325q1.5107422 0.43374634 2.6299744 1.9380493q1.5109863 2.0308228 1.0733948 4.5575867q-0.4343872 2.5049133 -2.6904907 4.1842346q-2.0430603 1.5207214 -4.301422 1.3123474q-2.2458496 -0.2177124 -3.879547 -2.0208435zm21.559753 -9.678467l-11.537445 -15.506866l5.815735 -4.3289337q1.767273 -1.3154755 3.1996155 -1.641449q1.4230347 -0.33851624 2.7521667 0.19145203q1.3416748 0.5206604 2.1344604 1.5861969q0.7461548 1.0028839 0.8600769 2.2815552q0.11392212 1.2787018 -0.57547 2.6294098q1.7116089 -0.6312256 3.20047 -0.2006836q1.5014038 0.42123413 2.508728 1.775116q0.8114319 1.0906067 1.0472107 2.376007q0.23574829 1.2853699 -0.058654785 2.3031616q-0.30377197 1.0052185 -1.1356812 2.0335083q-0.82870483 1.0064087 -2.3077087 2.1072998l-5.9035034 4.394226zm-4.644409 -10.508942l3.3591003 -2.5003357q1.3662109 -1.0169067 1.8153992 -1.6434326q0.6092224 -0.80410767 0.6092529 -1.6416931q0 -0.83758545 -0.6062317 -1.6524048q-0.5782776 -0.77723694 -1.3833313 -1.0739899q-0.8143921 -0.30929565 -1.662323 -0.009292603q-0.84472656 0.27815247 -2.5242615 1.5283203l-3.0958862 2.3044128l3.4882812 4.6884155zm5.325714 7.1579895l3.860443 -2.8735046q1.0027161 -0.7463684 1.3478394 -1.1201477q0.6086426 -0.64779663 0.87042236 -1.2906494q0.2524414 -0.6553955 0.1335144 -1.4434204q-0.11569214 -0.8098755 -0.6659546 -1.5494995q-0.6435852 -0.86499023 -1.5704651 -1.168457q-0.9143677 -0.31277466 -1.890564 0.024261475q-0.98550415 0.32452393 -2.464508 1.425415l-3.5846863 2.6682434l3.9639587 5.327759zm17.60434 -10.259857l-10.175751 -13.676651l-5.1013184 3.7971344l-1.3617249 -1.8302307l12.283264 -9.14299l1.3617249 1.830246l-5.1263733 3.815796l10.17572 13.676636l-2.055542 1.5300598zm16.132874 -20.462067l2.4472961 -1.00354q1.2229614 3.0048523 0.532074 5.5838165q-0.6783447 2.569641 -3.1099243 4.3795776q-2.5068054 1.865921 -4.82901 2.0167084q-2.3315735 0.13824463 -4.595154 -1.1765137q-2.2604065 -1.3366394 -3.911255 -3.5554962q-1.8001099 -2.4194183 -2.2156982 -4.914978q-0.41555786 -2.4955597 0.59884644 -4.692032q1.0050964 -2.209015 3.060669 -3.7390594q2.3312988 -1.7353058 4.7966614 -1.7199249q2.4685364 -0.0064849854 4.6776123 1.6800079l-1.6635437 1.9784241q-1.7980957 -1.2911835 -3.3948364 -1.2908325q-1.5935059 -0.021530151 -3.1477356 1.1353302q-1.7923279 1.334137 -2.3520508 3.0947418q-0.56900024 1.7480774 0.014770508 3.5535583q0.5963135 1.7961578 1.7341919 3.325531q1.4736633 1.9806671 3.1508179 3.0307465q1.6771545 1.0500641 3.433899 0.8721771q1.7567444 -0.17788696 3.1730957 -1.232132q1.7171326 -1.2781525 2.171051 -3.1547852q0.4570923 -1.8985138 -0.57177734 -4.1713257z" fill-rule="nonzero"></path><path fill="#000000" fill-opacity="0.0" d="m219.98192 148.44693l149.29134 -0.03149414l0 55.81102l-149.29134 0.03149414z" fill-rule="evenodd"></path><path fill="#000000" d="m266.9184 183.03703l-2.375 4.8828125E-4l0 -15.125q-0.859375 0.8283081 -2.25 1.6411133q-1.390625 0.8127899 -2.5 1.2192688l0 -2.296875q2.0 -0.92230225 3.484375 -2.2507324q1.484375 -1.3440704 2.109375 -2.5941925l1.53125 -3.2043457E-4l0 19.40625zm14.152771 -0.0029907227l0 -19.328125l7.25 -0.0015258789q2.203125 -4.7302246E-4 3.546875 0.5930023q1.34375 0.5778351 2.09375 1.7964325q0.765625 1.2185822 0.765625 2.5467072q0 1.25 -0.671875 2.3438873q-0.671875 1.0939026 -2.03125 1.7660522q1.75 0.5152588 2.6875 1.7494354q0.953125 1.2341766 0.953125 2.9216766q0 1.359375 -0.578125 2.531372q-0.578125 1.1719971 -1.421875 1.8128052q-0.84375 0.62516785 -2.125 0.9535675q-1.265625 0.31277466 -3.109375 0.31315613l-7.359375 0.0015563965zm2.546875 -11.203659l4.1875 -8.8500977E-4q1.703125 -3.6621094E-4 2.4375 -0.2348938q0.96875 -0.28144836 1.46875 -0.9534302q0.5 -0.6719818 0.5 -1.6876068q0 -0.96875 -0.46875 -1.6874084q-0.46875 -0.7342682 -1.328125 -0.9997101q-0.84375 -0.28108215 -2.9375 -0.28063965l-3.859375 8.239746E-4l0 5.84375zm0 8.921875l4.8125 -0.0010223389q1.25 -2.593994E-4 1.75 -0.09411621q0.875 -0.1564331 1.46875 -0.5159302q0.59375 -0.37513733 0.96875 -1.0783386q0.390625 -0.7188263 0.390625 -1.6407013q0 -1.078125 -0.5625 -1.8748779q-0.546875 -0.7967682 -1.53125 -1.1090546q-0.984375 -0.32792664 -2.828125 -0.3275299l-4.46875 9.460449E-4l0 6.640625zm20.24826 2.2769775l0 -17.046875l-6.359375 0.0013427734l0 -2.28125l15.3125 -0.0032348633l0 2.28125l-6.390625 0.0013427734l0 17.046875l-2.5625 5.493164E-4zm25.157684 -6.78656l2.5625 0.6557007q-0.8125 3.140808 -2.90625 4.7975006q-2.078125 1.6566772 -5.109375 1.6573181q-3.125 6.713867E-4 -5.078125 -1.2645416q-1.953125 -1.280838 -2.984375 -3.6868744q-1.015625 -2.4216614 -1.015625 -5.1872864q0 -3.015625 1.15625 -5.265869q1.15625 -2.2502441 3.28125 -3.406952q2.125 -1.1723175 4.6875 -1.1728516q2.90625 -6.2561035E-4 4.875 1.4833374q1.984375 1.468338 2.75 4.140045l-2.515625 0.59428406q-0.671875 -2.1092377 -1.953125 -3.062088q-1.265625 -0.96847534 -3.203125 -0.9680786q-2.234375 4.7302246E-4 -3.734375 1.0789185q-1.5 1.0628204 -2.109375 2.8598175q-0.59375 1.7969971 -0.59375 3.703247q0 2.46875 0.71875 4.3123474q0.71875 1.8435974 2.234375 2.7495422q1.515625 0.90592957 3.28125 0.9055481q2.140625 -4.4250488E-4 3.625 -1.2351379q1.5 -1.2503204 2.03125 -3.6879272z" fill-rule="nonzero"></path><path fill="#000000" fill-opacity="0.0" d="m357.9976 25.480722l118.80316 90.3937l-33.795288 44.409454l-118.80316 -90.3937z" fill-rule="evenodd"></path><path fill="#000000" d="m378.58594 81.75596l-1.3814697 1.8153763l-10.171692 -7.7393265q0.5079956 -0.6933365 1.2173462 -1.1352768q1.1803284 -0.75115967 2.804779 -1.1054993q1.6244202 -0.35433197 4.2439575 -0.44237518q4.0701294 -0.16233826 5.861389 -0.68426514q1.8006897 -0.53435516 2.6144714 -1.6036835q0.851593 -1.119072 0.62997437 -2.5049667q-0.20916748 -1.3764343 -1.5023804 -2.360405q-1.3554077 -1.0312805 -2.8005981 -0.8350754q-1.4357605 0.18376923 -2.5552673 1.629097l-1.7884521 -1.6749039q1.8548584 -2.0245857 4.0091553 -2.1721153q2.176178 -0.15050125 4.377136 1.5241432q2.2134094 1.6841125 2.557434 3.889595q0.36590576 2.2025146 -1.015564 4.017891q-0.7096863 0.93255615 -1.7764282 1.5345078q-1.0448608 0.59898376 -2.6723022 0.9314194q-1.6179504 0.32000732 -4.963043 0.48426056q-2.7917175 0.1337204 -3.6646423 0.2745285q-0.86047363 0.15026855 -1.5717468 0.41407776l7.547943 5.742996zm7.0714417 8.246941l11.704803 -15.380966l5.769745 4.3900375q1.7533264 1.3340378 2.4631348 2.620201q0.7192993 1.273735 0.578125 2.697731q-0.12875366 1.433464 -0.93304443 2.4903564q-0.7569885 0.9947281 -1.9540405 1.4582825q-1.197052 0.46354675 -2.6857605 0.17508698q1.0804443 1.469986 1.07901 3.0199509q0.011016846 1.559433 -1.0109253 2.9023132q-0.82321167 1.0817642 -1.9929504 1.6642532q-1.1697693 0.582489 -2.229187 0.58138275q-1.0499878 -0.013549805 -2.268341 -0.5282593q-1.1964722 -0.5176773 -2.6637878 -1.6341095l-5.856781 -4.4562607zm8.81131 -7.3730545l3.3325195 2.5356216q1.3554077 1.0312805 2.0817566 1.2894516q0.9412842 0.36278534 1.7460938 0.13088226q0.80477905 -0.23190308 1.4198303 -1.040123q0.5866699 -0.7709122 0.64886475 -1.6267166q0.07168579 -0.86824036 -0.45135498 -1.5999908q-0.50115967 -0.73472595 -2.16745 -2.002533l-3.0713806 -2.336937l-3.5388794 4.650345zm-5.402954 7.099861l3.8299255 2.9140778q0.9947815 0.7569046 1.4494629 0.985054q0.7909851 0.4054947 1.4811401 0.47904205q0.6996155 0.06110382 1.4238586 -0.27135468q0.74612427 -0.33543396 1.3044128 -1.069046q0.65289307 -0.85795593 0.6878052 -1.832695q0.04736328 -0.96528625 -0.54678345 -1.8100281q-0.5846863 -0.85717773 -2.052002 -1.9736099l-3.556366 -2.705925l-4.021454 5.284485zm14.732666 14.076141l10.323303 -13.565582l-5.060974 -3.8507462l1.3815002 -1.8153763l12.186127 9.272057l-1.3815002 1.8153763l-5.085846 -3.8696594l-10.323303 13.565582l-2.0393066 -1.551651zm24.127838 9.837143l1.6418762 2.073883q-2.548523 2.0072632 -5.2177734 2.0574646q-2.6568298 0.059661865 -5.0691833 -1.7758255q-2.486969 -1.8922501 -3.2748718 -4.082077q-0.7784729 -2.2022552 -0.14196777 -4.7415466q0.65838623 -2.5422668 2.333191 -4.7430954q1.8262329 -2.3997803 4.1089783 -3.4901505q2.2827148 -1.0903778 4.6740723 -0.7237625q2.4007874 0.35417175 4.4401245 1.9058228q2.3128662 1.7597961 2.9807434 4.133156q0.6897583 2.3703918 -0.31896973 4.9602203l-2.3615723 -1.0507736q0.7427063 -2.085434 0.30023193 -3.6197357q-0.42056274 -1.5372772 -1.9624634 -2.7104797q-1.7781677 -1.3529587 -3.624817 -1.4032898q-1.8371887 -0.06276703 -3.4103088 0.9981613q-1.560669 1.0703964 -2.7150574 2.587349q-1.4950562 1.9645844 -2.0395813 3.8670273q-0.54455566 1.9024429 0.11282349 3.541359q0.65734863 1.6389236 2.0625 2.708046q1.7035828 1.296196 3.6323853 1.2127304q1.9507446 -0.08644867 3.84964 -1.704483z" fill-rule="nonzero"></path><path fill="#000000" fill-opacity="0.0" d="m150.56451 192.3075l118.80316 90.39371l-33.795288 44.409454l-118.80315 -90.39371z" fill-rule="evenodd"></path><path fill="#000000" d="m162.91417 238.81937l2.109604 1.3302612q-0.883255 1.6250916 -0.6457062 2.9642181q0.25946045 1.3361664 1.3910217 2.1971436q1.3678436 1.040741 3.088791 0.74020386q1.7304077 -0.31297302 3.0267334 -2.016449q1.2301025 -1.6164246 1.0320282 -3.2396545q-0.19807434 -1.62323 -1.66539 -2.7396545q-0.920166 -0.7001343 -1.9755402 -0.8356018q-1.0459137 -0.14788818 -1.9701996 0.18943787l-1.5859528 -1.5797577l7.500702 -6.7602844l7.647415 5.81868l-1.3720245 1.802948l-6.142807 -4.673874l-3.974594 3.494217q2.121292 0.10223389 3.6383362 1.2565155q2.01445 1.5327301 2.3349457 3.9755402q0.33291626 2.4522858 -1.3419037 4.653122q-1.5896454 2.088913 -3.9626617 2.6786804q-2.8990784 0.73921204 -5.4606476 -1.2098083q-2.1014862 -1.5989532 -2.5425568 -3.7801208q-0.41918945 -2.1841278 0.8704071 -4.2657623zm15.310135 18.010315l11.704803 -15.380981l5.769745 4.390045q1.7533112 1.3340302 2.46315 2.6201935q0.71928406 1.2737427 0.57810974 2.6977386q-0.12875366 1.4334564 -0.93304443 2.4903564q-0.7569885 0.99472046 -1.9540405 1.4582825q-1.197052 0.46354675 -2.6857605 0.17507935q1.0804443 1.4700012 1.0790253 3.0199585q0.011001587 1.5594177 -1.0109253 2.9023132q-0.82321167 1.0817566 -1.9929657 1.6642456q-1.169754 0.582489 -2.229187 0.5813904q-1.0499725 -0.013549805 -2.268341 -0.5282593q-1.1964722 -0.5176697 -2.6637726 -1.6341248l-5.8567963 -4.456238zm8.81131 -7.373062l3.3325195 2.535614q1.3554077 1.0312805 2.0817719 1.2894592q0.9412842 0.3627777 1.7460785 0.13087463q0.80477905 -0.23190308 1.4198303 -1.0401154q0.58665466 -0.7709198 0.64888 -1.6267242q0.07168579 -0.86824036 -0.4513855 -1.5999908q-0.50115967 -0.73472595 -2.1674194 -2.002533l-3.0713959 -2.3369293l-3.5388794 4.650345zm-5.402954 7.099869l3.8299255 2.9140625q0.9947815 0.756897 1.4494781 0.9850769q0.79096985 0.40548706 1.4811249 0.47903442q0.6996155 0.06109619 1.4238586 -0.2713623q0.74612427 -0.33544922 1.3043976 -1.0690613q0.65289307 -0.8579407 0.68782043 -1.8326721q0.04736328 -0.9653015 -0.5467987 -1.8100433q-0.5846863 -0.85717773 -2.0519867 -1.9736023l-3.556366 -2.7059326l-4.021454 5.2845zm14.732666 14.076141l10.323303 -13.565582l-5.060974 -3.8507538l1.3815002 -1.8153687l12.186127 9.272049l-1.3815002 1.8153687l-5.0858307 -3.8696594l-10.3233185 13.565582l-2.0393066 -1.5516357zm24.127823 9.837128l1.6419067 2.073883q-2.548523 2.0072632 -5.2177887 2.0574646q-2.6568298 0.059661865 -5.0691833 -1.7758179q-2.486969 -1.8922424 -3.274887 -4.0820923q-0.7784424 -2.20224 -0.14195251 -4.7415466q0.65838623 -2.5422668 2.3332062 -4.7430725q1.8262177 -2.3997803 4.1089478 -3.4901733q2.2827454 -1.0903625 4.6740875 -0.7237549q2.4008026 0.354187 4.4401093 1.9058228q2.3128815 1.7597961 2.9807587 4.133148q0.68977356 2.3703918 -0.31896973 4.9602356l-2.3615723 -1.0507812q0.7427063 -2.0854187 0.3002472 -3.6197205q-0.42056274 -1.5372925 -1.9624786 -2.7104797q-1.778183 -1.3529663 -3.624817 -1.4032898q-1.8371735 -0.06277466 -3.4102936 0.9981384q-1.5606842 1.070404 -2.7150726 2.5873718q-1.4950409 1.9645691 -2.0395813 3.8670044q-0.5445404 1.9024658 0.11282349 3.5413818q0.6573639 1.638916 2.0625 2.7080383q1.7035675 1.2962036 3.6324005 1.212738q1.9507141 -0.0864563 3.8496094 -1.7044983z" fill-rule="nonzero"></path></g></svg>

