<?xml version="1.0" encoding="UTF-8" standalone="no"?>
<!DOCTYPE svg PUBLIC "-//W3C//DTD SVG 1.1//EN"
 "http://www.w3.org/Graphics/SVG/1.1/DTD/svg11.dtd">
<!-- Generated by graphviz version 2.38.0 (20140413.2041)
 -->
<!-- Title: G Pages: 1 -->
<svg width="280pt" height="190pt"
 viewBox="0.00 0.00 280.00 190.00" xmlns="http://www.w3.org/2000/svg" xmlns:xlink="http://www.w3.org/1999/xlink">
<g id="graph0" class="graph" transform="scale(1 1) rotate(0) translate(4 186)">
<title>G</title>
<text text-anchor="middle" x="136" y="-22.8" font-family="montserrat" font-size="14.00" fill="white">Centrality: 1</text>
<text text-anchor="middle" x="136" y="-7.8" font-family="montserrat" font-size="14.00" fill="white"> Connectedness: large</text>
<!-- A -->
<g id="node1" class="node"><title>A</title>
<ellipse fill="none" stroke="white" cx="27" cy="-164" rx="27" ry="18"/>
<text text-anchor="middle" x="27" y="-160.3" font-family="montserrat" font-size="14.00" fill="white">A</text>
</g>
<!-- H -->
<g id="node4" class="node"><title>H</title>
<ellipse fill="none" stroke="white" cx="136" cy="-110" rx="27" ry="18"/>
<text text-anchor="middle" x="136" y="-106.3" font-family="montserrat" font-size="14.00" fill="white">H</text>
</g>
<!-- A&#45;&gt;H -->
<g id="edge1" class="edge"><title>A&#45;&gt;H</title>
<path fill="none" stroke="white" d="M58.4906,-148.612C73.0255,-141.277 90.3596,-132.529 104.85,-125.216"/>
<polygon fill="white" stroke="white" points="56.4904,-145.701 49.1398,-153.331 59.6442,-151.95 56.4904,-145.701"/>
<polygon fill="white" stroke="white" points="106.554,-128.277 113.904,-120.646 103.4,-122.027 106.554,-128.277"/>
<text text-anchor="middle" x="81.5" y="-143.8" font-family="montserrat" font-size="14.00" fill="white">10</text>
</g>
<!-- B -->
<g id="node2" class="node"><title>B</title>
<ellipse fill="none" stroke="white" cx="27" cy="-110" rx="27" ry="18"/>
<text text-anchor="middle" x="27" y="-106.3" font-family="montserrat" font-size="14.00" fill="white">B</text>
</g>
<!-- B&#45;&gt;H -->
<g id="edge2" class="edge"><title>B&#45;&gt;H</title>
<path fill="none" stroke="white" d="M64.3672,-110C75.3963,-110 87.5115,-110 98.5463,-110"/>
<polygon fill="white" stroke="white" points="64.1752,-106.5 54.1751,-110 64.1751,-113.5 64.1752,-106.5"/>
<polygon fill="white" stroke="white" points="98.7243,-113.5 108.724,-110 98.7242,-106.5 98.7243,-113.5"/>
<text text-anchor="middle" x="81.5" y="-113.8" font-family="montserrat" font-size="14.00" fill="white">10</text>
</g>
<!-- C -->
<g id="node3" class="node"><title>C</title>
<ellipse fill="none" stroke="white" cx="27" cy="-56" rx="27" ry="18"/>
<text text-anchor="middle" x="27" y="-52.3" font-family="montserrat" font-size="14.00" fill="white">C</text>
</g>
<!-- C&#45;&gt;H -->
<g id="edge3" class="edge"><title>C&#45;&gt;H</title>
<path fill="none" stroke="white" d="M58.4906,-71.3878C73.0255,-78.7232 90.3596,-87.4712 104.85,-94.7843"/>
<polygon fill="white" stroke="white" points="59.6442,-68.0496 49.1398,-66.6687 56.4904,-74.2988 59.6442,-68.0496"/>
<polygon fill="white" stroke="white" points="103.4,-97.9726 113.904,-99.3535 106.554,-91.7233 103.4,-97.9726"/>
<text text-anchor="middle" x="81.5" y="-89.8" font-family="montserrat" font-size="14.00" fill="white">10</text>
</g>
<!-- D -->
<g id="node5" class="node"><title>D</title>
<ellipse fill="none" stroke="white" cx="245" cy="-164" rx="27" ry="18"/>
<text text-anchor="middle" x="245" y="-160.3" font-family="montserrat" font-size="14.00" fill="white">D</text>
</g>
<!-- D&#45;&gt;H -->
<g id="edge4" class="edge"><title>D&#45;&gt;H</title>
<path fill="none" stroke="white" d="M213.85,-148.784C199.36,-141.471 182.026,-132.723 167.491,-125.388"/>
<polygon fill="white" stroke="white" points="212.4,-151.973 222.904,-153.354 215.554,-145.723 212.4,-151.973"/>
<polygon fill="white" stroke="white" points="168.644,-122.05 158.14,-120.669 165.49,-128.299 168.644,-122.05"/>
<text text-anchor="middle" x="190.5" y="-143.8" font-family="montserrat" font-size="14.00" fill="white">10</text>
</g>
<!-- E -->
<g id="node6" class="node"><title>E</title>
<ellipse fill="none" stroke="white" cx="245" cy="-110" rx="27" ry="18"/>
<text text-anchor="middle" x="245" y="-106.3" font-family="montserrat" font-size="14.00" fill="white">E</text>
</g>
<!-- E&#45;&gt;H -->
<g id="edge5" class="edge"><title>E&#45;&gt;H</title>
<path fill="none" stroke="white" d="M207.546,-110C196.511,-110 184.396,-110 173.367,-110"/>
<polygon fill="white" stroke="white" points="207.724,-113.5 217.724,-110 207.724,-106.5 207.724,-113.5"/>
<polygon fill="white" stroke="white" points="173.175,-106.5 163.175,-110 173.175,-113.5 173.175,-106.5"/>
<text text-anchor="middle" x="190.5" y="-113.8" font-family="montserrat" font-size="14.00" fill="white">10</text>
</g>
<!-- F -->
<g id="node7" class="node"><title>F</title>
<ellipse fill="none" stroke="white" cx="245" cy="-56" rx="27" ry="18"/>
<text text-anchor="middle" x="245" y="-52.3" font-family="montserrat" font-size="14.00" fill="white">F</text>
</g>
<!-- F&#45;&gt;H -->
<g id="edge6" class="edge"><title>F&#45;&gt;H</title>
<path fill="none" stroke="white" d="M213.85,-71.2157C199.36,-78.5288 182.026,-87.2768 167.491,-94.6122"/>
<polygon fill="white" stroke="white" points="215.554,-74.2767 222.904,-66.6465 212.4,-68.0274 215.554,-74.2767"/>
<polygon fill="white" stroke="white" points="165.49,-91.7012 158.14,-99.3313 168.644,-97.9504 165.49,-91.7012"/>
<text text-anchor="middle" x="190.5" y="-89.8" font-family="montserrat" font-size="14.00" fill="white">10</text>
</g>
</g>
</svg>
