<?xml version="1.0" encoding="UTF-8" standalone="no"?>
<!DOCTYPE svg PUBLIC "-//W3C//DTD SVG 1.1//EN"
 "http://www.w3.org/Graphics/SVG/1.1/DTD/svg11.dtd">
<!-- Generated by graphviz version 2.38.0 (20140413.2041)
 -->
<!-- Title: G Pages: 1 -->
<svg width="276pt" height="190pt"
 viewBox="0.00 0.00 276.00 190.00" xmlns="http://www.w3.org/2000/svg" xmlns:xlink="http://www.w3.org/1999/xlink">
<g id="graph0" class="graph" transform="scale(1 1) rotate(0) translate(4 186)">
<title>G</title>
<text text-anchor="middle" x="134" y="-22.8" font-family="Ubuntu" font-size="14.00" fill="white">Centrality: 1</text>
<text text-anchor="middle" x="134" y="-7.8" font-family="Ubuntu" font-size="14.00" fill="white"> Connectedness: large</text>
<!-- A -->
<g id="node1" class="node"><title>A</title>
<ellipse fill="none" stroke="white" cx="27" cy="-164" rx="27" ry="18"/>
<text text-anchor="middle" x="27" y="-160.3" font-family="Ubuntu" font-size="14.00" fill="white">A</text>
</g>
<!-- H -->
<g id="node4" class="node"><title>H</title>
<ellipse fill="none" stroke="white" cx="134" cy="-110" rx="27" ry="18"/>
<text text-anchor="middle" x="134" y="-106.3" font-family="Ubuntu" font-size="14.00" fill="white">H</text>
</g>
<!-- A&#45;&gt;H -->
<g id="edge1" class="edge"><title>A&#45;&gt;H</title>
<path fill="none" stroke="white" d="M58.1127,-148.513C72.1341,-141.302 88.7769,-132.743 102.808,-125.527"/>
<polygon fill="white" stroke="white" points="56.2881,-145.516 48.996,-153.202 59.4896,-151.741 56.2881,-145.516"/>
<polygon fill="white" stroke="white" points="104.748,-128.465 112.04,-120.779 101.547,-122.24 104.748,-128.465"/>
<text text-anchor="middle" x="80.5" y="-143.8" font-family="Ubuntu" font-size="14.00" fill="white">10</text>
</g>
<!-- B -->
<g id="node2" class="node"><title>B</title>
<ellipse fill="none" stroke="white" cx="27" cy="-110" rx="27" ry="18"/>
<text text-anchor="middle" x="27" y="-106.3" font-family="Ubuntu" font-size="14.00" fill="white">B</text>
</g>
<!-- B&#45;&gt;H -->
<g id="edge2" class="edge"><title>B&#45;&gt;H</title>
<path fill="none" stroke="white" d="M64.4687,-110C74.9055,-110 86.2772,-110 96.7037,-110"/>
<polygon fill="white" stroke="white" points="64.2251,-106.5 54.2251,-110 64.225,-113.5 64.2251,-106.5"/>
<polygon fill="white" stroke="white" points="96.7454,-113.5 106.745,-110 96.7453,-106.5 96.7454,-113.5"/>
<text text-anchor="middle" x="80.5" y="-113.8" font-family="Ubuntu" font-size="14.00" fill="white">10</text>
</g>
<!-- C -->
<g id="node3" class="node"><title>C</title>
<ellipse fill="none" stroke="white" cx="27" cy="-56" rx="27" ry="18"/>
<text text-anchor="middle" x="27" y="-52.3" font-family="Ubuntu" font-size="14.00" fill="white">C</text>
</g>
<!-- C&#45;&gt;H -->
<g id="edge3" class="edge"><title>C&#45;&gt;H</title>
<path fill="none" stroke="white" d="M58.1127,-71.4865C72.1341,-78.6975 88.7769,-87.2567 102.808,-94.4727"/>
<polygon fill="white" stroke="white" points="59.4896,-68.2589 48.996,-66.7979 56.2881,-74.484 59.4896,-68.2589"/>
<polygon fill="white" stroke="white" points="101.547,-97.7598 112.04,-99.2208 104.748,-91.5348 101.547,-97.7598"/>
<text text-anchor="middle" x="80.5" y="-89.8" font-family="Ubuntu" font-size="14.00" fill="white">10</text>
</g>
<!-- D -->
<g id="node5" class="node"><title>D</title>
<ellipse fill="none" stroke="white" cx="241" cy="-164" rx="27" ry="18"/>
<text text-anchor="middle" x="241" y="-160.3" font-family="Ubuntu" font-size="14.00" fill="white">D</text>
</g>
<!-- D&#45;&gt;H -->
<g id="edge4" class="edge"><title>D&#45;&gt;H</title>
<path fill="none" stroke="white" d="M209.808,-148.473C195.777,-141.257 179.134,-132.698 165.113,-125.487"/>
<polygon fill="white" stroke="white" points="208.547,-151.76 219.04,-153.221 211.748,-145.535 208.547,-151.76"/>
<polygon fill="white" stroke="white" points="166.49,-122.259 155.996,-120.798 163.288,-128.484 166.49,-122.259"/>
<text text-anchor="middle" x="187.5" y="-143.8" font-family="Ubuntu" font-size="14.00" fill="white">10</text>
</g>
<!-- E -->
<g id="node6" class="node"><title>E</title>
<ellipse fill="none" stroke="white" cx="241" cy="-110" rx="27" ry="18"/>
<text text-anchor="middle" x="241" y="-106.3" font-family="Ubuntu" font-size="14.00" fill="white">E</text>
</g>
<!-- E&#45;&gt;H -->
<g id="edge5" class="edge"><title>E&#45;&gt;H</title>
<path fill="none" stroke="white" d="M203.704,-110C193.277,-110 181.905,-110 171.469,-110"/>
<polygon fill="white" stroke="white" points="203.745,-113.5 213.745,-110 203.745,-106.5 203.745,-113.5"/>
<polygon fill="white" stroke="white" points="171.225,-106.5 161.225,-110 171.225,-113.5 171.225,-106.5"/>
<text text-anchor="middle" x="187.5" y="-113.8" font-family="Ubuntu" font-size="14.00" fill="white">10</text>
</g>
<!-- F -->
<g id="node7" class="node"><title>F</title>
<ellipse fill="none" stroke="white" cx="241" cy="-56" rx="27" ry="18"/>
<text text-anchor="middle" x="241" y="-52.3" font-family="Ubuntu" font-size="14.00" fill="white">F</text>
</g>
<!-- F&#45;&gt;H -->
<g id="edge6" class="edge"><title>F&#45;&gt;H</title>
<path fill="none" stroke="white" d="M209.808,-71.5273C195.777,-78.7433 179.134,-87.3025 165.113,-94.5135"/>
<polygon fill="white" stroke="white" points="211.748,-74.4652 219.04,-66.7792 208.547,-68.2402 211.748,-74.4652"/>
<polygon fill="white" stroke="white" points="163.288,-91.516 155.996,-99.2021 166.49,-97.7411 163.288,-91.516"/>
<text text-anchor="middle" x="187.5" y="-89.8" font-family="Ubuntu" font-size="14.00" fill="white">10</text>
</g>
</g>
</svg>
