<?xml version="1.0" encoding="UTF-8" standalone="no"?>
<!DOCTYPE svg PUBLIC "-//W3C//DTD SVG 1.1//EN"
 "http://www.w3.org/Graphics/SVG/1.1/DTD/svg11.dtd">
<!-- Generated by graphviz version 2.38.0 (20140413.2041)
 -->
<!-- Title: G Pages: 1 -->
<svg width="268pt" height="167pt"
 viewBox="0.00 0.00 268.00 167.41" xmlns="http://www.w3.org/2000/svg" xmlns:xlink="http://www.w3.org/1999/xlink">
<g id="graph0" class="graph" transform="scale(1 1) rotate(0) translate(4 163.407)">
<title>G</title>
<text text-anchor="middle" x="130" y="-7.8" font-family="Ubuntu" font-size="14.00" fill="white">good balance</text>
<!-- A -->
<g id="node1" class="node"><title>A</title>
<ellipse fill="none" stroke="white" cx="27" cy="-69.4066" rx="27" ry="18"/>
<text text-anchor="middle" x="27" y="-65.7066" font-family="Ubuntu" font-size="14.00" fill="white">A</text>
</g>
<!-- C -->
<g id="node2" class="node"><title>C</title>
<ellipse fill="none" stroke="white" cx="126" cy="-69.4066" rx="27" ry="18"/>
<text text-anchor="middle" x="126" y="-65.7066" font-family="Ubuntu" font-size="14.00" fill="white">C</text>
</g>
<!-- A&#45;&gt;C -->
<g id="edge1" class="edge"><title>A&#45;&gt;C</title>
<path fill="none" stroke="white" d="M54.2496,-69.4066C64.8171,-69.4066 77.1838,-69.4066 88.5961,-69.4066"/>
<polygon fill="white" stroke="white" points="88.7295,-72.9067 98.7294,-69.4066 88.7294,-65.9067 88.7295,-72.9067"/>
<text text-anchor="middle" x="76.5" y="-73.2066" font-family="Ubuntu" font-size="14.00" fill="white">5</text>
</g>
<!-- D -->
<g id="node3" class="node"><title>D</title>
<ellipse fill="none" stroke="white" cx="126" cy="-141.407" rx="27" ry="18"/>
<text text-anchor="middle" x="126" y="-137.707" font-family="Ubuntu" font-size="14.00" fill="white">D</text>
</g>
<!-- A&#45;&gt;D -->
<g id="edge2" class="edge"><title>A&#45;&gt;D</title>
<path fill="none" stroke="white" d="M45.7913,-82.6125C60.6953,-93.6752 82.1717,-109.617 99.0028,-122.11"/>
<polygon fill="white" stroke="white" points="97.2057,-125.135 107.321,-128.284 101.378,-119.514 97.2057,-125.135"/>
<text text-anchor="middle" x="76.5" y="-112.207" font-family="Ubuntu" font-size="14.00" fill="white">6</text>
</g>
<!-- B -->
<g id="node4" class="node"><title>B</title>
<ellipse fill="none" stroke="white" cx="233" cy="-112.407" rx="27" ry="18"/>
<text text-anchor="middle" x="233" y="-108.707" font-family="Ubuntu" font-size="14.00" fill="white">B</text>
</g>
<!-- C&#45;&gt;B -->
<g id="edge3" class="edge"><title>C&#45;&gt;B</title>
<path fill="none" stroke="white" d="M149.525,-78.6312C164.196,-84.6393 183.564,-92.5709 199.844,-99.2379"/>
<polygon fill="white" stroke="white" points="198.932,-102.646 209.512,-103.197 201.584,-96.1685 198.932,-102.646"/>
<text text-anchor="middle" x="179.5" y="-98.2066" font-family="Ubuntu" font-size="14.00" fill="white">3</text>
</g>
<!-- E -->
<g id="node5" class="node"><title>E</title>
<ellipse fill="none" stroke="white" cx="233" cy="-45.4066" rx="27" ry="18"/>
<text text-anchor="middle" x="233" y="-41.7066" font-family="Ubuntu" font-size="14.00" fill="white">E</text>
</g>
<!-- C&#45;&gt;E -->
<g id="edge4" class="edge"><title>C&#45;&gt;E</title>
<path fill="none" stroke="white" d="M151.884,-63.7189C165.483,-60.6104 182.539,-56.712 197.414,-53.3119"/>
<polygon fill="white" stroke="white" points="198.326,-56.6937 207.295,-51.0534 196.767,-49.8697 198.326,-56.6937"/>
<text text-anchor="middle" x="179.5" y="-63.2066" font-family="Ubuntu" font-size="14.00" fill="white">10</text>
</g>
<!-- D&#45;&gt;C -->
<g id="edge6" class="edge"><title>D&#45;&gt;C</title>
<path fill="none" stroke="white" d="M126,-122.993C126,-115.347 126,-106.298 126,-97.834"/>
<polygon fill="white" stroke="white" points="129.5,-97.5752 126,-87.5752 122.5,-97.5752 129.5,-97.5752"/>
<text text-anchor="middle" x="115.5" y="-101.707" font-family="Ubuntu" font-size="14.00" fill="white">4</text>
</g>
<!-- D&#45;&gt;B -->
<g id="edge5" class="edge"><title>D&#45;&gt;B</title>
<path fill="none" stroke="white" d="M151.089,-134.753C164.996,-130.912 182.708,-126.02 198.014,-121.793"/>
<polygon fill="white" stroke="white" points="198.952,-125.165 207.659,-119.129 197.088,-118.418 198.952,-125.165"/>
<text text-anchor="middle" x="179.5" y="-132.207" font-family="Ubuntu" font-size="14.00" fill="white">1</text>
</g>
<!-- E&#45;&gt;A -->
<g id="edge7" class="edge"><title>E&#45;&gt;A</title>
<path fill="none" stroke="white" d="M209.042,-36.8256C182.236,-28.0556 136.757,-17.0751 99,-27.4066 82.6134,-31.8904 66.1681,-41.2371 53.237,-49.9771"/>
<polygon fill="white" stroke="white" points="51.045,-47.2401 44.8901,-55.8638 55.0794,-52.9606 51.045,-47.2401"/>
<text text-anchor="middle" x="126" y="-31.2066" font-family="Ubuntu" font-size="14.00" fill="white">3</text>
</g>
</g>
</svg>
