<?xml version="1.0" encoding="UTF-8" standalone="no"?>
<!DOCTYPE svg PUBLIC "-//W3C//DTD SVG 1.1//EN"
 "http://www.w3.org/Graphics/SVG/1.1/DTD/svg11.dtd">
<!-- Generated by graphviz version 2.38.0 (20140413.2041)
 -->
<!-- Title: G Pages: 1 -->
<svg width="271pt" height="167pt"
 viewBox="0.00 0.00 271.00 167.43" xmlns="http://www.w3.org/2000/svg" xmlns:xlink="http://www.w3.org/1999/xlink">
<g id="graph0" class="graph" transform="scale(1 1) rotate(0) translate(4 163.429)">
<title>G</title>
<text text-anchor="middle" x="131.5" y="-7.8" font-family="montserrat" font-size="14.00" fill="white">good balance</text>
<!-- A -->
<g id="node1" class="node"><title>A</title>
<ellipse fill="none" stroke="white" cx="27" cy="-69.429" rx="27" ry="18"/>
<text text-anchor="middle" x="27" y="-65.729" font-family="montserrat" font-size="14.00" fill="white">A</text>
</g>
<!-- C -->
<g id="node2" class="node"><title>C</title>
<ellipse fill="none" stroke="white" cx="127" cy="-69.429" rx="27" ry="18"/>
<text text-anchor="middle" x="127" y="-65.729" font-family="montserrat" font-size="14.00" fill="white">C</text>
</g>
<!-- A&#45;&gt;C -->
<g id="edge1" class="edge"><title>A&#45;&gt;C</title>
<path fill="none" stroke="white" d="M54.0049,-69.429C64.9694,-69.429 77.9204,-69.429 89.7938,-69.429"/>
<polygon fill="white" stroke="white" points="89.8736,-72.9291 99.8736,-69.429 89.8735,-65.9291 89.8736,-72.9291"/>
<text text-anchor="middle" x="77" y="-73.229" font-family="montserrat" font-size="14.00" fill="white">5</text>
</g>
<!-- D -->
<g id="node3" class="node"><title>D</title>
<ellipse fill="none" stroke="white" cx="127" cy="-141.429" rx="27" ry="18"/>
<text text-anchor="middle" x="127" y="-137.729" font-family="montserrat" font-size="14.00" fill="white">D</text>
</g>
<!-- A&#45;&gt;D -->
<g id="edge2" class="edge"><title>A&#45;&gt;D</title>
<path fill="none" stroke="white" d="M45.9747,-82.6349C61.0323,-93.6976 82.7302,-109.639 99.7348,-122.132"/>
<polygon fill="white" stroke="white" points="98.0081,-125.207 108.139,-128.307 102.153,-119.565 98.0081,-125.207"/>
<text text-anchor="middle" x="77" y="-112.229" font-family="montserrat" font-size="14.00" fill="white">6</text>
</g>
<!-- B -->
<g id="node4" class="node"><title>B</title>
<ellipse fill="none" stroke="white" cx="236" cy="-112.429" rx="27" ry="18"/>
<text text-anchor="middle" x="236" y="-108.729" font-family="montserrat" font-size="14.00" fill="white">B</text>
</g>
<!-- C&#45;&gt;B -->
<g id="edge3" class="edge"><title>C&#45;&gt;B</title>
<path fill="none" stroke="white" d="M150.431,-78.4432C165.696,-84.578 186.127,-92.7883 203.082,-99.6023"/>
<polygon fill="white" stroke="white" points="202.015,-102.945 212.599,-103.427 204.625,-96.4501 202.015,-102.945"/>
<text text-anchor="middle" x="181.5" y="-98.229" font-family="montserrat" font-size="14.00" fill="white">3</text>
</g>
<!-- E -->
<g id="node5" class="node"><title>E</title>
<ellipse fill="none" stroke="white" cx="236" cy="-45.429" rx="27" ry="18"/>
<text text-anchor="middle" x="236" y="-41.729" font-family="montserrat" font-size="14.00" fill="white">E</text>
</g>
<!-- C&#45;&gt;E -->
<g id="edge4" class="edge"><title>C&#45;&gt;E</title>
<path fill="none" stroke="white" d="M152.817,-63.8626C166.762,-60.7348 184.397,-56.7791 199.753,-53.3347"/>
<polygon fill="white" stroke="white" points="200.956,-56.6521 209.947,-51.0483 199.423,-49.8219 200.956,-56.6521"/>
<text text-anchor="middle" x="181.5" y="-63.229" font-family="montserrat" font-size="14.00" fill="white">10</text>
</g>
<!-- D&#45;&gt;C -->
<g id="edge6" class="edge"><title>D&#45;&gt;C</title>
<path fill="none" stroke="white" d="M127,-123.016C127,-115.37 127,-106.321 127,-97.8564"/>
<polygon fill="white" stroke="white" points="130.5,-97.5976 127,-87.5976 123.5,-97.5976 130.5,-97.5976"/>
<text text-anchor="middle" x="116.5" y="-101.729" font-family="montserrat" font-size="14.00" fill="white">4</text>
</g>
<!-- D&#45;&gt;B -->
<g id="edge5" class="edge"><title>D&#45;&gt;B</title>
<path fill="none" stroke="white" d="M152.28,-134.848C166.645,-130.955 185.063,-125.963 200.873,-121.678"/>
<polygon fill="white" stroke="white" points="202.08,-124.978 210.816,-118.983 200.249,-118.221 202.08,-124.978"/>
<text text-anchor="middle" x="181.5" y="-132.229" font-family="montserrat" font-size="14.00" fill="white">1</text>
</g>
<!-- E&#45;&gt;A -->
<g id="edge7" class="edge"><title>E&#45;&gt;A</title>
<path fill="none" stroke="white" d="M211.704,-36.8353C184.503,-28.0536 138.347,-17.0619 100,-27.429 83.4283,-31.9091 66.7548,-41.2555 53.632,-49.9963"/>
<polygon fill="white" stroke="white" points="51.3741,-47.3031 45.1591,-55.8836 55.3685,-53.0516 51.3741,-47.3031"/>
<text text-anchor="middle" x="127" y="-31.229" font-family="montserrat" font-size="14.00" fill="white">3</text>
</g>
</g>
</svg>
