<?xml version="1.0" encoding="UTF-8" standalone="no"?>
<!DOCTYPE svg PUBLIC "-//W3C//DTD SVG 1.1//EN"
 "http://www.w3.org/Graphics/SVG/1.1/DTD/svg11.dtd">
<!-- Generated by graphviz version 2.38.0 (20140413.2041)
 -->
<!-- Title: G Pages: 1 -->
<svg width="169pt" height="157pt"
 viewBox="0.00 0.00 169.00 157.16" xmlns="http://www.w3.org/2000/svg" xmlns:xlink="http://www.w3.org/1999/xlink">
<g id="graph0" class="graph" transform="scale(1 1) rotate(0) translate(4 153.162)">
<title>G</title>
<text text-anchor="middle" x="80.5" y="-22.8" font-family="Ubuntu" font-size="14.00" fill="white">Centrality: 0</text>
<text text-anchor="middle" x="80.5" y="-7.8" font-family="Ubuntu" font-size="14.00" fill="white"> Connectedness: large</text>
<!-- A -->
<g id="node1" class="node"><title>A</title>
<ellipse fill="none" stroke="white" cx="27" cy="-131.162" rx="27" ry="18"/>
<text text-anchor="middle" x="27" y="-127.462" font-family="Ubuntu" font-size="14.00" fill="white">A</text>
</g>
<!-- B -->
<g id="node2" class="node"><title>B</title>
<ellipse fill="none" stroke="white" cx="27" cy="-59.1622" rx="27" ry="18"/>
<text text-anchor="middle" x="27" y="-55.4622" font-family="Ubuntu" font-size="14.00" fill="white">B</text>
</g>
<!-- A&#45;&gt;B -->
<g id="edge1" class="edge"><title>A&#45;&gt;B</title>
<path fill="none" stroke="white" d="M27,-102.472C27,-97.5718 27,-92.483 27,-87.5896"/>
<polygon fill="white" stroke="white" points="23.5001,-102.749 27,-112.749 30.5001,-102.749 23.5001,-102.749"/>
<polygon fill="white" stroke="white" points="30.5001,-87.3308 27,-77.3308 23.5001,-87.3309 30.5001,-87.3308"/>
<text text-anchor="middle" x="16.5" y="-91.4622" font-family="Ubuntu" font-size="14.00" fill="white">10</text>
</g>
<!-- C -->
<g id="node3" class="node"><title>C</title>
<ellipse fill="none" stroke="white" cx="134" cy="-131.162" rx="27" ry="18"/>
<text text-anchor="middle" x="134" y="-127.462" font-family="Ubuntu" font-size="14.00" fill="white">C</text>
</g>
<!-- A&#45;&gt;C -->
<g id="edge2" class="edge"><title>A&#45;&gt;C</title>
<path fill="none" stroke="white" d="M64.4687,-131.162C74.9055,-131.162 86.2772,-131.162 96.7037,-131.162"/>
<polygon fill="white" stroke="white" points="64.2251,-127.662 54.2251,-131.162 64.225,-134.662 64.2251,-127.662"/>
<polygon fill="white" stroke="white" points="96.7454,-134.662 106.745,-131.162 96.7453,-127.662 96.7454,-134.662"/>
<text text-anchor="middle" x="80.5" y="-134.962" font-family="Ubuntu" font-size="14.00" fill="white">10</text>
</g>
<!-- D -->
<g id="node4" class="node"><title>D</title>
<ellipse fill="none" stroke="white" cx="134" cy="-59.1622" rx="27" ry="18"/>
<text text-anchor="middle" x="134" y="-55.4622" font-family="Ubuntu" font-size="14.00" fill="white">D</text>
</g>
<!-- A&#45;&gt;D -->
<g id="edge3" class="edge"><title>A&#45;&gt;D</title>
<path fill="none" stroke="white" d="M56.1973,-113.751C66.6172,-107.156 78.4535,-99.4734 89,-92.1622 95.0106,-87.9954 101.363,-83.3679 107.315,-78.9284"/>
<polygon fill="white" stroke="white" points="54.0803,-110.947 47.473,-119.229 57.803,-116.875 54.0803,-110.947"/>
<polygon fill="white" stroke="white" points="109.785,-81.4494 115.662,-72.634 105.571,-75.8603 109.785,-81.4494"/>
<text text-anchor="middle" x="80.5" y="-107.962" font-family="Ubuntu" font-size="14.00" fill="white">10</text>
</g>
<!-- B&#45;&gt;C -->
<g id="edge4" class="edge"><title>B&#45;&gt;C</title>
<path fill="none" stroke="white" d="M63.8822,-63.076C72.5824,-65.157 81.5224,-68.3301 89,-73.1622 101.313,-81.119 111.501,-93.7725 118.962,-105.233"/>
<polygon fill="white" stroke="white" points="64.3697,-59.6047 53.881,-61.1006 63.0133,-66.472 64.3697,-59.6047"/>
<polygon fill="white" stroke="white" points="116.151,-107.345 124.349,-114.056 122.125,-103.697 116.151,-107.345"/>
<text text-anchor="middle" x="80.5" y="-76.9622" font-family="Ubuntu" font-size="14.00" fill="white">10</text>
</g>
<!-- B&#45;&gt;D -->
<g id="edge5" class="edge"><title>B&#45;&gt;D</title>
<path fill="none" stroke="white" d="M56.6693,-43.1292C66.764,-39.2642 78.2693,-36.8378 89,-39.1622 93.7719,-40.1958 98.6476,-41.7928 103.334,-43.6437"/>
<polygon fill="white" stroke="white" points="55.2371,-39.9355 47.4944,-47.1675 58.0571,-46.3423 55.2371,-39.9355"/>
<polygon fill="white" stroke="white" points="102.027,-46.8926 112.591,-47.7003 104.837,-40.4811 102.027,-46.8926"/>
<text text-anchor="middle" x="80.5" y="-42.9622" font-family="Ubuntu" font-size="14.00" fill="white">10</text>
</g>
<!-- C&#45;&gt;D -->
<g id="edge6" class="edge"><title>C&#45;&gt;D</title>
<path fill="none" stroke="white" d="M134,-102.472C134,-97.5718 134,-92.483 134,-87.5896"/>
<polygon fill="white" stroke="white" points="130.5,-102.749 134,-112.749 137.5,-102.749 130.5,-102.749"/>
<polygon fill="white" stroke="white" points="137.5,-87.3308 134,-77.3308 130.5,-87.3309 137.5,-87.3308"/>
<text text-anchor="middle" x="123.5" y="-91.4622" font-family="Ubuntu" font-size="14.00" fill="white">10</text>
</g>
</g>
</svg>
